<?xml version="1.0" encoding="iso-8859-1"?>
<!-- Generator: Adobe Illustrator 20.0.0, SVG Export Plug-In . SVG Version: 6.00 Build 0)  -->
<svg version="1.1" id="Capa_1" xmlns="http://www.w3.org/2000/svg" xmlns:xlink="http://www.w3.org/1999/xlink" x="0px" y="0px"
	 viewBox="0 0 500 105" style="enable-background:new 0 0 500 105;" xml:space="preserve">
<g>
	<path style="fill:#FFFFFF;" d="M24.603,50.475c0-13.611-0.013-27.223,0.013-40.834C24.62,7.503,24,4.929,26.978,4.147
		c2.805-0.736,3.897,1.578,5.117,3.359c5.451,7.959,11.003,15.857,16.182,23.991c2.479,3.894,5.417,4.71,9.635,3.604
		c10.237-2.684,20.525-5.18,30.804-7.699c9.113-2.233,13.649,1.348,13.662,10.75c0.018,12.345,0.023,24.691-0.003,37.036
		c-0.015,7.247-2.08,9.804-9.246,11.574c-18.401,4.542-36.801,9.089-55.21,13.601c-8.898,2.181-13.304-1.304-13.313-10.478
		C24.593,76.748,24.603,63.611,24.603,50.475z"/>
	<path style="fill:#FFFFFF;" d="M454.88,91.378c-6.734,0.437-12.12-0.714-17.282-2.909c-2.833-1.204-5.225-3.149-3.793-6.539
		c1.472-3.485,4.256-2.879,7.174-1.464c6.226,3.02,12.791,3.385,19.442,1.727c3.669-0.915,6.26-3.095,6.515-7.167
		c0.247-3.945-2.617-5.732-5.621-6.753c-5.075-1.724-10.378-2.764-15.491-4.387c-5.596-1.777-10.546-4.546-12.212-10.808
		c-2.35-8.834,2.379-16.822,11.559-19.249c7.897-2.088,15.712-1.27,23.313,1.546c3.036,1.125,5.714,2.97,3.983,6.702
		c-1.605,3.462-4.437,2.527-7.311,1.319c-5.7-2.396-11.634-2.805-17.677-1.389c-3.243,0.76-5.351,2.54-5.779,6.031
		c-0.427,3.481,1.589,5.208,4.385,6.48c4.664,2.122,9.765,2.575,14.642,3.882c9.035,2.423,14.163,7.533,14.709,14.698
		c0.758,9.951-5.687,17.155-16.421,18.256C457.291,91.53,455.534,91.378,454.88,91.378z"/>
	<path style="fill:#FFFFFF;" d="M299.066,91.5c-8.854-0.035-13.912-4.134-14.881-12.551c-1.234-10.716-0.301-21.512-0.459-32.272
		c-0.044-3.018,0.28-5.559-4.223-5.47c-3.229,0.064-4.189-2.62-2.121-5.349c2.866-3.781,6.027-7.339,9.09-10.969
		c0.948-1.124,2.091-2.077,3.69-1.551c1.718,0.565,2.659,1.979,2.358,3.68c-0.987,5.578,2.068,6.358,6.498,5.84
		c1.406-0.165,2.848-0.037,4.273-0.02c2.949,0.034,5.011,1.281,4.976,4.443c-0.033,2.948-2.056,4.072-4.778,4.112
		c-2.534,0.037-5.074,0.124-7.601-0.004c-2.474-0.126-3.349,0.922-3.331,3.335c0.076,10.453-0.082,20.909,0.106,31.359
		c0.11,6.069,3.264,8.181,9.095,6.542c1.213-0.341,2.335-1.022,3.555-1.314c2.268-0.542,4.074,0.18,5.064,2.405
		c0.916,2.059,0.175,3.735-1.456,5.027C305.901,91.137,302.357,91.725,299.066,91.5z"/>
	<path style="fill:#FFFFFF;" d="M406.271,40.324c4.214-3.051,8.214-4.199,12.596-4.168c2.596,0.018,4.402,1.079,4.732,3.647
		c0.372,2.896-1.509,4.297-4.115,4.852c-10.027,2.135-13.26,6.134-13.291,16.563c-0.024,8.065-0.018,16.131,0.001,24.197
		c0.007,3.058-0.328,6.007-4.283,6.002c-3.921-0.005-4.319-2.913-4.315-5.992c0.017-15.182,0.028-30.364-0.01-45.546
		c-0.008-3.13-0.094-6.614,3.9-6.931C405.798,32.603,406.355,36.062,406.271,40.324z"/>
	<path style="fill:#FFFFFF;" d="M319.822,57.63c0-8.856-0.004-17.712,0.005-26.568c0.001-1.263-0.062-2.546,0.129-3.786
		c0.385-2.494,1.902-4.107,4.453-4.055c2.575,0.052,4.089,1.764,4.206,4.276c0.177,3.787,0.089,7.588,0.09,11.383
		c0.006,15.182,0.014,30.364-0.007,45.546c-0.005,3.17,0.359,6.944-4.26,6.971c-4.81,0.028-4.601-3.828-4.609-7.198
		C319.808,75.343,319.822,66.486,319.822,57.63z"/>
	<path style="fill:#FFFFFF;" d="M193.33,44.248c-9.578-12.942-23.519-14.468-44.148-4.552c0-7.119,0.032-14.02-0.015-20.921
		c-0.02-2.856-1.132-5.118-4.355-5.065c-3.173,0.052-4.221,2.193-4.218,5.142c0.025,22.489,0.019,44.978,0.008,67.467
		c-0.001,2.672,0.833,4.831,3.784,5.084c3.126,0.267,4.578-1.603,4.817-4.592c0.056-0.704-0.23-1.606,0.758-1.963
		c16.071,11.554,33.238,6.754,41.478-2.335C200.634,72.37,201.532,55.331,193.33,44.248z M169.826,82.903
		c-12.158-0.038-20.741-8.801-20.636-21.07c0.104-12.054,8.556-20.186,20.937-20.144c12.017,0.041,20.13,8.505,20.06,20.929
		C190.122,74.49,181.64,82.94,169.826,82.903z"/>
	<path style="fill:#FFFFFF;" d="M369.635,33.317c-13.044-2.799-24.953,3.472-29.432,15.677c-2.801,7.634-3.142,15.493-0.97,23.33
		c4.632,16.716,21.684,23.79,39.488,16.374c3.249-1.353,7.844-2.685,5.732-7.524c-2.122-4.862-5.629-1.919-8.734-0.387
		c-12.275,6.057-25.375,0.481-28.377-11.95c-0.797-3.301-0.718-5.377,3.769-5.02c5.039,0.401,10.134,0.092,15.205,0.088
		c5.546-0.004,11.092,0.034,16.638-0.019c3.094-0.029,5.004-1.254,5.203-4.764C388.867,46.561,381.223,35.803,369.635,33.317z
		 M375.543,55.388c-1.061-0.063-2.123-0.098-3.187-0.116c-3.19-0.052-6.39,0.056-9.584,0.056c-3.075-0.002-6.151-0.041-9.226-0.019
		c-1.025,0.007-2.05,0.021-3.074,0.045c-2.084,0.05-2.852-0.522-2.267-2.726c1.642-6.187,8.384-11.359,15.238-11.531
		c6.841-0.171,12.674,3.942,14.812,10.361C379.122,54.06,379.025,55.595,375.543,55.388z"/>
	<path style="fill:#FFFFFF;" d="M237.821,32.701c-16.15-0.189-29.571,13.214-29.567,29.529
		c0.004,16.319,12.855,29.225,29.129,29.254c16.507,0.029,29.733-13.017,29.704-29.299C267.06,46.184,253.862,32.889,237.821,32.701
		z M237.73,82.903c-11.456,0.055-20.87-9.269-20.896-20.696c-0.026-11.3,9.628-20.964,20.875-20.899
		c10.947,0.063,20.658,9.711,20.782,20.646C258.619,73.221,249.078,82.849,237.73,82.903z"/>
</g>
</svg>
