<?xml version="1.0" encoding="utf-8"?>
<!-- Generator: Adobe Illustrator 20.0.0, SVG Export Plug-In . SVG Version: 6.00 Build 0)  -->
<svg version="1.1" id="Capa_1" xmlns="http://www.w3.org/2000/svg" xmlns:xlink="http://www.w3.org/1999/xlink" x="0px" y="0px"
	 viewBox="0 0 800 600" style="enable-background:new 0 0 800 600;" xml:space="preserve">
<style type="text/css">
	.st0{fill:#FFFFFF;}
	.st1{opacity:0.102;enable-background:new    ;}
	.st2{opacity:0.749;enable-background:new    ;}
	.st3{fill:#D70142;}
	.st4{fill:#BAE2F5;}
	.st5{fill:url(#SVGID_1_);}
	.st6{fill:none;}
	.st7{fill:#4D3C24;}
	.st8{fill:#E56156;}
	.st9{fill:#F9BA82;}
	.st10{fill:#D35F9C;}
	.st11{fill:#8C1B68;}
	.st12{fill:#F3A2B9;}
	.st13{fill:#A58ABF;}
	.st14{fill:#A9E3B4;}
	.st15{fill:#74B957;}
	.st16{fill:#6787B2;}
	.st17{fill:#5F73D3;}
	.st18{fill:#8C9FED;}
	.st19{font-family:'HelveticaNeue-Medium';}
	.st20{font-size:31.8128px;}
	.st21{font-size:16.5349px;}
	.st22{fill:none;stroke:#FFFFFF;stroke-width:0.5;stroke-miterlimit:10;}
	.st23{fill:none;stroke:#FFFFFF;stroke-width:0.25;stroke-miterlimit:10;}
	.st24{fill:url(#SVGID_2_);}
</style>
<path class="st0" d="M800,321v259c0,11-9,20-20,20H20c-11,0-20-9-20-20V321H800z"/>
<path class="st1" d="M456,430h-52c-1.1,0-2-0.9-2-2v-2c0-1.1,0.9-2,2-2h52c1.1,0,2,0.9,2,2v2C458,429.1,457.1,430,456,430z M340,430
	c-1.1,0-2-0.9-2-2v-2c0-1.1,0.9-2,2-2h40c1.1,0,2,0.9,2,2v2c0,1.1-0.9,2-2,2H340z M290,430c-1.1,0-2-0.9-2-2v-2c0-1.1,0.9-2,2-2h26
	c1.1,0,2,0.9,2,2v2c0,1.1-0.9,2-2,2H290z M226,430c-1.1,0-2-0.9-2-2v-2c0-1.1,0.9-2,2-2h40c1.1,0,2,0.9,2,2v2c0,1.1-0.9,2-2,2H226z
	 M162,430c-1.1,0-2-0.9-2-2v-2c0-1.1,0.9-2,2-2h40c1.1,0,2,0.9,2,2v2c0,1.1-0.9,2-2,2H162z M120,430c-1.1,0-2-0.9-2-2v-2
	c0-1.1,0.9-2,2-2h18c1.1,0,2,0.9,2,2v2c0,1.1-0.9,2-2,2H120z M52,430c-1.1,0-2-0.9-2-2v-2c0-1.1,0.9-2,2-2h44c1.1,0,2,0.9,2,2v2
	c0,1.1-0.9,2-2,2H52z"/>
<path class="st2" d="M52,391h234c1.1,0,2,0.9,2,2v2c0,1.1-0.9,2-2,2H52c-1.1,0-2-0.9-2-2v-2C50,391.9,50.9,391,52,391z"/>
<path class="st3" d="M0,20C0,9,9,0,20,0h760c11,0,20,9,20,20v318H0V20z"/>
<path class="st4" d="M183,218h-82c-1.1,0-2-0.9-2-2v-2c0-1.1,0.9-2,2-2h82c1.1,0,2,0.9,2,2v2C185,217.1,184.1,218,183,218z M101,224
	h77c1.1,0,2,0.9,2,2v2c0,1.1-0.9,2-2,2h-77c-1.1,0-2-0.9-2-2v-2C99,224.9,99.9,224,101,224z"/>
<path class="st4" d="M52,212h25c1.1,0,2,0.9,2,2v14c0,1.1-0.9,2-2,2H52c-1.1,0-2-0.9-2-2v-14C50,212.9,50.9,212,52,212z"/>
<path class="st4" d="M766,60h-77c-1.1,0-2-0.9-2-2v-2c0-1.1,0.9-2,2-2h77c1.1,0,2,0.9,2,2v2C768,59.1,767.1,60,766,60z M621,60
	c-1.1,0-2-0.9-2-2v-2c0-1.1,0.9-2,2-2h44c1.1,0,2,0.9,2,2v2c0,1.1-0.9,2-2,2H621z M557,60c-1.1,0-2-0.9-2-2v-2c0-1.1,0.9-2,2-2h40
	c1.1,0,2,0.9,2,2v2c0,1.1-0.9,2-2,2H557z"/>
<linearGradient id="SVGID_1_" gradientUnits="userSpaceOnUse" x1="7.216722e-03" y1="5.0169" x2="800.0073" y2="605.0168" gradientTransform="matrix(1 0 0 -1 0 602)">
	<stop  offset="0" style="stop-color:#FFFFFF;stop-opacity:0"/>
	<stop  offset="1" style="stop-color:#FFFFFF;stop-opacity:0.2"/>
</linearGradient>
<path class="st5" d="M20-3h760c11,0,20,9,20,20v560c0,11-9,20-20,20H20c-11,0-20-9-20-20V17C0,6,9-3,20-3z"/>
<path class="st6" d="M128,451.5c0.8,4.9,2.5,9.2,4.8,13C129.6,457.7,128.2,452.3,128,451.5z"/>
<path class="st6" d="M390,450.5c0.8,4.9,2.5,9.2,4.8,13C391.6,456.7,390.2,451.3,390,450.5z"/>
<path class="st6" d="M148.3,505.1c-2.8-2.3-5.2-4.6-7.5-6.8C143.2,500.8,145.7,503,148.3,505.1z"/>
<polygon class="st6" points="127.7,575.9 127.6,575.9 128.4,599.9 128.5,599.9 128,585.3 "/>
<path class="st6" d="M410.3,504.1c-2.8-2.3-5.2-4.6-7.5-6.8C405.2,499.8,407.7,502,410.3,504.1z"/>
<polygon class="st6" points="389.7,574.9 389.6,574.9 390.4,599.9 390.5,599.9 390,584.3 "/>
<path class="st7" d="M74.6,556.2c4.5,0,8.4,3.3,9.1,7.8l0.4,2.7c-0.8-5.5,3.4-10.5,9.1-10.5h6.3c4.8,0,8.7,3.6,9.1,8.4l0.1,1.5
	c-0.5-5.3,3.8-9.9,9.1-9.9h0.3c4.9,0,9,3.9,9.1,8.8l0.4,10.8h0.1l-0.3-10.2c-0.2-5.2,4-9.5,9.1-9.5h6.3c5.2,0,9.3,4.3,9.1,9.5l0-0.6
	c0.2-4.9,4.2-8.8,9.2-8.8h0.3c5.3,0,9.5,4.6,9.1,9.9l0.1-1.5c0.4-4.7,4.4-8.4,9.1-8.4h6.3c5.6,0,9.8,4.9,9.1,10.4l0.4-2.6
	c0.3-2.2,1.5-4.2,3.1-5.6c1.6-1.4,3.7-2.2,6-2.2c4,0,7.3,2.6,8.6,6v0c0,0.1,0.1,0.2,0.1,0.4c0-1.5,0-3-0.1-4.5v0
	c-0.5-6.5-2.1-12.8-4.7-18.3c-0.7-1.4-1.4-2.8-2.2-4.1c-0.5,4.9-5.3,9.5-16.5,8.9c-3.4-0.2-6.7-0.5-9.9-1c0,0,0,0,0,0
	c-2.9,1.4-21.7,9.9-40.4,3.3c-7.7,3.8-21.5,2.3-33.6-3.4l0,0c-4,2.8-25.9,0.8-31.5-10.1c0,0,0,0,0,0c-1.4,2-2.7,4.1-3.8,6.4
	c-2.6,5.5-4.2,11.8-4.6,18.4c-0.1,1.5-0.1,3-0.1,4.5c0,0,0,0,0,0c0,0,0,0,0,0C67,559,70.4,556.2,74.6,556.2z"/>
<path class="st8" d="M83.2,524.9c0.5-0.3,1-0.6,1.5-0.9c0,0,0,0,0,0c-1.3-2.8-1.9-5.4-2.1-7.7l0,0c0,0-13.2,3.6-8.8,15.7
	c0.2,0.5,0.4,1,0.6,1.4C76.9,530,79.8,527.1,83.2,524.9z"/>
<path class="st8" d="M105.9,543.5L105.9,543.5c-8.6-4.1-16.4-10.3-20.6-18.2c-0.2-0.4-0.4-0.9-0.6-1.3c0,0,0,0,0,0
	c-0.5,0.3-1,0.6-1.5,0.9c-3.4,2.2-6.3,5.1-8.8,8.5C80,544.4,101.9,546.3,105.9,543.5z"/>
<path class="st9" d="M87.7,522.3c4.4-2.3,9.3-4.2,14.5-5.5c0,0,0,0,0,0c-3.8-6.4-6.2-13.1-6.2-19.8c0,0-14.2,6.3-13.4,19.3
	L87.7,522.3C87.7,522.3,87.7,522.3,87.7,522.3z"/>
<path class="st9" d="M102.2,516.8C102.2,516.8,102.2,516.8,102.2,516.8c-5.2,1.3-10,3.2-14.5,5.5c0,0,0,0,0,0l18.2,21.2
	c12.1,5.7,25.8,7.2,33.6,3.4C125.5,542.1,110.5,530.4,102.2,516.8z"/>
<path class="st9" d="M86.3,523.1c0.5-0.3,0.9-0.5,1.4-0.8l-5.1-6c0.1,2.4,0.8,4.9,2.1,7.7C85.2,523.7,85.8,523.4,86.3,523.1z"/>
<path class="st9" d="M86.3,523.1c-0.6,0.3-1.1,0.6-1.7,1c0.2,0.4,0.4,0.8,0.6,1.3c4.2,7.9,12,14.1,20.6,18.2l-18.2-21.2
	C87.3,522.6,86.8,522.8,86.3,523.1z"/>
<path class="st8" d="M114.2,514.8c0,0,0.1,0,0.1,0c2.1-0.2,4.2-0.3,6.3-0.3h6.7c-9.4-11.7-13.8-23.9-14.5-31.2
	c-0.6-5.4,0.4-9.8,2-13.4c0-0.2,0-0.3,0-0.3S95.9,476,96,497c0.3,7.3,2.9,13.8,6.6,19.7C106.4,515.7,110.2,515.1,114.2,514.8z"/>
<path class="st8" d="M127.4,514.5h-6.7c-2.1,0-4.3,0.1-6.3,0.3c0,0-0.1,0-0.1,0c-4,0.3-7.9,1-11.6,1.9
	c12.2,19.2,36.8,30.2,36.8,30.2c18.8,6.6,37.5-1.9,40.4-3.3c-17.1-2.6-30.4-9.1-40.4-17.2C134.8,522.7,130.8,518.6,127.4,514.5z"/>
<path class="st8" d="M102.6,516.7C102.6,516.7,102.6,516.7,102.6,516.7c-3.7-5.8-6.3-12.4-6.6-19.7c0,6.7,2.4,13.4,6.2,19.8
	C102.4,516.7,102.5,516.7,102.6,516.7z"/>
<path class="st8" d="M102.6,516.7C102.6,516.7,102.6,516.7,102.6,516.7c-0.1,0-0.3,0.1-0.4,0.1c8.2,13.6,23.3,25.3,37.2,30.1
	C139.5,546.9,114.8,535.8,102.6,516.7z"/>
<path class="st9" d="M130.7,514.5h6.3c0,0,0,0,0,0h21.5c0.8,0,1.6,0,2.3,0c-3.9-2.6-8.1-5.7-12.5-9.4c0,0-0.1-0.1-0.1-0.1
	c-2.6-2.1-5.1-4.3-7.5-6.8c-0.1-0.1-0.1-0.1-0.2-0.2c-0.4-0.4-0.8-0.8-1.2-1.2c-15.9-16.3-17.3-28.9-15.6-36.7c0-0.3,0-0.6-0.1-1
	c0,0-5.7,3.4-8.9,10.7c0,0,0,0,0,0c0.2,2.2,1.3,13.9,3,21.2C120,500.2,124.7,507.9,130.7,514.5z"/>
<path class="st9" d="M206.3,535.7c0.5-4.8-3.1-9.9-8.7-10.5c-0.3,0.1-0.5,0.2-0.8,0.2C200.6,528.1,203.8,531.6,206.3,535.7z"/>
<path class="st9" d="M196.9,525.5c-7.2,1.9-19.3,0.1-36-11c-0.8,0-1.6,0-2.3,0H137c0,0,0,0,0,0h-6.3c18.7,20.4,49.6,28.9,49.6,28.9
	s-0.1,0.1-0.4,0.2c0,0,0,0,0,0c3.2,0.5,6.5,0.8,9.9,1c11.2,0.6,16-4,16.5-8.9c0,0,0,0,0,0C203.8,531.6,200.6,528.1,196.9,525.5z"/>
<path class="st9" d="M112.9,483.3c0.7,7.3,5.1,19.6,14.5,31.2h3.3c-6-6.5-10.8-14.3-12.9-23.4c-1.7-7.3-2.8-19-3-21.2
	C113.3,473.4,112.3,477.9,112.9,483.3z"/>
<path class="st9" d="M130.7,514.5h-3.3c3.3,4.1,7.3,8.2,12,12c10,8,23.3,14.6,40.4,17.2c0.3-0.1,0.4-0.2,0.4-0.2
	S149.5,534.9,130.7,514.5z"/>
<path class="st8" d="M140.7,498.1c0.1,0.1,0.1,0.1,0.2,0.2c2.2,2.2,4.7,4.4,7.5,6.8c0,0,0.1,0,0.1,0.1c4.8,3.8,9.8,6.9,14.8,9.5
	c0.6,0,1.1,0.1,1.7,0.1c0,0,0.1,0,0.1,0c2.6,0.2,5.1,0.6,7.6,1.1c0.6,0.1,1.1,0.2,1.7,0.3c0,0,0,0,0,0c6.8,1.5,13.2,3.9,18.8,7
	c0.8,0.4,1.5,0.9,2.3,1.3c0.1,0.1,0.2,0.1,0.3,0.2c0.3,0.2,0.5,0.3,0.8,0.5c0.4,0,0.8,0,1.2,0c5.7-1.8,8.1-5.9,7-9
	c-2.5-7-16-20.5-27.4-24.6c-1.6,3-6.1,4.5-16.5,1.1c-9.3-3-16.2-9.6-21.3-16.7c-2.8-3.9-5-8-6.7-11.6c-2.3-3.8-4-8.1-4.8-13
	c0,0,0-0.1,0-0.1c0,0-2.9,3.1-4.1,8.8c1,15.4,7.2,27.3,15.6,36.6C139.9,497.2,140.3,497.7,140.7,498.1z"/>
<path class="st8" d="M196.2,525.2c0.1,0,0.2,0,0.2,0c-0.3-0.2-0.5-0.4-0.8-0.5c-0.1-0.1-0.2-0.1-0.3-0.2c-0.8-0.5-1.5-0.9-2.3-1.3
	c-5.6-3.2-12-5.6-18.8-7c0,0,0,0,0,0c-0.6-0.1-1.1-0.2-1.7-0.3c-2.5-0.5-5-0.8-7.6-1.1c0,0-0.1,0-0.1,0c-0.6,0-1.1-0.1-1.7-0.1
	C178.5,522.6,193.2,525.4,196.2,525.2z"/>
<path class="st8" d="M196.5,525.2c0.1,0.1,0.3,0.2,0.4,0.3c0.3-0.1,0.5-0.1,0.8-0.2C197.3,525.2,196.9,525.2,196.5,525.2z"/>
<path class="st8" d="M139.5,496.9c0.4,0.4,0.8,0.8,1.2,1.2C140.3,497.7,139.9,497.2,139.5,496.9c-8.4-9.4-14.6-21.3-15.6-36.7
	C122.2,467.9,123.6,480.6,139.5,496.9z"/>
<path class="st8" d="M148.4,505.1c4.4,3.7,8.6,6.8,12.5,9.4c0.8,0,1.5,0.1,2.3,0.1C158.2,512,153.2,508.9,148.4,505.1z"/>
<path class="st8" d="M196.9,525.5c-0.1-0.1-0.3-0.2-0.4-0.3c-0.1,0-0.2,0-0.2,0c-3.1,0.1-17.7-2.6-33.1-10.6c-0.8,0-1.5-0.1-2.3-0.1
	C177.6,525.6,189.6,527.4,196.9,525.5z"/>
<path class="st9" d="M139.5,472.9c13.5,13.4,33.6,17.6,33.6,17.6c1.4,0.2,2.8,0.6,4.2,1.1c2.2-4.1-1.3-11.3-3.1-13.7
	c-7.8-10-21.3-9.7-34.7-17.4c-3.9-2.2-7.7-5.1-11.5-9.2c0,0,0,0,0,0.1c0.2,0.8,1.6,6.2,4.8,13C134.7,467.6,136.9,470.4,139.5,472.9z
	"/>
<path class="st9" d="M139.5,472.9c-2.5-2.5-4.8-5.3-6.7-8.5c1.7,3.7,3.9,7.7,6.7,11.6c5,7.1,12,13.7,21.3,16.7
	c10.4,3.3,15,1.9,16.5-1.1c-1.5-0.5-2.9-0.9-4.2-1.1C173,490.6,152.9,486.3,139.5,472.9z"/>
<polygon class="st10" points="168.7,587.4 167.7,599.9 190.1,599.9 192.8,582.2 193.8,575.9 169.7,575.9 "/>
<path class="st10" d="M169.7,575.9h24.1l1.4-9.2c0.8-5.5-3.5-10.4-9.1-10.4h-6.3c-4.8,0-8.7,3.6-9.1,8.4l-0.1,1.5v0.1L169.7,575.9z"
	/>
<polygon class="st10" points="151.3,585.4 151.6,575.9 127.7,575.9 128,585.3 128.5,599.9 150.8,599.9 "/>
<path class="st10" d="M152,565.7c0.2-5.2-4-9.5-9.1-9.5h-6.3c-5.2,0-9.3,4.3-9.1,9.5l0.3,10.2h24L152,565.7z"/>
<polygon class="st11" points="169.7,575.9 151.6,575.9 151.3,585.4 150.8,599.9 167.7,599.9 168.7,587.4 "/>
<path class="st11" d="M169.7,575.9l0.8-9.7v-0.1c0.4-5.3-3.8-9.9-9.1-9.9h-0.3c-4.9,0-9,3.9-9.2,8.8l0,0.6l-0.3,10.2H169.7z"/>
<path class="st11" d="M211.8,575.9l0.9-4.4l0.9-4.3c0.3-1.6,0.2-3.2-0.2-4.6c0,2.5-0.2,5-0.6,7.5L211.8,575.9z"/>
<polygon class="st11" points="192.8,582.2 190.1,599.9 207,599.9 209.3,588.2 211.8,575.9 193.8,575.9 "/>
<path class="st11" d="M213.2,562.3c-1.3-3.5-4.6-6-8.6-6c-2.3,0-4.4,0.8-6,2.2c-1.6,1.4-2.7,3.3-3.1,5.6l-0.4,2.6l-1.4,9.2h18.1
	l0.9-5.7c0.4-2.5,0.6-5,0.6-7.5C213.3,562.5,213.3,562.4,213.2,562.3L213.2,562.3z"/>
<polygon class="st10" points="85.5,575.9 89.1,599.9 111.5,599.9 109.5,575.9 "/>
<path class="st10" d="M109.5,575.9l-0.8-9.7c0,0,0,0,0,0l-0.1-1.5c-0.4-4.7-4.4-8.4-9.1-8.4h-6.3c-5.6,0-9.9,5-9.1,10.5l1.4,9.1
	H109.5z"/>
<polygon class="st11" points="109.5,575.9 111.5,599.9 128.4,599.9 127.6,575.9 "/>
<path class="st11" d="M127.6,575.9l-0.4-10.8c-0.2-4.9-4.2-8.8-9.1-8.8h-0.3c-5.4,0-9.6,4.6-9.1,9.9l0.8,9.7H127.6z"/>
<polygon class="st11" points="111.5,599.9 111.5,599.9 109.5,575.9 109.5,575.9 "/>
<polygon class="st11" points="109.5,575.9 109.5,575.9 108.7,566.2 108.7,566.2 "/>
<path class="st11" d="M85.5,575.9H67.4v0l-0.9-5.7c-0.4-2.5-0.6-5-0.6-7.5c-0.4,1.4-0.6,3-0.2,4.6l6.6,32.7h16.8L85.5,575.9z"/>
<path class="st11" d="M67.4,575.8L67.4,575.8l18.1,0l-1.4-9.1c0,0,0,0,0,0l-0.4-2.7c-0.7-4.5-4.5-7.8-9.1-7.8
	c-4.2,0-7.6,2.8-8.7,6.4c0,2.5,0.2,5,0.6,7.5L67.4,575.8z"/>
<polygon class="st11" points="85.5,575.9 85.5,575.9 89.1,599.9 89.1,599.9 "/>
<polygon class="st11" points="84.1,566.8 84.1,566.8 85.5,575.9 85.5,575.9 "/>
<path class="st7" d="M336.6,555.2c4.5,0,8.4,3.3,9.1,7.8l0.4,2.7c-0.8-5.5,3.4-10.5,9.1-10.5h6.3c4.8,0,8.7,3.6,9.1,8.4l0.1,1.5
	c-0.5-5.3,3.8-9.9,9.1-9.9h0.3c4.9,0,9,3.9,9.1,8.8l0.4,10.8h0.1l-0.3-10.2c-0.2-5.2,4-9.5,9.1-9.5h6.3c5.2,0,9.3,4.3,9.1,9.5l0-0.6
	c0.2-4.9,4.2-8.8,9.2-8.8h0.3c5.3,0,9.5,4.6,9.1,9.9l0.1-1.5c0.4-4.7,4.4-8.4,9.1-8.4h6.3c5.6,0,9.8,4.9,9.1,10.4l0.4-2.6
	c0.3-2.2,1.5-4.2,3.1-5.6c1.6-1.4,3.7-2.2,6-2.2c4,0,7.3,2.6,8.6,6v0c0,0.1,0.1,0.2,0.1,0.4c0-1.5,0-3-0.1-4.5v0
	c-0.5-6.5-2.1-12.8-4.7-18.3c-0.7-1.4-1.4-2.8-2.2-4.1c-0.5,4.9-5.3,9.5-16.5,8.9c-3.4-0.2-6.7-0.5-9.9-1c0,0,0,0,0,0
	c-2.9,1.4-21.7,9.9-40.4,3.3c-7.7,3.8-21.5,2.3-33.6-3.4l0,0c-4,2.8-25.9,0.8-31.5-10.1c0,0,0,0,0,0c-1.4,2-2.7,4.1-3.8,6.4
	c-2.6,5.5-4.2,11.8-4.6,18.4c-0.1,1.5-0.1,3-0.1,4.5c0,0,0,0,0,0c0,0,0,0,0,0C329,558,332.4,555.2,336.6,555.2z"/>
<path class="st12" d="M345.2,523.9c0.5-0.3,1-0.6,1.5-0.9c0,0,0,0,0,0c-1.3-2.8-1.9-5.4-2.1-7.7l0,0c0,0-13.2,3.6-8.8,15.7
	c0.2,0.5,0.4,1,0.6,1.4C338.9,529,341.8,526.1,345.2,523.9z"/>
<path class="st12" d="M367.9,542.5L367.9,542.5c-8.6-4.1-16.4-10.3-20.6-18.2c-0.2-0.4-0.4-0.9-0.6-1.3c0,0,0,0,0,0
	c-0.5,0.3-1,0.6-1.5,0.9c-3.4,2.2-6.3,5.1-8.8,8.5C342,543.4,363.9,545.3,367.9,542.5z"/>
<path class="st13" d="M349.7,521.3c4.4-2.3,9.3-4.2,14.5-5.5c0,0,0,0,0,0c-3.8-6.4-6.2-13.1-6.2-19.8c0,0-14.2,6.3-13.4,19.3
	L349.7,521.3C349.7,521.3,349.7,521.3,349.7,521.3z"/>
<path class="st13" d="M364.2,515.8C364.2,515.8,364.2,515.8,364.2,515.8c-5.2,1.3-10,3.2-14.5,5.5c0,0,0,0,0,0l18.2,21.2
	c12.1,5.7,25.8,7.2,33.6,3.4C387.5,541.1,372.5,529.4,364.2,515.8z"/>
<path class="st13" d="M348.3,522.1c0.5-0.3,0.9-0.5,1.4-0.8l-5.1-6c0.1,2.4,0.8,4.9,2.1,7.7C347.2,522.7,347.8,522.4,348.3,522.1z"
	/>
<path class="st13" d="M348.3,522.1c-0.6,0.3-1.1,0.6-1.7,1c0.2,0.4,0.4,0.8,0.6,1.3c4.2,7.9,12,14.1,20.6,18.2l-18.2-21.2
	C349.3,521.6,348.8,521.8,348.3,522.1z"/>
<path class="st12" d="M376.2,513.8c0,0,0.1,0,0.1,0c2.1-0.2,4.2-0.3,6.3-0.3h6.7c-9.4-11.7-13.8-23.9-14.5-31.2
	c-0.6-5.4,0.4-9.8,2-13.4c0-0.2,0-0.3,0-0.3S357.9,475,358,496c0.3,7.3,2.9,13.8,6.6,19.7C368.4,514.7,372.2,514.1,376.2,513.8z"/>
<path class="st12" d="M389.4,513.5h-6.7c-2.1,0-4.3,0.1-6.3,0.3c0,0-0.1,0-0.1,0c-4,0.3-7.9,1-11.6,1.9
	c12.2,19.2,36.8,30.2,36.8,30.2c18.8,6.6,37.5-1.9,40.4-3.3c-17.1-2.6-30.4-9.1-40.4-17.2C396.8,521.7,392.8,517.6,389.4,513.5z"/>
<path class="st12" d="M364.6,515.7C364.6,515.7,364.6,515.7,364.6,515.7c-3.7-5.8-6.3-12.4-6.6-19.7c0,6.7,2.4,13.4,6.2,19.8
	C364.4,515.7,364.5,515.7,364.6,515.7z"/>
<path class="st12" d="M364.6,515.7C364.6,515.7,364.6,515.7,364.6,515.7c-0.1,0-0.3,0.1-0.4,0.1c8.2,13.6,23.3,25.3,37.2,30.1
	C401.5,545.9,376.8,534.8,364.6,515.7z"/>
<path class="st13" d="M468.3,534.7c0.5-4.8-3.1-9.9-8.7-10.5c-0.3,0.1-0.5,0.2-0.8,0.2C462.6,527.1,465.8,530.6,468.3,534.7z"/>
<path class="st13" d="M392.7,513.5h6.3c0,0,0,0,0,0h21.5c0.8,0,1.6,0,2.3,0c-3.9-2.6-8.1-5.7-12.5-9.4c0,0-0.1-0.1-0.1-0.1
	c-2.6-2.1-5.1-4.3-7.5-6.8c-0.1-0.1-0.1-0.1-0.2-0.2c-0.4-0.4-0.8-0.8-1.2-1.2c-15.9-16.3-17.3-28.9-15.6-36.7c0-0.3,0-0.6-0.1-1
	c0,0-5.7,3.4-8.9,10.7c0,0,0,0,0,0c0.2,2.2,1.3,13.9,3,21.2C382,499.2,386.7,506.9,392.7,513.5z"/>
<path class="st13" d="M458.9,524.5c-7.2,1.9-19.3,0.1-36-11c-0.8,0-1.6,0-2.3,0H399c0,0,0,0,0,0h-6.3c18.7,20.4,49.6,28.9,49.6,28.9
	s-0.1,0.1-0.4,0.2c0,0,0,0,0,0c3.2,0.5,6.5,0.8,9.9,1c11.2,0.6,16-4,16.5-8.9c0,0,0,0,0,0C465.8,530.6,462.6,527.1,458.9,524.5z"/>
<path class="st13" d="M374.9,482.3c0.7,7.3,5.1,19.6,14.5,31.2h3.3c-6-6.5-10.8-14.3-12.9-23.4c-1.7-7.3-2.8-19-3-21.2
	C375.3,472.4,374.3,476.9,374.9,482.3z"/>
<path class="st13" d="M392.7,513.5h-3.3c3.3,4.1,7.3,8.2,12,12c10,8,23.3,14.6,40.4,17.2c0.3-0.1,0.4-0.2,0.4-0.2
	S411.5,533.9,392.7,513.5z"/>
<path class="st12" d="M402.7,497.1c0.1,0.1,0.1,0.1,0.2,0.2c2.2,2.2,4.7,4.4,7.5,6.8c0,0,0.1,0,0.1,0.1c4.8,3.8,9.8,6.9,14.8,9.5
	c0.6,0,1.1,0.1,1.7,0.1c0,0,0.1,0,0.1,0c2.6,0.2,5.1,0.6,7.6,1.1c0.6,0.1,1.1,0.2,1.7,0.3c0,0,0,0,0,0c6.8,1.5,13.2,3.9,18.8,7
	c0.8,0.4,1.5,0.9,2.3,1.3c0.1,0.1,0.2,0.1,0.3,0.2c0.3,0.2,0.5,0.3,0.8,0.5c0.4,0,0.8,0,1.2,0c5.7-1.8,8.1-5.9,7-9
	c-2.5-7-16-20.5-27.4-24.6c-1.6,3-6.1,4.5-16.5,1.1c-9.3-3-16.2-9.6-21.3-16.7c-2.8-3.9-5-8-6.7-11.6c-2.3-3.8-4-8.1-4.8-13
	c0,0,0-0.1,0-0.1c0,0-2.9,3.1-4.1,8.8c1,15.4,7.2,27.3,15.6,36.6C401.9,496.2,402.3,496.7,402.7,497.1z"/>
<path class="st12" d="M458.2,524.2c0.1,0,0.2,0,0.2,0c-0.3-0.2-0.5-0.4-0.8-0.5c-0.1-0.1-0.2-0.1-0.3-0.2c-0.8-0.5-1.5-0.9-2.3-1.3
	c-5.6-3.2-12-5.6-18.8-7c0,0,0,0,0,0c-0.6-0.1-1.1-0.2-1.7-0.3c-2.5-0.5-5-0.8-7.6-1.1c0,0-0.1,0-0.1,0c-0.6,0-1.1-0.1-1.7-0.1
	C440.5,521.6,455.2,524.4,458.2,524.2z"/>
<path class="st12" d="M410.4,504.1c4.4,3.7,8.6,6.8,12.5,9.4c0.8,0,1.5,0.1,2.3,0.1C420.2,511,415.2,507.9,410.4,504.1z"/>
<path class="st12" d="M458.5,524.2c0.1,0.1,0.3,0.2,0.4,0.3c0.3-0.1,0.5-0.1,0.8-0.2C459.3,524.2,458.9,524.2,458.5,524.2z"/>
<path class="st12" d="M401.5,495.9c0.4,0.4,0.8,0.8,1.2,1.2C402.3,496.7,401.9,496.2,401.5,495.9c-8.4-9.4-14.6-21.3-15.6-36.7
	C384.2,466.9,385.6,479.6,401.5,495.9z"/>
<path class="st12" d="M458.9,524.5c-0.1-0.1-0.3-0.2-0.4-0.3c-0.1,0-0.2,0-0.2,0c-3.1,0.1-17.7-2.6-33.1-10.6
	c-0.8,0-1.5-0.1-2.3-0.1C439.6,524.6,451.6,526.4,458.9,524.5z"/>
<path class="st13" d="M401.5,471.9c13.5,13.4,33.6,17.6,33.6,17.6c1.4,0.2,2.8,0.6,4.2,1.1c2.2-4.1-1.3-11.3-3.1-13.7
	c-7.8-10-21.3-9.7-34.7-17.4c-3.9-2.2-7.7-5.1-11.5-9.2c0,0,0,0,0,0.1c0.2,0.8,1.6,6.2,4.8,13C396.7,466.6,398.9,469.4,401.5,471.9z
	"/>
<path class="st13" d="M401.5,471.9c-2.5-2.5-4.8-5.3-6.7-8.5c1.7,3.7,3.9,7.7,6.7,11.6c5,7.1,12,13.7,21.3,16.7
	c10.4,3.3,15,1.9,16.5-1.1c-1.5-0.5-2.9-0.9-4.2-1.1C435,489.6,414.9,485.3,401.5,471.9z"/>
<polygon class="st14" points="430.7,586.4 429.6,599.9 452,599.9 454.8,581.2 455.8,574.9 431.7,574.9 "/>
<path class="st14" d="M431.7,574.9h24.1l1.4-9.2c0.8-5.5-3.5-10.4-9.1-10.4h-6.3c-4.8,0-8.7,3.6-9.1,8.4l-0.1,1.5v0.1L431.7,574.9z"
	/>
<polygon class="st14" points="413.3,584.4 413.6,574.9 389.7,574.9 390,584.3 390.5,599.9 412.8,599.9 "/>
<path class="st14" d="M414,564.7c0.2-5.2-4-9.5-9.1-9.5h-6.3c-5.2,0-9.3,4.3-9.1,9.5l0.3,10.2h24L414,564.7z"/>
<polygon class="st15" points="431.7,574.9 413.6,574.9 413.3,584.4 412.8,599.9 429.6,599.9 430.7,586.4 "/>
<path class="st15" d="M431.7,574.9l0.8-9.7v-0.1c0.4-5.3-3.8-9.9-9.1-9.9h-0.3c-4.9,0-9,3.9-9.2,8.8l0,0.6l-0.3,10.2H431.7z"/>
<polygon class="st15" points="454.8,581.2 452,599.9 468.8,599.9 471.3,587.2 473.8,574.9 455.8,574.9 "/>
<path class="st15" d="M473.8,574.9l0.9-4.4l0.9-4.3c0.3-1.6,0.2-3.2-0.2-4.6c0,2.5-0.2,5-0.6,7.5L473.8,574.9z"/>
<path class="st15" d="M475.2,561.3c-1.3-3.5-4.6-6-8.6-6c-2.3,0-4.4,0.8-6,2.2c-1.6,1.4-2.7,3.3-3.1,5.6l-0.4,2.6l-1.4,9.2h18.1
	l0.9-5.7c0.4-2.5,0.6-5,0.6-7.5C475.3,561.5,475.3,561.4,475.2,561.3L475.2,561.3z"/>
<polygon class="st14" points="347.5,574.9 351.3,599.9 373.6,599.9 371.5,574.9 "/>
<path class="st14" d="M371.5,574.9l-0.8-9.7c0,0,0,0,0,0l-0.1-1.5c-0.4-4.7-4.4-8.4-9.1-8.4h-6.3c-5.6,0-9.9,5-9.1,10.5l1.4,9.1
	H371.5z"/>
<polygon class="st15" points="371.5,574.9 373.6,599.9 390.4,599.9 389.6,574.9 "/>
<path class="st15" d="M389.6,574.9l-0.4-10.8c-0.2-4.9-4.2-8.8-9.1-8.8h-0.3c-5.4,0-9.6,4.6-9.1,9.9l0.8,9.7H389.6z"/>
<polygon class="st15" points="373.6,599.9 373.6,599.9 371.5,574.9 371.5,574.9 "/>
<polygon class="st15" points="371.5,574.9 371.5,574.9 370.7,565.2 370.7,565.2 "/>
<path class="st15" d="M347.5,574.9h-18.1v0l-0.9-5.7c-0.4-2.5-0.6-5-0.6-7.5c-0.4,1.4-0.6,3-0.2,4.6l6.8,33.7h16.8L347.5,574.9z"/>
<path class="st15" d="M329.4,574.8L329.4,574.8l18.1,0l-1.4-9.1c0,0,0,0,0,0l-0.4-2.7c-0.7-4.5-4.5-7.8-9.1-7.8
	c-4.2,0-7.6,2.8-8.7,6.4c0,2.5,0.2,5,0.6,7.5L329.4,574.8z"/>
<polygon class="st15" points="347.5,574.9 347.5,574.9 351.3,599.9 351.3,599.9 "/>
<polygon class="st15" points="346.1,565.8 346.1,565.8 347.5,574.9 347.5,574.9 "/>
<path class="st6" d="M652,450.5c0.8,4.9,2.5,9.2,4.8,13C653.6,456.7,652.2,451.3,652,450.5z"/>
<path class="st6" d="M672.3,504.1c-2.8-2.3-5.2-4.6-7.5-6.8C667.2,499.8,669.7,502,672.3,504.1z"/>
<polygon class="st6" points="651.7,574.9 651.6,574.9 652.4,599.9 652.5,599.9 652,584.3 "/>
<path class="st7" d="M598.6,555.2c4.5,0,8.4,3.3,9.1,7.8l0.4,2.7c-0.8-5.5,3.4-10.5,9.1-10.5h6.3c4.8,0,8.7,3.6,9.1,8.4l0.1,1.5
	c-0.5-5.3,3.8-9.9,9.1-9.9h0.3c4.9,0,9,3.9,9.1,8.8l0.4,10.8h0.1l-0.3-10.2c-0.2-5.2,4-9.5,9.1-9.5h6.3c5.2,0,9.3,4.3,9.1,9.5l0-0.6
	c0.2-4.9,4.2-8.8,9.2-8.8h0.3c5.3,0,9.5,4.6,9.1,9.9l0.1-1.5c0.4-4.7,4.4-8.4,9.1-8.4h6.3c5.6,0,9.8,4.9,9.1,10.4l0.4-2.6
	c0.3-2.2,1.5-4.2,3.1-5.6c1.6-1.4,3.7-2.2,6-2.2c4,0,7.3,2.6,8.6,6v0c0,0.1,0.1,0.2,0.1,0.4c0-1.5,0-3-0.1-4.5v0
	c-0.5-6.5-2.1-12.8-4.7-18.3c-0.7-1.4-1.4-2.8-2.2-4.1c-0.5,4.9-5.3,9.5-16.5,8.9c-3.4-0.2-6.7-0.5-9.9-1c0,0,0,0,0,0
	c-2.9,1.4-21.7,9.9-40.4,3.3c-7.7,3.8-21.5,2.3-33.6-3.4l0,0c-4,2.8-25.9,0.8-31.5-10.1c0,0,0,0,0,0c-1.4,2-2.7,4.1-3.8,6.4
	c-2.6,5.5-4.2,11.8-4.6,18.4c-0.1,1.5-0.1,3-0.1,4.5c0,0,0,0,0,0c0,0,0,0,0,0C591,558,594.4,555.2,598.6,555.2z"/>
<path class="st4" d="M607.2,523.9c0.5-0.3,1-0.6,1.5-0.9c0,0,0,0,0,0c-1.3-2.8-1.9-5.4-2.1-7.7l0,0c0,0-13.2,3.6-8.8,15.7
	c0.2,0.5,0.4,1,0.6,1.4C600.9,529,603.8,526.1,607.2,523.9z"/>
<path class="st4" d="M629.9,542.5L629.9,542.5c-8.6-4.1-16.4-10.3-20.6-18.2c-0.2-0.4-0.4-0.9-0.6-1.3c0,0,0,0,0,0
	c-0.5,0.3-1,0.6-1.5,0.9c-3.4,2.2-6.3,5.1-8.8,8.5C604,543.4,625.9,545.3,629.9,542.5z"/>
<path class="st16" d="M611.7,521.3c4.4-2.3,9.3-4.2,14.5-5.5c0,0,0,0,0,0c-3.8-6.4-6.2-13.1-6.2-19.8c0,0-14.2,6.3-13.4,19.3
	L611.7,521.3C611.7,521.3,611.7,521.3,611.7,521.3z"/>
<path class="st16" d="M626.2,515.8C626.2,515.8,626.2,515.8,626.2,515.8c-5.2,1.3-10,3.2-14.5,5.5c0,0,0,0,0,0l18.2,21.2
	c12.1,5.7,25.8,7.2,33.6,3.4C649.5,541.1,634.5,529.4,626.2,515.8z"/>
<path class="st16" d="M610.3,522.1c0.5-0.3,0.9-0.5,1.4-0.8l-5.1-6c0.1,2.4,0.8,4.9,2.1,7.7C609.2,522.7,609.8,522.4,610.3,522.1z"
	/>
<path class="st16" d="M610.3,522.1c-0.6,0.3-1.1,0.6-1.7,1c0.2,0.4,0.4,0.8,0.6,1.3c4.2,7.9,12,14.1,20.6,18.2l-18.2-21.2
	C611.3,521.6,610.8,521.8,610.3,522.1z"/>
<path class="st4" d="M638.2,513.8c0,0,0.1,0,0.1,0c2.1-0.2,4.2-0.3,6.3-0.3h6.7c-9.4-11.7-13.8-23.9-14.5-31.2
	c-0.6-5.4,0.4-9.8,2-13.4c0-0.2,0-0.3,0-0.3S619.9,475,620,496c0.3,7.3,2.9,13.8,6.6,19.7C630.4,514.7,634.2,514.1,638.2,513.8z"/>
<path class="st4" d="M651.4,513.5h-6.7c-2.1,0-4.3,0.1-6.3,0.3c0,0-0.1,0-0.1,0c-4,0.3-7.9,1-11.6,1.9
	c12.2,19.2,36.8,30.2,36.8,30.2c18.8,6.6,37.5-1.9,40.4-3.3c-17.1-2.6-30.4-9.1-40.4-17.2C658.8,521.7,654.8,517.6,651.4,513.5z"/>
<path class="st4" d="M626.6,515.7C626.6,515.7,626.6,515.7,626.6,515.7c-3.7-5.8-6.3-12.4-6.6-19.7c0,6.7,2.4,13.4,6.2,19.8
	C626.4,515.7,626.5,515.7,626.6,515.7z"/>
<path class="st4" d="M626.6,515.7C626.6,515.7,626.6,515.7,626.6,515.7c-0.1,0-0.3,0.1-0.4,0.1c8.2,13.6,23.3,25.3,37.2,30.1
	C663.5,545.9,638.8,534.8,626.6,515.7z"/>
<path class="st16" d="M730.3,534.7c0.5-4.8-3.1-9.9-8.7-10.5c-0.3,0.1-0.5,0.2-0.8,0.2C724.6,527.1,727.8,530.6,730.3,534.7z"/>
<path class="st16" d="M654.7,513.5h6.3c0,0,0,0,0,0h21.5c0.8,0,1.6,0,2.3,0c-3.9-2.6-8.1-5.7-12.5-9.4c0,0-0.1-0.1-0.1-0.1
	c-2.6-2.1-5.1-4.3-7.5-6.8c-0.1-0.1-0.1-0.1-0.2-0.2c-0.4-0.4-0.8-0.8-1.2-1.2c-15.9-16.3-17.3-28.9-15.6-36.7c0-0.3,0-0.6-0.1-1
	c0,0-5.7,3.4-8.9,10.7c0,0,0,0,0,0c0.2,2.2,1.3,13.9,3,21.2C644,499.2,648.7,506.9,654.7,513.5z"/>
<path class="st16" d="M720.9,524.5c-7.2,1.9-19.3,0.1-36-11c-0.8,0-1.6,0-2.3,0H661c0,0,0,0,0,0h-6.3c18.7,20.4,49.6,28.9,49.6,28.9
	s-0.1,0.1-0.4,0.2c0,0,0,0,0,0c3.2,0.5,6.5,0.8,9.9,1c11.2,0.6,16-4,16.5-8.9c0,0,0,0,0,0C727.8,530.6,724.6,527.1,720.9,524.5z"/>
<path class="st16" d="M636.9,482.3c0.7,7.3,5.1,19.6,14.5,31.2h3.3c-6-6.5-10.8-14.3-12.9-23.4c-1.7-7.3-2.8-19-3-21.2
	C637.3,472.4,636.3,476.9,636.9,482.3z"/>
<path class="st16" d="M654.7,513.5h-3.3c3.3,4.1,7.3,8.2,12,12c10,8,23.3,14.6,40.4,17.2c0.3-0.1,0.4-0.2,0.4-0.2
	S673.5,533.9,654.7,513.5z"/>
<path class="st4" d="M664.7,497.1c0.1,0.1,0.1,0.1,0.2,0.2c2.2,2.2,4.7,4.4,7.5,6.8c0,0,0.1,0,0.1,0.1c4.8,3.8,9.8,6.9,14.8,9.5
	c0.6,0,1.1,0.1,1.7,0.1c0,0,0.1,0,0.1,0c2.6,0.2,5.1,0.6,7.6,1.1c0.6,0.1,1.1,0.2,1.7,0.3c0,0,0,0,0,0c6.8,1.5,13.2,3.9,18.8,7
	c0.8,0.4,1.5,0.9,2.3,1.3c0.1,0.1,0.2,0.1,0.3,0.2c0.3,0.2,0.5,0.3,0.8,0.5c0.4,0,0.8,0,1.2,0c5.7-1.8,8.1-5.9,7-9
	c-2.5-7-16-20.5-27.4-24.6c-1.6,3-6.1,4.5-16.5,1.1c-9.3-3-16.2-9.6-21.3-16.7c-2.8-3.9-5-8-6.7-11.6c-2.3-3.8-4-8.1-4.8-13
	c0,0,0-0.1,0-0.1c0,0-2.9,3.1-4.1,8.8c1,15.4,7.2,27.3,15.6,36.6C663.9,496.2,664.3,496.7,664.7,497.1z"/>
<path class="st4" d="M720.2,524.2c0.1,0,0.2,0,0.2,0c-0.3-0.2-0.5-0.4-0.8-0.5c-0.1-0.1-0.2-0.1-0.3-0.2c-0.8-0.5-1.5-0.9-2.3-1.3
	c-5.6-3.2-12-5.6-18.8-7c0,0,0,0,0,0c-0.6-0.1-1.1-0.2-1.7-0.3c-2.5-0.5-5-0.8-7.6-1.1c0,0-0.1,0-0.1,0c-0.6,0-1.1-0.1-1.7-0.1
	C702.5,521.6,717.2,524.4,720.2,524.2z"/>
<path class="st4" d="M672.4,504.1c4.4,3.7,8.6,6.8,12.5,9.4c0.8,0,1.5,0.1,2.3,0.1C682.2,511,677.2,507.9,672.4,504.1z"/>
<path class="st12" d="M720.5,524.2c0.1,0.1,0.3,0.2,0.4,0.3c0.3-0.1,0.5-0.1,0.8-0.2C721.3,524.2,720.9,524.2,720.5,524.2z"/>
<path class="st4" d="M663.5,495.9c0.4,0.4,0.8,0.8,1.2,1.2C664.3,496.7,663.9,496.2,663.5,495.9c-8.4-9.4-14.6-21.3-15.6-36.7
	C646.2,466.9,647.6,479.6,663.5,495.9z"/>
<path class="st4" d="M720.9,524.5c-0.1-0.1-0.3-0.2-0.4-0.3c-0.1,0-0.2,0-0.2,0c-3.1,0.1-17.7-2.6-33.1-10.6c-0.8,0-1.5-0.1-2.3-0.1
	C701.6,524.6,713.6,526.4,720.9,524.5z"/>
<path class="st16" d="M663.5,471.9c13.5,13.4,33.6,17.6,33.6,17.6c1.4,0.2,2.8,0.6,4.2,1.1c2.2-4.1-1.3-11.3-3.1-13.7
	c-7.8-10-21.3-9.7-34.7-17.4c-3.9-2.2-7.7-5.1-11.5-9.2c0,0,0,0,0,0.1c0.2,0.8,1.6,6.2,4.8,13C658.7,466.6,660.9,469.4,663.5,471.9z
	"/>
<path class="st16" d="M663.5,471.9c-2.5-2.5-4.8-5.3-6.7-8.5c1.7,3.7,3.9,7.7,6.7,11.6c5,7.1,12,13.7,21.3,16.7
	c10.4,3.3,15,1.9,16.5-1.1c-1.5-0.5-2.9-0.9-4.2-1.1C697,489.6,676.9,485.3,663.5,471.9z"/>
<polygon class="st17" points="692.7,586.4 691.6,599.9 714,599.9 716.8,581.2 717.8,574.9 693.7,574.9 "/>
<path class="st17" d="M693.7,574.9h24.1l1.4-9.2c0.8-5.5-3.5-10.4-9.1-10.4h-6.3c-4.8,0-8.7,3.6-9.1,8.4l-0.1,1.5v0.1L693.7,574.9z"
	/>
<polygon class="st17" points="675.3,584.4 675.6,574.9 651.7,574.9 652,584.3 652.5,599.9 674.8,599.9 "/>
<path class="st17" d="M676,564.7c0.2-5.2-4-9.5-9.1-9.5h-6.3c-5.2,0-9.3,4.3-9.1,9.5l0.3,10.2h24L676,564.7z"/>
<polygon class="st18" points="693.7,574.9 675.6,574.9 675.3,584.4 674.8,599.9 691.6,599.9 692.7,586.4 "/>
<path class="st18" d="M693.7,574.9l0.8-9.7v-0.1c0.4-5.3-3.8-9.9-9.1-9.9h-0.3c-4.9,0-9,3.9-9.2,8.8l0,0.6l-0.3,10.2H693.7z"/>
<polygon class="st18" points="716.8,581.2 714,599.9 730.8,599.9 733.3,587.2 735.8,574.9 717.8,574.9 "/>
<path class="st15" d="M735.8,574.9l0.9-4.4l0.9-4.3c0.3-1.6,0.2-3.2-0.2-4.6c0,2.5-0.2,5-0.6,7.5L735.8,574.9z"/>
<path class="st18" d="M737.2,561.3c-1.3-3.5-4.6-6-8.6-6c-2.3,0-4.4,0.8-6,2.2c-1.6,1.4-2.7,3.3-3.1,5.6l-0.4,2.6l-1.4,9.2h18.1
	l0.9-5.7c0.4-2.5,0.6-5,0.6-7.5C737.3,561.5,737.3,561.4,737.2,561.3L737.2,561.3z"/>
<polygon class="st17" points="609.5,574.9 613.3,599.9 635.6,599.9 633.5,574.9 "/>
<path class="st17" d="M633.5,574.9l-0.8-9.7c0,0,0,0,0,0l-0.1-1.5c-0.4-4.7-4.4-8.4-9.1-8.4h-6.3c-5.6,0-9.9,5-9.1,10.5l1.4,9.1
	H633.5z"/>
<polygon class="st18" points="633.5,574.9 635.6,599.9 652.4,599.9 651.6,574.9 "/>
<path class="st18" d="M651.6,574.9l-0.4-10.8c-0.2-4.9-4.2-8.8-9.1-8.8h-0.3c-5.4,0-9.6,4.6-9.1,9.9l0.8,9.7H651.6z"/>
<polygon class="st15" points="635.6,599.9 635.6,599.9 633.5,574.9 633.5,574.9 "/>
<polygon class="st15" points="633.5,574.9 633.5,574.9 632.7,565.2 632.7,565.2 "/>
<path class="st18" d="M609.5,574.9h-18.1v0l-0.9-5.7c-0.4-2.5-0.6-5-0.6-7.5c-0.4,1.4-0.6,3-0.2,4.6l6.8,33.7h16.8L609.5,574.9z"/>
<path class="st18" d="M591.4,574.8L591.4,574.8l18.1,0l-1.4-9.1c0,0,0,0,0,0l-0.4-2.7c-0.7-4.5-4.5-7.8-9.1-7.8
	c-4.2,0-7.6,2.8-8.7,6.4c0,2.5,0.2,5,0.6,7.5L591.4,574.8z"/>
<polygon class="st15" points="609.5,574.9 609.5,574.9 613.3,599.9 613.3,599.9 "/>
<polygon class="st15" points="608.1,565.8 608.1,565.8 609.5,574.9 609.5,574.9 "/>
<text transform="matrix(1 0 0 1 46.5938 188.1605)" class="st0 st19 st20">VENTA DE CUPCAKES</text>
<text transform="matrix(1 0 0 1 85.836 62.2007)" class="st0 st19 st21">CUPCAKE GALLERY</text>
<g>
	<g>
		<g>
			<g>
				<path class="st6" d="M60.3,36.8c0.2,1,0.5,1.8,0.9,2.6C60.6,38,60.3,37,60.3,36.8z"/>
				<path class="st6" d="M64.3,47.3c-0.5-0.5-1-0.9-1.5-1.3C63.3,46.5,63.8,46.9,64.3,47.3z"/>
				<path class="st22" d="M51.9,51.3c-0.3-0.6-0.5-1.2-0.5-1.8l0,0c0,0-2.6,0.7-1.7,3.1c0.9,2.4,5.5,2.8,6.3,2.3l0,0
					C54.2,54.1,52.7,52.9,51.9,51.3z"/>
				<path class="st4" d="M54,45.8c0,0-2.8,1.2-2.6,3.8c0,0.5,0.2,1.1,0.5,1.8c0.8,1.6,2.4,2.8,4.1,3.6c2.4,1.1,5.1,1.4,6.6,0.7
					C58.5,54.2,54,49.9,54,45.8z"/>
				<path class="st22" d="M60.2,49.2c-1.9-2.3-2.7-4.7-2.9-6.1c-0.1-1.1,0.1-1.9,0.4-2.6c0,0,0-0.1,0-0.1S54,41.6,54,45.8
					c0,4.1,4.5,8.4,8.6,9.8c3.7,1.3,7.4-0.4,8-0.6c-3.4-0.5-6-1.8-8-3.4C61.6,50.8,60.8,50,60.2,49.2z"/>
				<path class="st4" d="M74,51.3c-0.1,0-0.1,0-0.2,0c-1.4,0.4-3.8,0-7.1-2.2c-0.8-0.5-1.6-1.1-2.5-1.8c0,0,0,0,0,0
					c-0.5-0.4-1-0.8-1.5-1.3c0,0,0,0,0,0c-0.1-0.1-0.2-0.2-0.2-0.2c-3.1-3.2-3.4-5.7-3.1-7.2c0-0.1,0-0.1,0-0.2c0,0-1.1,0.7-1.8,2.1
					c0,0,0,0,0,0c-0.3,0.7-0.5,1.6-0.4,2.6c0.1,1.4,1,3.9,2.9,6.1c0.7,0.8,1.4,1.6,2.4,2.4c2,1.6,4.6,2.9,8,3.4c0,0,0,0,0,0
					c0.6,0.1,1.3,0.2,2,0.2c2.2,0.1,3.1-0.8,3.2-1.8c0,0,0,0,0,0C75.8,52.4,75.1,51.4,74,51.3z"/>
				<path class="st22" d="M62.5,45.7c0.1,0.1,0.2,0.2,0.2,0.2c0,0,0,0,0,0c0.4,0.4,0.9,0.9,1.5,1.3c0,0,0,0,0,0
					c0.9,0.7,1.7,1.3,2.5,1.8c3.3,2.2,5.7,2.5,7.1,2.2c0.1,0,0.1,0,0.2,0c1.1-0.3,1.6-1.2,1.4-1.8c-0.5-1.4-3.1-4-5.4-4.9
					c-0.3,0.6-1.2,0.9-3.3,0.2c-1.8-0.6-3.2-1.9-4.2-3.3c-0.5-0.8-1-1.6-1.3-2.3c-0.4-0.7-0.8-1.6-0.9-2.6c0,0,0,0,0,0
					c0,0-0.6,0.6-0.8,1.7C59.1,40,59.4,42.5,62.5,45.7z"/>
				<path class="st4" d="M62.5,41.7c1,1.4,2.4,2.7,4.2,3.3c2,0.7,2.9,0.4,3.3-0.2c0.4-0.8-0.3-2.2-0.6-2.7c-1.5-2-4.2-1.9-6.8-3.4
					c-0.8-0.4-1.5-1-2.3-1.8c0,0,0,0,0,0c0,0.2,0.3,1.2,0.9,2.6C61.5,40.1,62,40.9,62.5,41.7z"/>
			</g>
			<g>
				<g>
					<g>
						<path class="st4" d="M73.5,59.5l-0.3,1.8L73,62.5l-2,13.4h-3.7l1-12.4l0.2-2.3l0.2-1.9v0l0-0.3c0.1-0.9,0.9-1.6,1.8-1.6h1.2
							C72.8,57.4,73.6,58.4,73.5,59.5z"/>
						<g>
							<path class="st4" d="M65,59.3l-0.1,2l-0.1,1.9l-0.4,12.8h-3.7l-0.4-12.8l-0.1-1.9l-0.1-2c0-1,0.8-1.9,1.8-1.9h1.2
								C64.2,57.4,65,58.3,65,59.3z"/>
						</g>
						<path class="st22" d="M68.6,59.4L68.6,59.4l-0.2,1.9l-0.2,2.3l-1,12.4h-2.8l0.4-12.8l0.1-1.9l0.1-2l0-0.1c0-1,0.8-1.7,1.8-1.7
							h0.1C67.9,57.4,68.7,58.3,68.6,59.4z"/>
						<path class="st22" d="M77.1,59.6l-0.2,0.8l-0.2,0.9l-0.5,2.4l-1.9,9.5c-0.3,1.6-1.7,2.8-3.4,2.8l2-13.4l0.2-1.2l0.3-1.8
							l0.1-0.5c0.1-0.4,0.3-0.8,0.6-1.1c0.3-0.3,0.7-0.4,1.2-0.4c0.8,0,1.4,0.5,1.7,1.2v0c0,0,0,0,0,0.1
							C77.2,59,77.2,59.3,77.1,59.6z"/>
					</g>
					<g>
						<path class="st4" d="M56.4,59.1l1.4,16.9h-3.7l-2.5-16.4c-0.2-1.1,0.7-2.1,1.8-2.1h1.2C55.6,57.4,56.4,58.1,56.4,59.1z"/>
						<path class="st22" d="M60.1,59.2l0.6,16.8h-2.8l-1.4-16.6c-0.1-1.1,0.7-2,1.8-2h0C59.3,57.4,60.1,58.2,60.1,59.2z"/>
						<path class="st22" d="M51.5,59l2.6,17c-1.6,0-3-1.2-3.4-2.8L48,59.6c-0.2-1.1,0.6-2.2,1.8-2.2h0C50.7,57.4,51.4,58.1,51.5,59z
							"/>
					</g>
				</g>
			</g>
		</g>
	</g>
</g>
<path class="st23" d="M49.4,51.9c0,0-2.2,2.1-1.2,6.4"/>
<path class="st23" d="M75,51.8c0,0,4.1,1.1,2.2,7.1"/>
<path class="st0" d="M1686,0H926c-11,0-20,9-20,20v301v17v242c0,11,9,20,20,20h760c11,0,20-9,20-20V338v-17V20C1706,9,1697,0,1686,0
	z"/>
<linearGradient id="SVGID_2_" gradientUnits="userSpaceOnUse" x1="891.9476" y1="-642.72" x2="1691.9476" y2="-42.7201" gradientTransform="matrix(1 0 0 -1 0 602)">
	<stop  offset="0" style="stop-color:#FFFFFF;stop-opacity:0"/>
	<stop  offset="1" style="stop-color:#FFFFFF;stop-opacity:0.2"/>
</linearGradient>
<path class="st24" d="M911.9,644.7h760c11,0,20,9,20,20v560c0,11-9,20-20,20h-760c-11,0-20-9-20-20v-560
	C891.9,653.7,900.9,644.7,911.9,644.7z"/>
<path class="st23" d="M955.3,51.9c0,0-2.2,2.1-1.2,6.4"/>
<g>
	<g>
		<g>
			<g>
				<path class="st7" d="M1179.2,155.7c0,1.3-0.1,2.5-0.3,3.8l-0.4,2.8h-72.2v0l-0.4-2.8c-0.2-1.3-0.3-2.5-0.3-3.8c0,0,0,0,0,0
					c0-0.7,0-1.5,0.1-2.2c0.2-3.3,1-6.4,2.3-9.2c0.5-1.1,1.2-2.2,1.9-3.2c1.2-1.7,2.7-3.2,4.4-4.3c0.2-0.2,0.5-0.3,0.7-0.5
					c0.3-0.2,0.5-0.3,0.8-0.5c0.2-0.1,0.5-0.3,0.7-0.4c2.2-1.2,4.7-2.1,7.2-2.8c0.1,0,0.1,0,0.2-0.1c1.9-0.5,3.8-0.8,5.8-1
					c0,0,0,0,0.1,0c1-0.1,2.1-0.1,3.2-0.1h8.2c0,0,0,0,0,0h10.8c0.4,0,0.8,0,1.2,0c0.4,0,0.8,0,1.1,0c0.3,0,0.6,0,0.9,0.1
					c0,0,0,0,0.1,0c1.3,0.1,2.6,0.3,3.8,0.5c0.3,0,0.6,0.1,0.8,0.2c0,0,0,0,0,0c3.4,0.7,6.6,1.9,9.4,3.5c0.4,0.2,0.8,0.4,1.1,0.7
					c0.1,0,0.1,0.1,0.2,0.1c0.1,0.1,0.3,0.2,0.4,0.3c0.1,0,0.1,0.1,0.2,0.1c1.9,1.3,3.5,3.1,4.7,5.1c0,0,0,0,0,0
					c0.4,0.7,0.8,1.3,1.1,2c1.3,2.7,2.1,5.9,2.3,9.1v0C1179.2,154.2,1179.2,154.9,1179.2,155.7z"/>
				<g>
					<path class="st12" d="M1113.8,132.5c0,0-6.6,1.8-4.4,7.9s14,7.2,16.1,5.7L1113.8,132.5z"/>
					<path class="st13" d="M1120.5,122.8c0,0-10.4,4.6-5.4,14.2c5,9.5,20.5,14.1,27.1,10.8C1142.2,147.8,1121.2,138.4,1120.5,122.8z
						"/>
					<path class="st12" d="M1129.9,109.1c0,0-9.4,3.2-9.4,13.7c0,10.5,11.5,21.4,21.7,25s20.4-1.7,20.4-1.7s-26.9-7.4-31.2-26.2
						C1130.5,115.9,1129.9,109.1,1129.9,109.1z"/>
					<path class="st13" d="M1175.6,142.2C1175.6,142.2,1175.6,142.2,1175.6,142.2c-0.3,2.5-2.6,4.8-8.3,4.5c-1.7-0.1-3.4-0.3-5-0.5
						c-8.6-1.3-15.2-4.6-20.2-8.6c-2.3-1.9-4.3-3.9-6-6c-4.7-5.8-6.9-12-7.3-15.6c-0.3-2.7,0.2-4.9,1-6.7c1.6-3.6,4.5-5.3,4.5-5.3
						c0,0.2,0,0.3,0,0.5c0.5,7.7,3.6,13.7,7.8,18.3c0.2,0.2,0.4,0.4,0.6,0.7c0,0,0.1,0.1,0.1,0.1c1.2,1.2,2.4,2.3,3.7,3.4
						c0,0,0,0,0,0c2.4,1.9,4.9,3.5,7.4,4.7c7.7,4,15,5.4,16.5,5.3c0,0,0.1,0,0.1,0c0.2,0,0.4,0,0.6,0
						C1174.1,137.3,1175.9,139.8,1175.6,142.2z"/>
					<path class="st12" d="M1171.3,137c-0.1,0-0.3,0.1-0.4,0.1c-3.6,0.9-9.6,0.1-18-5.5c-2-1.3-4-2.8-6.2-4.7c0,0,0,0,0,0
						c-1.4-1.2-2.6-2.3-3.7-3.4c0,0-0.1-0.1-0.1-0.1c-0.2-0.2-0.4-0.4-0.6-0.6c-7.9-8.2-8.6-14.5-7.8-18.4c0.6-2.9,2.1-4.4,2.1-4.4
						c0,0,0,0,0,0c0.4,2.4,1.2,4.6,2.4,6.5c0.9,1.6,2.1,3,3.3,4.2c6.7,6.7,16.8,8.8,16.8,8.8c0.7,0.1,1.4,0.3,2.1,0.5
						c5.7,2.1,12.5,8.8,13.7,12.3C1175.4,134.1,1174.2,136.1,1171.3,137z"/>
					<path class="st13" d="M1161.1,120.2c-0.8,1.5-3.1,2.2-8.3,0.6c-4.6-1.5-8.1-4.8-10.6-8.3c-1.4-2-2.5-4-3.3-5.8
						c-1.6-3.4-2.3-6.1-2.4-6.5c0,0,0,0,0,0c1.9,2,3.8,3.5,5.7,4.6c6.7,3.8,13.5,3.7,17.3,8.7
						C1160.5,114.5,1162.2,118.1,1161.1,120.2z"/>
				</g>
				<g>
					<g>
						<g>
							<path class="st14" d="M1170.1,157.7l-0.7,4.6l-0.5,3.2l-5.2,34h-9.5l2.7-31.4l0.5-5.8l0.4-4.9v0l0.1-0.7
								c0.2-2.4,2.2-4.2,4.6-4.2h3.2C1168.3,152.5,1170.5,154.9,1170.1,157.7z"/>
							<g>
								<path class="st14" d="M1148.5,157.2l-0.2,5.1l-0.2,4.8l-1.1,32.4h-9.5l-1.1-32.5l-0.2-4.7l-0.2-5.1c-0.1-2.6,2-4.7,4.6-4.7
									h3.2C1146.5,152.5,1148.6,154.6,1148.5,157.2z"/>
							</g>
							<path class="st15" d="M1157.8,157.4L1157.8,157.4l-0.4,4.9l-0.5,5.8l-2.7,31.4h-7.1l1.1-32.4l0.2-4.8l0.2-5.1l0-0.3
								c0.1-2.5,2.1-4.4,4.6-4.4h0.1C1155.9,152.5,1158,154.8,1157.8,157.4z"/>
							<path class="st15" d="M1179.3,158l-0.4,2.1l-0.4,2.2l-1.2,6.2l-4.9,24c-0.8,4.1-4.4,7-8.6,7l5.2-34l0.5-3.2l0.7-4.6l0.2-1.3
								c0.2-1.1,0.7-2.1,1.5-2.8c0.8-0.7,1.9-1.1,3-1.1c2,0,3.7,1.3,4.3,3v0c0,0.1,0,0.1,0.1,0.2
								C1179.4,156.4,1179.5,157.2,1179.3,158z"/>
						</g>
						<g>
							<path class="st14" d="M1126.8,156.7l3.6,42.8h-9.5l-6.3-41.8c-0.4-2.8,1.7-5.3,4.5-5.3h3.2
								C1124.6,152.5,1126.6,154.3,1126.8,156.7z"/>
							<path class="st15" d="M1136.1,156.9l1.4,42.6h-7.1l-3.6-42.1c-0.2-2.7,1.9-5,4.6-5h0.1C1134,152.5,1136,154.4,1136.1,156.9z"
								/>
							<path class="st15" d="M1114.3,156.4l6.6,43.1c-4.2,0-7.7-2.9-8.6-7l-7-34.5c-0.6-2.8,1.6-5.5,4.5-5.5l0,0
								C1112,152.5,1114,154.1,1114.3,156.4z"/>
						</g>
					</g>
				</g>
			</g>
		</g>
	</g>
	<g>
		<g>
			<g>
				<path class="st7" d="M1066.8,155.7c0,1.3-0.1,2.5-0.3,3.8l-0.4,2.8h-72.2v0l-0.4-2.8c-0.2-1.3-0.3-2.5-0.3-3.8c0,0,0,0,0,0
					c0-0.7,0-1.5,0.1-2.2c0.2-3.3,1-6.4,2.3-9.2c0.5-1.1,1.2-2.2,1.9-3.2c1.2-1.7,2.7-3.2,4.4-4.3c0.2-0.2,0.5-0.3,0.7-0.5
					c0.3-0.2,0.5-0.3,0.8-0.5c0.2-0.1,0.5-0.3,0.7-0.4c2.2-1.2,4.7-2.1,7.2-2.8c0.1,0,0.1,0,0.2-0.1c1.9-0.5,3.8-0.8,5.8-1
					c0,0,0,0,0.1,0c1-0.1,2.1-0.1,3.2-0.1h8.2c0,0,0,0,0,0h10.8c0.4,0,0.8,0,1.2,0c0.4,0,0.8,0,1.1,0c0.3,0,0.6,0,0.9,0.1
					c0,0,0,0,0.1,0c1.3,0.1,2.6,0.3,3.8,0.5c0.3,0,0.6,0.1,0.8,0.2c0,0,0,0,0,0c3.4,0.7,6.6,1.9,9.4,3.5c0.4,0.2,0.8,0.4,1.1,0.7
					c0.1,0,0.1,0.1,0.2,0.1c0.1,0.1,0.3,0.2,0.4,0.3c0.1,0,0.1,0.1,0.2,0.1c1.9,1.3,3.5,3.1,4.7,5.1c0,0,0,0,0,0
					c0.4,0.7,0.8,1.3,1.1,2c1.3,2.7,2.1,5.9,2.3,9.1v0C1066.8,154.2,1066.8,154.9,1066.8,155.7z"/>
				<g>
					<path class="st8" d="M1001.4,132.5c0,0-6.6,1.8-4.4,7.9s14,7.2,16.1,5.7L1001.4,132.5z"/>
					<path class="st9" d="M1008.2,122.9c0,0-10.4,4.6-5.4,14.2c5,9.5,20.5,14.1,27.1,10.8C1029.9,147.8,1008.9,138.4,1008.2,122.9z"
						/>
					<path class="st8" d="M1017.6,109.2c0,0-9.4,3.2-9.4,13.7s11.5,21.4,21.7,25c10.2,3.6,20.4-1.7,20.4-1.7s-26.9-7.4-31.2-26.2
						C1018.1,115.9,1017.6,109.2,1017.6,109.2z"/>
					<path class="st9" d="M1063.3,142.2C1063.3,142.2,1063.3,142.2,1063.3,142.2c-0.3,2.5-2.6,4.8-8.3,4.5c-1.7-0.1-3.4-0.3-5-0.5
						c-8.6-1.3-15.2-4.6-20.2-8.6c-2.3-1.9-4.3-3.9-6-6c-4.7-5.8-6.9-12-7.3-15.6c-0.3-2.7,0.2-4.9,1-6.7c1.6-3.6,4.5-5.3,4.5-5.3
						c0,0.2,0,0.3,0,0.5c0.5,7.7,3.6,13.7,7.8,18.3c0.2,0.2,0.4,0.4,0.6,0.7c0,0,0.1,0.1,0.1,0.1c1.2,1.2,2.4,2.3,3.7,3.4
						c0,0,0,0,0,0c2.4,1.9,4.9,3.5,7.4,4.7c7.7,4,15,5.4,16.5,5.3c0,0,0.1,0,0.1,0c0.2,0,0.4,0,0.6,0
						C1061.8,137.3,1063.6,139.8,1063.3,142.2z"/>
					<path class="st8" d="M1059,137c-0.1,0-0.3,0.1-0.4,0.1c-3.6,0.9-9.6,0.1-18-5.5c-2-1.3-4-2.8-6.2-4.7c0,0,0,0,0,0
						c-1.4-1.2-2.6-2.3-3.7-3.4c0,0-0.1-0.1-0.1-0.1c-0.2-0.2-0.4-0.4-0.6-0.6c-7.9-8.2-8.6-14.5-7.8-18.4c0.6-2.9,2.1-4.4,2.1-4.4
						c0,0,0,0,0,0c0.4,2.4,1.2,4.6,2.4,6.5c0.9,1.6,2.1,3,3.3,4.2c6.7,6.7,16.8,8.8,16.8,8.8c0.7,0.1,1.4,0.3,2.1,0.5
						c5.7,2.1,12.5,8.8,13.7,12.3C1063,134.1,1061.8,136.1,1059,137z"/>
					<path class="st9" d="M1048.8,120.2c-0.8,1.5-3.1,2.2-8.3,0.6c-4.6-1.5-8.1-4.8-10.6-8.3c-1.4-2-2.5-4-3.3-5.8
						c-1.6-3.4-2.3-6.1-2.4-6.5c0,0,0,0,0,0c1.9,2,3.8,3.5,5.7,4.6c6.7,3.8,13.5,3.7,17.3,8.7
						C1048.1,114.5,1049.9,118.1,1048.8,120.2z"/>
				</g>
				<g>
					<g>
						<g>
							<path class="st10" d="M1057.7,157.7l-0.7,4.6l-0.5,3.2l-5.2,34h-9.5l2.7-31.4l0.5-5.8l0.4-4.9v0l0.1-0.7
								c0.2-2.4,2.2-4.2,4.6-4.2h3.2C1056,152.5,1058.1,155,1057.7,157.7z"/>
							<g>
								<path class="st10" d="M1036.1,157.2l-0.2,5.1l-0.2,4.8l-1.1,32.4h-9.5l-1.1-32.5l-0.2-4.7l-0.2-5.1c-0.1-2.6,2-4.7,4.6-4.7
									h3.2C1034.2,152.5,1036.2,154.6,1036.1,157.2z"/>
							</g>
							<path class="st11" d="M1045.4,157.4L1045.4,157.4l-0.4,4.9l-0.5,5.8l-2.7,31.4h-7.1l1.1-32.4l0.2-4.8l0.2-5.1l0-0.3
								c0.1-2.5,2.1-4.4,4.6-4.4h0.1C1043.5,152.5,1045.6,154.8,1045.4,157.4z"/>
							<path class="st11" d="M1066.9,158l-0.4,2.1l-0.4,2.2l-1.2,6.2l-4.9,24c-0.8,4.1-4.4,7-8.6,7l5.2-34l0.5-3.2l0.7-4.6l0.2-1.3
								c0.2-1.1,0.7-2.1,1.5-2.8c0.8-0.7,1.9-1.1,3-1.1c2,0,3.7,1.3,4.3,3v0c0,0.1,0,0.1,0.1,0.2
								C1067.1,156.4,1067.1,157.2,1066.9,158z"/>
						</g>
						<g>
							<path class="st10" d="M1014.4,156.7l3.6,42.8h-9.5l-6.3-41.8c-0.4-2.8,1.7-5.3,4.5-5.3h3.2
								C1012.2,152.5,1014.2,154.3,1014.4,156.7z"/>
							<path class="st11" d="M1023.8,156.9l1.4,42.6h-7.1l-3.6-42.1c-0.2-2.7,1.9-5,4.6-5h0.1
								C1021.7,152.5,1023.7,154.5,1023.8,156.9z"/>
							<path class="st11" d="M1002,156.4l6.6,43.1c-4.2,0-7.7-2.9-8.6-7l-7-34.5c-0.6-2.8,1.6-5.5,4.5-5.5h0
								C999.7,152.5,1001.6,154.1,1002,156.4z"/>
						</g>
					</g>
				</g>
			</g>
		</g>
	</g>
	<g>
		<g>
			<g>
				<path class="st7" d="M1287.1,156.2c0,1.3-0.1,2.5-0.3,3.8l-0.4,2.8h-72.2v0l-0.4-2.8c-0.2-1.3-0.3-2.5-0.3-3.8c0,0,0,0,0,0
					c0-0.7,0-1.5,0.1-2.2c0.2-3.3,1-6.4,2.3-9.2c0.5-1.1,1.2-2.2,1.9-3.2c1.2-1.7,2.7-3.2,4.4-4.3c0.2-0.2,0.5-0.3,0.7-0.5
					c0.3-0.2,0.5-0.3,0.8-0.5c0.2-0.1,0.5-0.3,0.7-0.4c2.2-1.2,4.7-2.1,7.2-2.8c0.1,0,0.1,0,0.2-0.1c1.9-0.5,3.8-0.8,5.8-1
					c0,0,0,0,0.1,0c1-0.1,2.1-0.1,3.2-0.1h8.2c0,0,0,0,0,0h10.8c0.4,0,0.8,0,1.2,0c0.4,0,0.8,0,1.1,0c0.3,0,0.6,0,0.9,0.1
					c0,0,0,0,0.1,0c1.3,0.1,2.6,0.3,3.8,0.5c0.3,0,0.6,0.1,0.8,0.2c0,0,0,0,0,0c3.4,0.7,6.6,1.9,9.4,3.5c0.4,0.2,0.8,0.4,1.1,0.7
					c0.1,0,0.1,0.1,0.2,0.1c0.1,0.1,0.3,0.2,0.4,0.3c0.1,0,0.1,0.1,0.2,0.1c1.9,1.3,3.5,3.1,4.7,5.1c0,0,0,0,0,0
					c0.4,0.7,0.8,1.3,1.1,2c1.3,2.7,2.1,5.9,2.3,9.1v0C1287.1,154.7,1287.1,155.4,1287.1,156.2z"/>
				<g>
					<path class="st4" d="M1221.7,133c0,0-6.6,1.8-4.4,7.9c2.2,6.1,14,7.2,16.1,5.7L1221.7,133z"/>
					<path class="st16" d="M1228.4,123.4c0,0-10.4,4.6-5.4,14.2c5,9.5,20.5,14.1,27.1,10.8C1250.2,148.3,1229.2,138.9,1228.4,123.4z
						"/>
					<path class="st4" d="M1237.8,109.7c0,0-9.4,3.2-9.4,13.7c0,10.5,11.5,21.4,21.7,25c10.2,3.6,20.4-1.7,20.4-1.7
						s-26.9-7.4-31.2-26.2C1238.4,116.4,1237.8,109.7,1237.8,109.7z"/>
					<path class="st16" d="M1283.6,142.7C1283.6,142.7,1283.6,142.7,1283.6,142.7c-0.3,2.5-2.6,4.8-8.3,4.5c-1.7-0.1-3.4-0.3-5-0.5
						c-8.6-1.3-15.2-4.6-20.2-8.6c-2.3-1.9-4.3-3.9-6-6c-4.7-5.8-6.9-12-7.3-15.6c-0.3-2.7,0.2-4.9,1-6.7c1.6-3.6,4.5-5.3,4.5-5.3
						c0,0.2,0,0.3,0,0.5c0.5,7.7,3.6,13.7,7.8,18.3c0.2,0.2,0.4,0.4,0.6,0.7c0,0,0.1,0.1,0.1,0.1c1.2,1.2,2.4,2.3,3.7,3.4
						c0,0,0,0,0,0c2.4,1.9,4.9,3.5,7.4,4.7c7.7,4,15,5.4,16.5,5.3c0,0,0.1,0,0.1,0c0.2,0,0.4,0,0.6,0
						C1282,137.8,1283.8,140.3,1283.6,142.7z"/>
					<path class="st4" d="M1279.3,137.5c-0.1,0-0.3,0.1-0.4,0.1c-3.6,0.9-9.6,0.1-18-5.5c-2-1.3-4-2.8-6.2-4.7c0,0,0,0,0,0
						c-1.4-1.2-2.6-2.3-3.7-3.4c0,0-0.1-0.1-0.1-0.1c-0.2-0.2-0.4-0.4-0.6-0.6c-7.9-8.2-8.6-14.5-7.8-18.4c0.6-2.9,2.1-4.4,2.1-4.4
						c0,0,0,0,0,0c0.4,2.4,1.2,4.6,2.4,6.5c0.9,1.6,2.1,3,3.3,4.2c6.7,6.7,16.8,8.8,16.8,8.8c0.7,0.1,1.4,0.3,2.1,0.5
						c5.7,2.1,12.5,8.8,13.7,12.3C1283.3,134.6,1282.1,136.6,1279.3,137.5z"/>
					<path class="st16" d="M1269.1,120.7c-0.8,1.5-3.1,2.2-8.3,0.6c-4.6-1.5-8.1-4.8-10.6-8.3c-1.4-2-2.5-4-3.3-5.8
						c-1.6-3.4-2.3-6.1-2.4-6.5c0,0,0,0,0,0c1.9,2,3.8,3.5,5.7,4.6c6.7,3.8,13.5,3.7,17.3,8.7C1268.4,115,1270.1,118.6,1269.1,120.7
						z"/>
				</g>
				<g>
					<g>
						<g>
							<path class="st17" d="M1278,158.2l-0.7,4.6l-0.5,3.2l-5.2,34h-9.5l2.7-31.4l0.5-5.8l0.4-4.9v0l0.1-0.7
								c0.2-2.4,2.2-4.2,4.6-4.2h3.2C1276.3,153,1278.4,155.5,1278,158.2z"/>
							<g>
								<path class="st17" d="M1256.4,157.7l-0.2,5.1l-0.2,4.8L1255,200h-9.5l-1.1-32.5l-0.2-4.7l-0.2-5.1c-0.1-2.6,2-4.7,4.6-4.7
									h3.2C1254.4,153,1256.5,155.1,1256.4,157.7z"/>
							</g>
							<path class="st18" d="M1265.7,157.9L1265.7,157.9l-0.4,4.9l-0.5,5.8l-2.7,31.4h-7.1l1.1-32.4l0.2-4.8l0.2-5.1l0-0.3
								c0.1-2.5,2.1-4.4,4.6-4.4h0.1C1263.8,153,1265.9,155.3,1265.7,157.9z"/>
							<path class="st18" d="M1287.2,158.5l-0.4,2.1l-0.4,2.2l-1.2,6.2l-4.9,24c-0.8,4.1-4.4,7-8.6,7l5.2-34l0.5-3.2l0.7-4.6
								l0.2-1.3c0.2-1.1,0.7-2.1,1.5-2.8c0.8-0.7,1.9-1.1,3-1.1c2,0,3.7,1.3,4.3,3v0c0,0.1,0,0.1,0.1,0.2
								C1287.3,156.9,1287.4,157.7,1287.2,158.5z"/>
						</g>
						<g>
							<path class="st17" d="M1234.7,157.2l3.6,42.8h-9.5l-6.3-41.8c-0.4-2.8,1.7-5.3,4.5-5.3h3.2
								C1232.5,153,1234.5,154.8,1234.7,157.2z"/>
							<path class="st18" d="M1244,157.4l1.4,42.6h-7.1l-3.6-42.1c-0.2-2.7,1.9-5,4.6-5h0.1C1241.9,153,1244,155,1244,157.4z"/>
							<path class="st18" d="M1222.3,156.9l6.6,43.1c-4.2,0-7.7-2.9-8.6-7l-7-34.5c-0.6-2.8,1.6-5.5,4.5-5.5l0,0
								C1220,153,1221.9,154.6,1222.3,156.9z"/>
						</g>
					</g>
				</g>
			</g>
		</g>
	</g>
	<g>
		<g>
			<g>
				<path class="st7" d="M1509.2,155.7c0,1.3-0.1,2.5-0.3,3.8l-0.4,2.8h-72.2v0l-0.4-2.8c-0.2-1.3-0.3-2.5-0.3-3.8c0,0,0,0,0,0
					c0-0.7,0-1.5,0.1-2.2c0.2-3.3,1-6.4,2.3-9.2c0.5-1.1,1.2-2.2,1.9-3.2c1.2-1.7,2.7-3.2,4.4-4.3c0.2-0.2,0.5-0.3,0.7-0.5
					c0.3-0.2,0.5-0.3,0.8-0.5c0.2-0.1,0.5-0.3,0.7-0.4c2.2-1.2,4.7-2.1,7.2-2.8c0.1,0,0.1,0,0.2-0.1c1.9-0.5,3.8-0.8,5.8-1
					c0,0,0,0,0.1,0c1-0.1,2.1-0.1,3.2-0.1h8.2c0,0,0,0,0,0h10.8c0.4,0,0.8,0,1.2,0c0.4,0,0.8,0,1.1,0c0.3,0,0.6,0,0.9,0.1
					c0,0,0,0,0.1,0c1.3,0.1,2.6,0.3,3.8,0.5c0.3,0,0.6,0.1,0.8,0.2c0,0,0,0,0,0c3.4,0.7,6.6,1.9,9.4,3.5c0.4,0.2,0.8,0.4,1.1,0.7
					c0.1,0,0.1,0.1,0.2,0.1c0.1,0.1,0.3,0.2,0.4,0.3c0.1,0,0.1,0.1,0.2,0.1c1.9,1.3,3.5,3.1,4.7,5.1c0,0,0,0,0,0
					c0.4,0.7,0.8,1.3,1.1,2c1.3,2.7,2.1,5.9,2.3,9.1v0C1509.2,154.2,1509.2,154.9,1509.2,155.7z"/>
				<g>
					<path class="st12" d="M1443.8,132.5c0,0-6.6,1.8-4.4,7.9s14,7.2,16.1,5.7L1443.8,132.5z"/>
					<path class="st13" d="M1450.5,122.8c0,0-10.4,4.6-5.4,14.2c5,9.5,20.5,14.1,27.1,10.8C1472.2,147.8,1451.2,138.4,1450.5,122.8z
						"/>
					<path class="st12" d="M1459.9,109.1c0,0-9.4,3.2-9.4,13.7c0,10.5,11.5,21.4,21.7,25s20.4-1.7,20.4-1.7s-26.9-7.4-31.2-26.2
						C1460.5,115.9,1459.9,109.1,1459.9,109.1z"/>
					<path class="st13" d="M1505.6,142.2C1505.6,142.2,1505.6,142.2,1505.6,142.2c-0.3,2.5-2.6,4.8-8.3,4.5c-1.7-0.1-3.4-0.3-5-0.5
						c-8.6-1.3-15.2-4.6-20.2-8.6c-2.3-1.9-4.3-3.9-6-6c-4.7-5.8-6.9-12-7.3-15.6c-0.3-2.7,0.2-4.9,1-6.7c1.6-3.6,4.5-5.3,4.5-5.3
						c0,0.2,0,0.3,0,0.5c0.5,7.7,3.6,13.7,7.8,18.3c0.2,0.2,0.4,0.4,0.6,0.7c0,0,0.1,0.1,0.1,0.1c1.2,1.2,2.4,2.3,3.7,3.4
						c0,0,0,0,0,0c2.4,1.9,4.9,3.5,7.4,4.7c7.7,4,15,5.4,16.5,5.3c0,0,0.1,0,0.1,0c0.2,0,0.4,0,0.6,0
						C1504.1,137.3,1505.9,139.8,1505.6,142.2z"/>
					<path class="st12" d="M1501.3,137c-0.1,0-0.3,0.1-0.4,0.1c-3.6,0.9-9.6,0.1-18-5.5c-2-1.3-4-2.8-6.2-4.7c0,0,0,0,0,0
						c-1.4-1.2-2.6-2.3-3.7-3.4c0,0-0.1-0.1-0.1-0.1c-0.2-0.2-0.4-0.4-0.6-0.6c-7.9-8.2-8.6-14.5-7.8-18.4c0.6-2.9,2.1-4.4,2.1-4.4
						c0,0,0,0,0,0c0.4,2.4,1.2,4.6,2.4,6.5c0.9,1.6,2.1,3,3.3,4.2c6.7,6.7,16.8,8.8,16.8,8.8c0.7,0.1,1.4,0.3,2.1,0.5
						c5.7,2.1,12.5,8.8,13.7,12.3C1505.4,134.1,1504.2,136.1,1501.3,137z"/>
					<path class="st13" d="M1491.1,120.2c-0.8,1.5-3.1,2.2-8.3,0.6c-4.6-1.5-8.1-4.8-10.6-8.3c-1.4-2-2.5-4-3.3-5.8
						c-1.6-3.4-2.3-6.1-2.4-6.5c0,0,0,0,0,0c1.9,2,3.8,3.5,5.7,4.6c6.7,3.8,13.5,3.7,17.3,8.7
						C1490.5,114.5,1492.2,118.1,1491.1,120.2z"/>
				</g>
				<g>
					<g>
						<g>
							<path class="st14" d="M1500.1,157.7l-0.7,4.6l-0.5,3.2l-5.2,34h-9.5l2.7-31.4l0.5-5.8l0.4-4.9v0l0.1-0.7
								c0.2-2.4,2.2-4.2,4.6-4.2h3.2C1498.3,152.5,1500.5,154.9,1500.1,157.7z"/>
							<g>
								<path class="st14" d="M1478.5,157.2l-0.2,5.1l-0.2,4.8l-1.1,32.4h-9.5l-1.1-32.5l-0.2-4.7l-0.2-5.1c-0.1-2.6,2-4.7,4.6-4.7
									h3.2C1476.5,152.5,1478.6,154.6,1478.5,157.2z"/>
							</g>
							<path class="st15" d="M1487.8,157.4L1487.8,157.4l-0.4,4.9l-0.5,5.8l-2.7,31.4h-7.1l1.1-32.4l0.2-4.8l0.2-5.1l0-0.3
								c0.1-2.5,2.1-4.4,4.6-4.4h0.1C1485.9,152.5,1488,154.8,1487.8,157.4z"/>
							<path class="st15" d="M1509.3,158l-0.4,2.1l-0.4,2.2l-1.2,6.2l-4.9,24c-0.8,4.1-4.4,7-8.6,7l5.2-34l0.5-3.2l0.7-4.6l0.2-1.3
								c0.2-1.1,0.7-2.1,1.5-2.8c0.8-0.7,1.9-1.1,3-1.1c2,0,3.7,1.3,4.3,3v0c0,0.1,0,0.1,0.1,0.2
								C1509.4,156.4,1509.5,157.2,1509.3,158z"/>
						</g>
						<g>
							<path class="st14" d="M1456.8,156.7l3.6,42.8h-9.5l-6.3-41.8c-0.4-2.8,1.7-5.3,4.5-5.3h3.2
								C1454.6,152.5,1456.6,154.3,1456.8,156.7z"/>
							<path class="st15" d="M1466.1,156.9l1.4,42.6h-7.1l-3.6-42.1c-0.2-2.7,1.9-5,4.6-5h0.1C1464,152.5,1466,154.4,1466.1,156.9z"
								/>
							<path class="st15" d="M1444.3,156.4l6.6,43.1c-4.2,0-7.7-2.9-8.6-7l-7-34.5c-0.6-2.8,1.6-5.5,4.5-5.5l0,0
								C1442,152.5,1444,154.1,1444.3,156.4z"/>
						</g>
					</g>
				</g>
			</g>
		</g>
	</g>
	<g>
		<g>
			<g>
				<path class="st7" d="M1396.8,155.7c0,1.3-0.1,2.5-0.3,3.8l-0.4,2.8h-72.2v0l-0.4-2.8c-0.2-1.3-0.3-2.5-0.3-3.8c0,0,0,0,0,0
					c0-0.7,0-1.5,0.1-2.2c0.2-3.3,1-6.4,2.3-9.2c0.5-1.1,1.2-2.2,1.9-3.2c1.2-1.7,2.7-3.2,4.4-4.3c0.2-0.2,0.5-0.3,0.7-0.5
					c0.3-0.2,0.5-0.3,0.8-0.5c0.2-0.1,0.5-0.3,0.7-0.4c2.2-1.2,4.7-2.1,7.2-2.8c0.1,0,0.1,0,0.2-0.1c1.9-0.5,3.8-0.8,5.8-1
					c0,0,0,0,0.1,0c1-0.1,2.1-0.1,3.2-0.1h8.2c0,0,0,0,0,0h10.8c0.4,0,0.8,0,1.2,0c0.4,0,0.8,0,1.1,0c0.3,0,0.6,0,0.9,0.1
					c0,0,0,0,0.1,0c1.3,0.1,2.6,0.3,3.8,0.5c0.3,0,0.6,0.1,0.8,0.2c0,0,0,0,0,0c3.4,0.7,6.6,1.9,9.4,3.5c0.4,0.2,0.8,0.4,1.1,0.7
					c0.1,0,0.1,0.1,0.2,0.1c0.1,0.1,0.3,0.2,0.4,0.3c0.1,0,0.1,0.1,0.2,0.1c1.9,1.3,3.5,3.1,4.7,5.1c0,0,0,0,0,0
					c0.4,0.7,0.8,1.3,1.1,2c1.3,2.7,2.1,5.9,2.3,9.1v0C1396.8,154.2,1396.8,154.9,1396.8,155.7z"/>
				<g>
					<path class="st8" d="M1331.4,132.5c0,0-6.6,1.8-4.4,7.9c2.2,6.1,14,7.2,16.1,5.7L1331.4,132.5z"/>
					<path class="st9" d="M1338.2,122.9c0,0-10.4,4.6-5.4,14.2c5,9.5,20.5,14.1,27.1,10.8C1359.9,147.8,1338.9,138.4,1338.2,122.9z"
						/>
					<path class="st8" d="M1347.6,109.2c0,0-9.4,3.2-9.4,13.7c0,10.5,11.5,21.4,21.7,25c10.2,3.6,20.4-1.7,20.4-1.7
						s-26.9-7.4-31.2-26.2C1348.1,115.9,1347.6,109.2,1347.6,109.2z"/>
					<path class="st9" d="M1393.3,142.2C1393.3,142.2,1393.3,142.2,1393.3,142.2c-0.3,2.5-2.6,4.8-8.3,4.5c-1.7-0.1-3.4-0.3-5-0.5
						c-8.6-1.3-15.2-4.6-20.2-8.6c-2.3-1.9-4.3-3.9-6-6c-4.7-5.8-6.9-12-7.3-15.6c-0.3-2.7,0.2-4.9,1-6.7c1.6-3.6,4.5-5.3,4.5-5.3
						c0,0.2,0,0.3,0,0.5c0.5,7.7,3.6,13.7,7.8,18.3c0.2,0.2,0.4,0.4,0.6,0.7c0,0,0.1,0.1,0.1,0.1c1.2,1.2,2.4,2.3,3.7,3.4
						c0,0,0,0,0,0c2.4,1.9,4.9,3.5,7.4,4.7c7.7,4,15,5.4,16.5,5.3c0,0,0.1,0,0.1,0c0.2,0,0.4,0,0.6,0
						C1391.8,137.3,1393.6,139.8,1393.3,142.2z"/>
					<path class="st8" d="M1389,137c-0.1,0-0.3,0.1-0.4,0.1c-3.6,0.9-9.6,0.1-18-5.5c-2-1.3-4-2.8-6.2-4.7c0,0,0,0,0,0
						c-1.4-1.2-2.6-2.3-3.7-3.4c0,0-0.1-0.1-0.1-0.1c-0.2-0.2-0.4-0.4-0.6-0.6c-7.9-8.2-8.6-14.5-7.8-18.4c0.6-2.9,2.1-4.4,2.1-4.4
						c0,0,0,0,0,0c0.4,2.4,1.2,4.6,2.4,6.5c0.9,1.6,2.1,3,3.3,4.2c6.7,6.7,16.8,8.8,16.8,8.8c0.7,0.1,1.4,0.3,2.1,0.5
						c5.7,2.1,12.5,8.8,13.7,12.3C1393,134.1,1391.8,136.1,1389,137z"/>
					<path class="st9" d="M1378.8,120.2c-0.8,1.5-3.1,2.2-8.3,0.6c-4.6-1.5-8.1-4.8-10.6-8.3c-1.4-2-2.5-4-3.3-5.8
						c-1.6-3.4-2.3-6.1-2.4-6.5c0,0,0,0,0,0c1.9,2,3.8,3.5,5.7,4.6c6.7,3.8,13.5,3.7,17.3,8.7
						C1378.1,114.5,1379.9,118.1,1378.8,120.2z"/>
				</g>
				<g>
					<g>
						<g>
							<path class="st10" d="M1387.7,157.7l-0.7,4.6l-0.5,3.2l-5.2,34h-9.5l2.7-31.4l0.5-5.8l0.4-4.9v0l0.1-0.7
								c0.2-2.4,2.2-4.2,4.6-4.2h3.2C1386,152.5,1388.1,155,1387.7,157.7z"/>
							<g>
								<path class="st10" d="M1366.1,157.2l-0.2,5.1l-0.2,4.8l-1.1,32.4h-9.5l-1.1-32.5l-0.2-4.7l-0.2-5.1c-0.1-2.6,2-4.7,4.6-4.7
									h3.2C1364.2,152.5,1366.2,154.6,1366.1,157.2z"/>
							</g>
							<path class="st11" d="M1375.4,157.4L1375.4,157.4l-0.4,4.9l-0.5,5.8l-2.7,31.4h-7.1l1.1-32.4l0.2-4.8l0.2-5.1l0-0.3
								c0.1-2.5,2.1-4.4,4.6-4.4h0.1C1373.5,152.5,1375.6,154.8,1375.4,157.4z"/>
							<path class="st11" d="M1396.9,158l-0.4,2.1l-0.4,2.2l-1.2,6.2l-4.9,24c-0.8,4.1-4.4,7-8.6,7l5.2-34l0.5-3.2l0.7-4.6l0.2-1.3
								c0.2-1.1,0.7-2.1,1.5-2.8c0.8-0.7,1.9-1.1,3-1.1c2,0,3.7,1.3,4.3,3v0c0,0.1,0,0.1,0.1,0.2
								C1397.1,156.4,1397.1,157.2,1396.9,158z"/>
						</g>
						<g>
							<path class="st10" d="M1344.4,156.7l3.6,42.8h-9.5l-6.3-41.8c-0.4-2.8,1.7-5.3,4.5-5.3h3.2
								C1342.2,152.5,1344.2,154.3,1344.4,156.7z"/>
							<path class="st11" d="M1353.8,156.9l1.4,42.6h-7.1l-3.6-42.1c-0.2-2.7,1.9-5,4.6-5h0.1
								C1351.7,152.5,1353.7,154.5,1353.8,156.9z"/>
							<path class="st11" d="M1332,156.4l6.6,43.1c-4.2,0-7.7-2.9-8.6-7l-7-34.5c-0.6-2.8,1.6-5.5,4.5-5.5l0,0
								C1329.7,152.5,1331.6,154.1,1332,156.4z"/>
						</g>
					</g>
				</g>
			</g>
		</g>
	</g>
	<g>
		<g>
			<g>
				<path class="st7" d="M1617.1,156.2c0,1.3-0.1,2.5-0.3,3.8l-0.4,2.8h-72.2v0l-0.4-2.8c-0.2-1.3-0.3-2.5-0.3-3.8c0,0,0,0,0,0
					c0-0.7,0-1.5,0.1-2.2c0.2-3.3,1-6.4,2.3-9.2c0.5-1.1,1.2-2.2,1.9-3.2c1.2-1.7,2.7-3.2,4.4-4.3c0.2-0.2,0.5-0.3,0.7-0.5
					c0.3-0.2,0.5-0.3,0.8-0.5c0.2-0.1,0.5-0.3,0.7-0.4c2.2-1.2,4.7-2.1,7.2-2.8c0.1,0,0.1,0,0.2-0.1c1.9-0.5,3.8-0.8,5.8-1
					c0,0,0,0,0.1,0c1-0.1,2.1-0.1,3.2-0.1h8.2c0,0,0,0,0,0h10.8c0.4,0,0.8,0,1.2,0c0.4,0,0.8,0,1.1,0c0.3,0,0.6,0,0.9,0.1
					c0,0,0,0,0.1,0c1.3,0.1,2.6,0.3,3.8,0.5c0.3,0,0.6,0.1,0.8,0.2c0,0,0,0,0,0c3.4,0.7,6.6,1.9,9.4,3.5c0.4,0.2,0.8,0.4,1.1,0.7
					c0.1,0,0.1,0.1,0.2,0.1c0.1,0.1,0.3,0.2,0.4,0.3c0.1,0,0.1,0.1,0.2,0.1c1.9,1.3,3.5,3.1,4.7,5.1c0,0,0,0,0,0
					c0.4,0.7,0.8,1.3,1.1,2c1.3,2.7,2.1,5.9,2.3,9.1v0C1617.1,154.7,1617.1,155.4,1617.1,156.2z"/>
				<g>
					<path class="st4" d="M1551.7,133c0,0-6.6,1.8-4.4,7.9c2.2,6.1,14,7.2,16.1,5.7L1551.7,133z"/>
					<path class="st16" d="M1558.4,123.4c0,0-10.4,4.6-5.4,14.2c5,9.5,20.5,14.1,27.1,10.8C1580.2,148.3,1559.2,138.9,1558.4,123.4z
						"/>
					<path class="st4" d="M1567.8,109.7c0,0-9.4,3.2-9.4,13.7c0,10.5,11.5,21.4,21.7,25c10.2,3.6,20.4-1.7,20.4-1.7
						s-26.9-7.4-31.2-26.2C1568.4,116.4,1567.8,109.7,1567.8,109.7z"/>
					<path class="st16" d="M1613.6,142.7C1613.6,142.7,1613.6,142.7,1613.6,142.7c-0.3,2.5-2.6,4.8-8.3,4.5c-1.7-0.1-3.4-0.3-5-0.5
						c-8.6-1.3-15.2-4.6-20.2-8.6c-2.3-1.9-4.3-3.9-6-6c-4.7-5.8-6.9-12-7.3-15.6c-0.3-2.7,0.2-4.9,1-6.7c1.6-3.6,4.5-5.3,4.5-5.3
						c0,0.2,0,0.3,0,0.5c0.5,7.7,3.6,13.7,7.8,18.3c0.2,0.2,0.4,0.4,0.6,0.7c0,0,0.1,0.1,0.1,0.1c1.2,1.2,2.4,2.3,3.7,3.4
						c0,0,0,0,0,0c2.4,1.9,4.9,3.5,7.4,4.7c7.7,4,15,5.4,16.5,5.3c0,0,0.1,0,0.1,0c0.2,0,0.4,0,0.6,0
						C1612,137.8,1613.8,140.3,1613.6,142.7z"/>
					<path class="st4" d="M1609.3,137.5c-0.1,0-0.3,0.1-0.4,0.1c-3.6,0.9-9.6,0.1-18-5.5c-2-1.3-4-2.8-6.2-4.7c0,0,0,0,0,0
						c-1.4-1.2-2.6-2.3-3.7-3.4c0,0-0.1-0.1-0.1-0.1c-0.2-0.2-0.4-0.4-0.6-0.6c-7.9-8.2-8.6-14.5-7.8-18.4c0.6-2.9,2.1-4.4,2.1-4.4
						c0,0,0,0,0,0c0.4,2.4,1.2,4.6,2.4,6.5c0.9,1.6,2.1,3,3.3,4.2c6.7,6.7,16.8,8.8,16.8,8.8c0.7,0.1,1.4,0.3,2.1,0.5
						c5.7,2.1,12.5,8.8,13.7,12.3C1613.3,134.6,1612.1,136.6,1609.3,137.5z"/>
					<path class="st16" d="M1599.1,120.7c-0.8,1.5-3.1,2.2-8.3,0.6c-4.6-1.5-8.1-4.8-10.6-8.3c-1.4-2-2.5-4-3.3-5.8
						c-1.6-3.4-2.3-6.1-2.4-6.5c0,0,0,0,0,0c1.9,2,3.8,3.5,5.7,4.6c6.7,3.8,13.5,3.7,17.3,8.7C1598.4,115,1600.1,118.6,1599.1,120.7
						z"/>
				</g>
				<g>
					<g>
						<g>
							<path class="st17" d="M1608,158.2l-0.7,4.6l-0.5,3.2l-5.2,34h-9.5l2.7-31.4l0.5-5.8l0.4-4.9v0l0.1-0.7
								c0.2-2.4,2.2-4.2,4.6-4.2h3.2C1606.3,153,1608.4,155.5,1608,158.2z"/>
							<g>
								<path class="st17" d="M1586.4,157.7l-0.2,5.1l-0.2,4.8L1585,200h-9.5l-1.1-32.5l-0.2-4.7l-0.2-5.1c-0.1-2.6,2-4.7,4.6-4.7
									h3.2C1584.4,153,1586.5,155.1,1586.4,157.7z"/>
							</g>
							<path class="st18" d="M1595.7,157.9L1595.7,157.9l-0.4,4.9l-0.5,5.8l-2.7,31.4h-7.1l1.1-32.4l0.2-4.8l0.2-5.1l0-0.3
								c0.1-2.5,2.1-4.4,4.6-4.4h0.1C1593.8,153,1595.9,155.3,1595.7,157.9z"/>
							<path class="st18" d="M1617.2,158.5l-0.4,2.1l-0.4,2.2l-1.2,6.2l-4.9,24c-0.8,4.1-4.4,7-8.6,7l5.2-34l0.5-3.2l0.7-4.6
								l0.2-1.3c0.2-1.1,0.7-2.1,1.5-2.8c0.8-0.7,1.9-1.1,3-1.1c2,0,3.7,1.3,4.3,3v0c0,0.1,0,0.1,0.1,0.2
								C1617.3,156.9,1617.4,157.7,1617.2,158.5z"/>
						</g>
						<g>
							<path class="st17" d="M1564.7,157.2l3.6,42.8h-9.5l-6.3-41.8c-0.4-2.8,1.7-5.3,4.5-5.3h3.2
								C1562.5,153,1564.5,154.8,1564.7,157.2z"/>
							<path class="st18" d="M1574,157.4l1.4,42.6h-7.1l-3.6-42.1c-0.2-2.7,1.9-5,4.6-5h0.1C1571.9,153,1574,155,1574,157.4z"/>
							<path class="st18" d="M1552.3,156.9l6.6,43.1c-4.2,0-7.7-2.9-8.6-7l-7-34.5c-0.6-2.8,1.6-5.5,4.5-5.5l0,0
								C1550,153,1551.9,154.6,1552.3,156.9z"/>
						</g>
					</g>
				</g>
			</g>
		</g>
	</g>
</g>
<g>
	<g>
		<g>
			<g>
				<path class="st7" d="M1179.2,454.6c0,1.3-0.1,2.5-0.3,3.8l-0.4,2.8h-72.2v0l-0.4-2.8c-0.2-1.3-0.3-2.5-0.3-3.8c0,0,0,0,0,0
					c0-0.7,0-1.5,0.1-2.2c0.2-3.3,1-6.4,2.3-9.2c0.5-1.1,1.2-2.2,1.9-3.2c1.2-1.7,2.7-3.2,4.4-4.3c0.2-0.2,0.5-0.3,0.7-0.5
					c0.3-0.2,0.5-0.3,0.8-0.5c0.2-0.1,0.5-0.3,0.7-0.4c2.2-1.2,4.7-2.1,7.2-2.8c0.1,0,0.1,0,0.2-0.1c1.9-0.5,3.8-0.8,5.8-1
					c0,0,0,0,0.1,0c1-0.1,2.1-0.1,3.2-0.1h8.2c0,0,0,0,0,0h10.8c0.4,0,0.8,0,1.2,0c0.4,0,0.8,0,1.1,0c0.3,0,0.6,0,0.9,0.1
					c0,0,0,0,0.1,0c1.3,0.1,2.6,0.3,3.8,0.5c0.3,0,0.6,0.1,0.8,0.2c0,0,0,0,0,0c3.4,0.7,6.6,1.9,9.4,3.5c0.4,0.2,0.8,0.4,1.1,0.7
					c0.1,0,0.1,0.1,0.2,0.1c0.1,0.1,0.3,0.2,0.4,0.3c0.1,0,0.1,0.1,0.2,0.1c1.9,1.3,3.5,3.1,4.7,5.1c0,0,0,0,0,0
					c0.4,0.7,0.8,1.3,1.1,2c1.3,2.7,2.1,5.9,2.3,9.1v0C1179.2,453,1179.2,453.8,1179.2,454.6z"/>
				<g>
					<path class="st12" d="M1113.8,431.4c0,0-6.6,1.8-4.4,7.9c2.2,6.1,14,7.2,16.1,5.7L1113.8,431.4z"/>
					<path class="st13" d="M1120.5,421.7c0,0-10.4,4.6-5.4,14.2c5,9.5,20.5,14.1,27.1,10.8C1142.2,446.7,1121.2,437.3,1120.5,421.7z
						"/>
					<path class="st12" d="M1129.9,408c0,0-9.4,3.2-9.4,13.7c0,10.5,11.5,21.4,21.7,25c10.2,3.6,20.4-1.7,20.4-1.7
						s-26.9-7.4-31.2-26.2C1130.5,414.8,1129.9,408,1129.9,408z"/>
					<path class="st13" d="M1175.6,441.1C1175.6,441.1,1175.6,441.1,1175.6,441.1c-0.3,2.5-2.6,4.8-8.3,4.5c-1.7-0.1-3.4-0.3-5-0.5
						c-8.6-1.3-15.2-4.6-20.2-8.6c-2.3-1.9-4.3-3.9-6-6c-4.7-5.8-6.9-12-7.3-15.6c-0.3-2.7,0.2-4.9,1-6.7c1.6-3.6,4.5-5.3,4.5-5.3
						c0,0.2,0,0.3,0,0.5c0.5,7.7,3.6,13.7,7.8,18.3c0.2,0.2,0.4,0.4,0.6,0.7c0,0,0.1,0.1,0.1,0.1c1.2,1.2,2.4,2.3,3.7,3.4
						c0,0,0,0,0,0c2.4,1.9,4.9,3.5,7.4,4.7c7.7,4,15,5.4,16.5,5.3c0,0,0.1,0,0.1,0c0.2,0,0.4,0,0.6,0
						C1174.1,436.1,1175.9,438.7,1175.6,441.1z"/>
					<path class="st12" d="M1171.3,435.9c-0.1,0-0.3,0.1-0.4,0.1c-3.6,0.9-9.6,0.1-18-5.5c-2-1.3-4-2.8-6.2-4.7c0,0,0,0,0,0
						c-1.4-1.2-2.6-2.3-3.7-3.4c0,0-0.1-0.1-0.1-0.1c-0.2-0.2-0.4-0.4-0.6-0.6c-7.9-8.2-8.6-14.5-7.8-18.4c0.6-2.9,2.1-4.4,2.1-4.4
						c0,0,0,0,0,0c0.4,2.4,1.2,4.6,2.4,6.5c0.9,1.6,2.1,3,3.3,4.2c6.7,6.7,16.8,8.8,16.8,8.8c0.7,0.1,1.4,0.3,2.1,0.5
						c5.7,2.1,12.5,8.8,13.7,12.3C1175.4,432.9,1174.2,435,1171.3,435.9z"/>
					<path class="st13" d="M1161.1,419.1c-0.8,1.5-3.1,2.2-8.3,0.6c-4.6-1.5-8.1-4.8-10.6-8.3c-1.4-2-2.5-4-3.3-5.8
						c-1.6-3.4-2.3-6.1-2.4-6.5c0,0,0,0,0,0c1.9,2,3.8,3.5,5.7,4.6c6.7,3.8,13.5,3.7,17.3,8.7C1160.5,413.4,1162.2,417,1161.1,419.1
						z"/>
				</g>
				<g>
					<g>
						<g>
							<path class="st14" d="M1170.1,456.6l-0.7,4.6l-0.5,3.2l-5.2,34h-9.5l2.7-31.4l0.5-5.8l0.4-4.9v0l0.1-0.7
								c0.2-2.4,2.2-4.2,4.6-4.2h3.2C1168.3,451.4,1170.5,453.8,1170.1,456.6z"/>
							<g>
								<path class="st14" d="M1148.5,456.1l-0.2,5.1l-0.2,4.8l-1.1,32.4h-9.5l-1.1-32.5l-0.2-4.7l-0.2-5.1c-0.1-2.6,2-4.7,4.6-4.7
									h3.2C1146.5,451.4,1148.6,453.5,1148.5,456.1z"/>
							</g>
							<path class="st15" d="M1157.8,456.3L1157.8,456.3l-0.4,4.9l-0.5,5.8l-2.7,31.4h-7.1l1.1-32.4l0.2-4.8l0.2-5.1l0-0.3
								c0.1-2.5,2.1-4.4,4.6-4.4h0.1C1155.9,451.4,1158,453.6,1157.8,456.3z"/>
							<path class="st15" d="M1179.3,456.9l-0.4,2.1l-0.4,2.2l-1.2,6.2l-4.9,24c-0.8,4.1-4.4,7-8.6,7l5.2-34l0.5-3.2l0.7-4.6
								l0.2-1.3c0.2-1.1,0.7-2.1,1.5-2.8c0.8-0.7,1.9-1.1,3-1.1c2,0,3.7,1.3,4.3,3v0c0,0.1,0,0.1,0.1,0.2
								C1179.4,455.3,1179.5,456,1179.3,456.9z"/>
						</g>
						<g>
							<path class="st14" d="M1126.8,455.6l3.6,42.8h-9.5l-6.3-41.8c-0.4-2.8,1.7-5.3,4.5-5.3h3.2
								C1124.6,451.4,1126.6,453.2,1126.8,455.6z"/>
							<path class="st15" d="M1136.1,455.8l1.4,42.6h-7.1l-3.6-42.1c-0.2-2.7,1.9-5,4.6-5h0.1C1134,451.4,1136,453.3,1136.1,455.8z"
								/>
							<path class="st15" d="M1114.3,455.3l6.6,43.1c-4.2,0-7.7-2.9-8.6-7l-7-34.5c-0.6-2.8,1.6-5.5,4.5-5.5l0,0
								C1112,451.4,1114,453,1114.3,455.3z"/>
						</g>
					</g>
				</g>
			</g>
		</g>
	</g>
	<g>
		<g>
			<g>
				<path class="st7" d="M1066.8,454.6c0,1.3-0.1,2.5-0.3,3.8l-0.4,2.8h-72.2v0l-0.4-2.8c-0.2-1.3-0.3-2.5-0.3-3.8c0,0,0,0,0,0
					c0-0.7,0-1.5,0.1-2.2c0.2-3.3,1-6.4,2.3-9.2c0.5-1.1,1.2-2.2,1.9-3.2c1.2-1.7,2.7-3.2,4.4-4.3c0.2-0.2,0.5-0.3,0.7-0.5
					c0.3-0.2,0.5-0.3,0.8-0.5c0.2-0.1,0.5-0.3,0.7-0.4c2.2-1.2,4.7-2.1,7.2-2.8c0.1,0,0.1,0,0.2-0.1c1.9-0.5,3.8-0.8,5.8-1
					c0,0,0,0,0.1,0c1-0.1,2.1-0.1,3.2-0.1h8.2c0,0,0,0,0,0h10.8c0.4,0,0.8,0,1.2,0c0.4,0,0.8,0,1.1,0c0.3,0,0.6,0,0.9,0.1
					c0,0,0,0,0.1,0c1.3,0.1,2.6,0.3,3.8,0.5c0.3,0,0.6,0.1,0.8,0.2c0,0,0,0,0,0c3.4,0.7,6.6,1.9,9.4,3.5c0.4,0.2,0.8,0.4,1.1,0.7
					c0.1,0,0.1,0.1,0.2,0.1c0.1,0.1,0.3,0.2,0.4,0.3c0.1,0,0.1,0.1,0.2,0.1c1.9,1.3,3.5,3.1,4.7,5.1c0,0,0,0,0,0
					c0.4,0.7,0.8,1.3,1.1,2c1.3,2.7,2.1,5.9,2.3,9.1v0C1066.8,453.1,1066.8,453.8,1066.8,454.6z"/>
				<g>
					<path class="st8" d="M1001.4,431.4c0,0-6.6,1.8-4.4,7.9c2.2,6.1,14,7.2,16.1,5.7L1001.4,431.4z"/>
					<path class="st9" d="M1008.2,421.8c0,0-10.4,4.6-5.4,14.2c5,9.5,20.5,14.1,27.1,10.8C1029.9,446.7,1008.9,437.3,1008.2,421.8z"
						/>
					<path class="st8" d="M1017.6,408.1c0,0-9.4,3.2-9.4,13.7c0,10.5,11.5,21.4,21.7,25c10.2,3.6,20.4-1.7,20.4-1.7
						s-26.9-7.4-31.2-26.2C1018.1,414.8,1017.6,408.1,1017.6,408.1z"/>
					<path class="st9" d="M1063.3,441.1C1063.3,441.1,1063.3,441.1,1063.3,441.1c-0.3,2.5-2.6,4.8-8.3,4.5c-1.7-0.1-3.4-0.3-5-0.5
						c-8.6-1.3-15.2-4.6-20.2-8.6c-2.3-1.9-4.3-3.9-6-6c-4.7-5.8-6.9-12-7.3-15.6c-0.3-2.7,0.2-4.9,1-6.7c1.6-3.6,4.5-5.3,4.5-5.3
						c0,0.2,0,0.3,0,0.5c0.5,7.7,3.6,13.7,7.8,18.3c0.2,0.2,0.4,0.4,0.6,0.7c0,0,0.1,0.1,0.1,0.1c1.2,1.2,2.4,2.3,3.7,3.4
						c0,0,0,0,0,0c2.4,1.9,4.9,3.5,7.4,4.7c7.7,4,15,5.4,16.5,5.3c0,0,0.1,0,0.1,0c0.2,0,0.4,0,0.6,0
						C1061.8,436.2,1063.6,438.7,1063.3,441.1z"/>
					<path class="st8" d="M1059,435.9c-0.1,0-0.3,0.1-0.4,0.1c-3.6,0.9-9.6,0.1-18-5.5c-2-1.3-4-2.8-6.2-4.7c0,0,0,0,0,0
						c-1.4-1.2-2.6-2.3-3.7-3.4c0,0-0.1-0.1-0.1-0.1c-0.2-0.2-0.4-0.4-0.6-0.6c-7.9-8.2-8.6-14.5-7.8-18.4c0.6-2.9,2.1-4.4,2.1-4.4
						c0,0,0,0,0,0c0.4,2.4,1.2,4.6,2.4,6.5c0.9,1.6,2.1,3,3.3,4.2c6.7,6.7,16.8,8.8,16.8,8.8c0.7,0.1,1.4,0.3,2.1,0.5
						c5.7,2.1,12.5,8.8,13.7,12.3C1063,433,1061.8,435,1059,435.9z"/>
					<path class="st9" d="M1048.8,419.1c-0.8,1.5-3.1,2.2-8.3,0.6c-4.6-1.5-8.1-4.8-10.6-8.3c-1.4-2-2.5-4-3.3-5.8
						c-1.6-3.4-2.3-6.1-2.4-6.5c0,0,0,0,0,0c1.9,2,3.8,3.5,5.7,4.6c6.7,3.8,13.5,3.7,17.3,8.7C1048.1,413.4,1049.9,417,1048.8,419.1
						z"/>
				</g>
				<g>
					<g>
						<g>
							<path class="st10" d="M1057.7,456.6l-0.7,4.6l-0.5,3.2l-5.2,34h-9.5l2.7-31.4l0.5-5.8l0.4-4.9v0l0.1-0.7
								c0.2-2.4,2.2-4.2,4.6-4.2h3.2C1056,451.4,1058.1,453.8,1057.7,456.6z"/>
							<g>
								<path class="st10" d="M1036.1,456.1l-0.2,5.1l-0.2,4.8l-1.1,32.4h-9.5l-1.1-32.5l-0.2-4.7l-0.2-5.1c-0.1-2.6,2-4.7,4.6-4.7
									h3.2C1034.2,451.4,1036.2,453.5,1036.1,456.1z"/>
							</g>
							<path class="st11" d="M1045.4,456.3L1045.4,456.3l-0.4,4.9l-0.5,5.8l-2.7,31.4h-7.1l1.1-32.4l0.2-4.8l0.2-5.1l0-0.3
								c0.1-2.5,2.1-4.4,4.6-4.4h0.1C1043.5,451.4,1045.6,453.7,1045.4,456.3z"/>
							<path class="st11" d="M1066.9,456.9l-0.4,2.1l-0.4,2.2l-1.2,6.2l-4.9,24c-0.8,4.1-4.4,7-8.6,7l5.2-34l0.5-3.2l0.7-4.6
								l0.2-1.3c0.2-1.1,0.7-2.1,1.5-2.8c0.8-0.7,1.9-1.1,3-1.1c2,0,3.7,1.3,4.3,3v0c0,0.1,0,0.1,0.1,0.2
								C1067.1,455.3,1067.1,456.1,1066.9,456.9z"/>
						</g>
						<g>
							<path class="st10" d="M1014.4,455.6l3.6,42.8h-9.5l-6.3-41.8c-0.4-2.8,1.7-5.3,4.5-5.3h3.2
								C1012.2,451.4,1014.2,453.2,1014.4,455.6z"/>
							<path class="st11" d="M1023.8,455.8l1.4,42.6h-7.1l-3.6-42.1c-0.2-2.7,1.9-5,4.6-5h0.1
								C1021.7,451.4,1023.7,453.3,1023.8,455.8z"/>
							<path class="st11" d="M1002,455.3l6.6,43.1c-4.2,0-7.7-2.9-8.6-7l-7-34.5c-0.6-2.8,1.6-5.5,4.5-5.5h0
								C999.7,451.4,1001.6,453,1002,455.3z"/>
						</g>
					</g>
				</g>
			</g>
		</g>
	</g>
	<g>
		<g>
			<g>
				<path class="st7" d="M1287.1,455.1c0,1.3-0.1,2.5-0.3,3.8l-0.4,2.8h-72.2v0l-0.4-2.8c-0.2-1.3-0.3-2.5-0.3-3.8c0,0,0,0,0,0
					c0-0.7,0-1.5,0.1-2.2c0.2-3.3,1-6.4,2.3-9.2c0.5-1.1,1.2-2.2,1.9-3.2c1.2-1.7,2.7-3.2,4.4-4.3c0.2-0.2,0.5-0.3,0.7-0.5
					c0.3-0.2,0.5-0.3,0.8-0.5c0.2-0.1,0.5-0.3,0.7-0.4c2.2-1.2,4.7-2.1,7.2-2.8c0.1,0,0.1,0,0.2-0.1c1.9-0.5,3.8-0.8,5.8-1
					c0,0,0,0,0.1,0c1-0.1,2.1-0.1,3.2-0.1h8.2c0,0,0,0,0,0h10.8c0.4,0,0.8,0,1.2,0c0.4,0,0.8,0,1.1,0c0.3,0,0.6,0,0.9,0.1
					c0,0,0,0,0.1,0c1.3,0.1,2.6,0.3,3.8,0.5c0.3,0,0.6,0.1,0.8,0.2c0,0,0,0,0,0c3.4,0.7,6.6,1.9,9.4,3.5c0.4,0.2,0.8,0.4,1.1,0.7
					c0.1,0,0.1,0.1,0.2,0.1c0.1,0.1,0.3,0.2,0.4,0.3c0.1,0,0.1,0.1,0.2,0.1c1.9,1.3,3.5,3.1,4.7,5.1c0,0,0,0,0,0
					c0.4,0.7,0.8,1.3,1.1,2c1.3,2.7,2.1,5.9,2.3,9.1v0C1287.1,453.6,1287.1,454.3,1287.1,455.1z"/>
				<g>
					<path class="st4" d="M1221.7,431.9c0,0-6.6,1.8-4.4,7.9c2.2,6.1,14,7.2,16.1,5.7L1221.7,431.9z"/>
					<path class="st16" d="M1228.4,422.3c0,0-10.4,4.6-5.4,14.2c5,9.5,20.5,14.1,27.1,10.8C1250.2,447.2,1229.2,437.8,1228.4,422.3z
						"/>
					<path class="st4" d="M1237.8,408.6c0,0-9.4,3.2-9.4,13.7c0,10.5,11.5,21.4,21.7,25c10.2,3.6,20.4-1.7,20.4-1.7
						s-26.9-7.4-31.2-26.2C1238.4,415.3,1237.8,408.6,1237.8,408.6z"/>
					<path class="st16" d="M1283.6,441.6C1283.6,441.6,1283.6,441.6,1283.6,441.6c-0.3,2.5-2.6,4.8-8.3,4.5c-1.7-0.1-3.4-0.3-5-0.5
						c-8.6-1.3-15.2-4.6-20.2-8.6c-2.3-1.9-4.3-3.9-6-6c-4.7-5.8-6.9-12-7.3-15.6c-0.3-2.7,0.2-4.9,1-6.7c1.6-3.6,4.5-5.3,4.5-5.3
						c0,0.2,0,0.3,0,0.5c0.5,7.7,3.6,13.7,7.8,18.3c0.2,0.2,0.4,0.4,0.6,0.7c0,0,0.1,0.1,0.1,0.1c1.2,1.2,2.4,2.3,3.7,3.4
						c0,0,0,0,0,0c2.4,1.9,4.9,3.5,7.4,4.7c7.7,4,15,5.4,16.5,5.3c0,0,0.1,0,0.1,0c0.2,0,0.4,0,0.6,0
						C1282,436.7,1283.8,439.2,1283.6,441.6z"/>
					<path class="st4" d="M1279.3,436.4c-0.1,0-0.3,0.1-0.4,0.1c-3.6,0.9-9.6,0.1-18-5.5c-2-1.3-4-2.8-6.2-4.7c0,0,0,0,0,0
						c-1.4-1.2-2.6-2.3-3.7-3.4c0,0-0.1-0.1-0.1-0.1c-0.2-0.2-0.4-0.4-0.6-0.6c-7.9-8.2-8.6-14.5-7.8-18.4c0.6-2.9,2.1-4.4,2.1-4.4
						c0,0,0,0,0,0c0.4,2.4,1.2,4.6,2.4,6.5c0.9,1.6,2.1,3,3.3,4.2c6.7,6.7,16.8,8.8,16.8,8.8c0.7,0.1,1.4,0.3,2.1,0.5
						c5.7,2.1,12.5,8.8,13.7,12.3C1283.3,433.5,1282.1,435.5,1279.3,436.4z"/>
					<path class="st16" d="M1269.1,419.6c-0.8,1.5-3.1,2.2-8.3,0.6c-4.6-1.5-8.1-4.8-10.6-8.3c-1.4-2-2.5-4-3.3-5.8
						c-1.6-3.4-2.3-6.1-2.4-6.5c0,0,0,0,0,0c1.9,2,3.8,3.5,5.7,4.6c6.7,3.8,13.5,3.7,17.3,8.7
						C1268.4,413.9,1270.1,417.5,1269.1,419.6z"/>
				</g>
				<g>
					<g>
						<g>
							<path class="st17" d="M1278,457.1l-0.7,4.6l-0.5,3.2l-5.2,34h-9.5l2.7-31.4l0.5-5.8l0.4-4.9v0l0.1-0.7
								c0.2-2.4,2.2-4.2,4.6-4.2h3.2C1276.3,451.9,1278.4,454.3,1278,457.1z"/>
							<g>
								<path class="st17" d="M1256.4,456.6l-0.2,5.1l-0.2,4.8l-1.1,32.4h-9.5l-1.1-32.5l-0.2-4.7l-0.2-5.1c-0.1-2.6,2-4.7,4.6-4.7
									h3.2C1254.4,451.9,1256.5,454,1256.4,456.6z"/>
							</g>
							<path class="st18" d="M1265.7,456.8L1265.7,456.8l-0.4,4.9l-0.5,5.8l-2.7,31.4h-7.1l1.1-32.4l0.2-4.8l0.2-5.1l0-0.3
								c0.1-2.5,2.1-4.4,4.6-4.4h0.1C1263.8,451.9,1265.9,454.2,1265.7,456.8z"/>
							<path class="st18" d="M1287.2,457.4l-0.4,2.1l-0.4,2.2l-1.2,6.2l-4.9,24c-0.8,4.1-4.4,7-8.6,7l5.2-34l0.5-3.2l0.7-4.6
								l0.2-1.3c0.2-1.1,0.7-2.1,1.5-2.8c0.8-0.7,1.9-1.1,3-1.1c2,0,3.7,1.3,4.3,3v0c0,0.1,0,0.1,0.1,0.2
								C1287.3,455.8,1287.4,456.6,1287.2,457.4z"/>
						</g>
						<g>
							<path class="st17" d="M1234.7,456.1l3.6,42.8h-9.5l-6.3-41.8c-0.4-2.8,1.7-5.3,4.5-5.3h3.2
								C1232.5,451.9,1234.5,453.7,1234.7,456.1z"/>
							<path class="st18" d="M1244,456.3l1.4,42.6h-7.1l-3.6-42.1c-0.2-2.7,1.9-5,4.6-5h0.1C1241.9,451.9,1244,453.8,1244,456.3z"/>
							<path class="st18" d="M1222.3,455.8l6.6,43.1c-4.2,0-7.7-2.9-8.6-7l-7-34.5c-0.6-2.8,1.6-5.5,4.5-5.5l0,0
								C1220,451.9,1221.9,453.5,1222.3,455.8z"/>
						</g>
					</g>
				</g>
			</g>
		</g>
	</g>
	<g>
		<g>
			<g>
				<path class="st7" d="M1509.2,454.6c0,1.3-0.1,2.5-0.3,3.8l-0.4,2.8h-72.2v0l-0.4-2.8c-0.2-1.3-0.3-2.5-0.3-3.8c0,0,0,0,0,0
					c0-0.7,0-1.5,0.1-2.2c0.2-3.3,1-6.4,2.3-9.2c0.5-1.1,1.2-2.2,1.9-3.2c1.2-1.7,2.7-3.2,4.4-4.3c0.2-0.2,0.5-0.3,0.7-0.5
					c0.3-0.2,0.5-0.3,0.8-0.5c0.2-0.1,0.5-0.3,0.7-0.4c2.2-1.2,4.7-2.1,7.2-2.8c0.1,0,0.1,0,0.2-0.1c1.9-0.5,3.8-0.8,5.8-1
					c0,0,0,0,0.1,0c1-0.1,2.1-0.1,3.2-0.1h8.2c0,0,0,0,0,0h10.8c0.4,0,0.8,0,1.2,0c0.4,0,0.8,0,1.1,0c0.3,0,0.6,0,0.9,0.1
					c0,0,0,0,0.1,0c1.3,0.1,2.6,0.3,3.8,0.5c0.3,0,0.6,0.1,0.8,0.2c0,0,0,0,0,0c3.4,0.7,6.6,1.9,9.4,3.5c0.4,0.2,0.8,0.4,1.1,0.7
					c0.1,0,0.1,0.1,0.2,0.1c0.1,0.1,0.3,0.2,0.4,0.3c0.1,0,0.1,0.1,0.2,0.1c1.9,1.3,3.5,3.1,4.7,5.1c0,0,0,0,0,0
					c0.4,0.7,0.8,1.3,1.1,2c1.3,2.7,2.1,5.9,2.3,9.1v0C1509.2,453,1509.2,453.8,1509.2,454.6z"/>
				<g>
					<path class="st12" d="M1443.8,431.4c0,0-6.6,1.8-4.4,7.9c2.2,6.1,14,7.2,16.1,5.7L1443.8,431.4z"/>
					<path class="st13" d="M1450.5,421.7c0,0-10.4,4.6-5.4,14.2c5,9.5,20.5,14.1,27.1,10.8C1472.2,446.7,1451.2,437.3,1450.5,421.7z
						"/>
					<path class="st12" d="M1459.9,408c0,0-9.4,3.2-9.4,13.7c0,10.5,11.5,21.4,21.7,25c10.2,3.6,20.4-1.7,20.4-1.7
						s-26.9-7.4-31.2-26.2C1460.5,414.8,1459.9,408,1459.9,408z"/>
					<path class="st13" d="M1505.6,441.1C1505.6,441.1,1505.6,441.1,1505.6,441.1c-0.3,2.5-2.6,4.8-8.3,4.5c-1.7-0.1-3.4-0.3-5-0.5
						c-8.6-1.3-15.2-4.6-20.2-8.6c-2.3-1.9-4.3-3.9-6-6c-4.7-5.8-6.9-12-7.3-15.6c-0.3-2.7,0.2-4.9,1-6.7c1.6-3.6,4.5-5.3,4.5-5.3
						c0,0.2,0,0.3,0,0.5c0.5,7.7,3.6,13.7,7.8,18.3c0.2,0.2,0.4,0.4,0.6,0.7c0,0,0.1,0.1,0.1,0.1c1.2,1.2,2.4,2.3,3.7,3.4
						c0,0,0,0,0,0c2.4,1.9,4.9,3.5,7.4,4.7c7.7,4,15,5.4,16.5,5.3c0,0,0.1,0,0.1,0c0.2,0,0.4,0,0.6,0
						C1504.1,436.1,1505.9,438.7,1505.6,441.1z"/>
					<path class="st12" d="M1501.3,435.9c-0.1,0-0.3,0.1-0.4,0.1c-3.6,0.9-9.6,0.1-18-5.5c-2-1.3-4-2.8-6.2-4.7c0,0,0,0,0,0
						c-1.4-1.2-2.6-2.3-3.7-3.4c0,0-0.1-0.1-0.1-0.1c-0.2-0.2-0.4-0.4-0.6-0.6c-7.9-8.2-8.6-14.5-7.8-18.4c0.6-2.9,2.1-4.4,2.1-4.4
						c0,0,0,0,0,0c0.4,2.4,1.2,4.6,2.4,6.5c0.9,1.6,2.1,3,3.3,4.2c6.7,6.7,16.8,8.8,16.8,8.8c0.7,0.1,1.4,0.3,2.1,0.5
						c5.7,2.1,12.5,8.8,13.7,12.3C1505.4,432.9,1504.2,435,1501.3,435.9z"/>
					<path class="st13" d="M1491.1,419.1c-0.8,1.5-3.1,2.2-8.3,0.6c-4.6-1.5-8.1-4.8-10.6-8.3c-1.4-2-2.5-4-3.3-5.8
						c-1.6-3.4-2.3-6.1-2.4-6.5c0,0,0,0,0,0c1.9,2,3.8,3.5,5.7,4.6c6.7,3.8,13.5,3.7,17.3,8.7C1490.5,413.4,1492.2,417,1491.1,419.1
						z"/>
				</g>
				<g>
					<g>
						<g>
							<path class="st14" d="M1500.1,456.6l-0.7,4.6l-0.5,3.2l-5.2,34h-9.5l2.7-31.4l0.5-5.8l0.4-4.9v0l0.1-0.7
								c0.2-2.4,2.2-4.2,4.6-4.2h3.2C1498.3,451.4,1500.5,453.8,1500.1,456.6z"/>
							<g>
								<path class="st14" d="M1478.5,456.1l-0.2,5.1l-0.2,4.8l-1.1,32.4h-9.5l-1.1-32.5l-0.2-4.7l-0.2-5.1c-0.1-2.6,2-4.7,4.6-4.7
									h3.2C1476.5,451.4,1478.6,453.5,1478.5,456.1z"/>
							</g>
							<path class="st15" d="M1487.8,456.3L1487.8,456.3l-0.4,4.9l-0.5,5.8l-2.7,31.4h-7.1l1.1-32.4l0.2-4.8l0.2-5.1l0-0.3
								c0.1-2.5,2.1-4.4,4.6-4.4h0.1C1485.9,451.4,1488,453.6,1487.8,456.3z"/>
							<path class="st15" d="M1509.3,456.9l-0.4,2.1l-0.4,2.2l-1.2,6.2l-4.9,24c-0.8,4.1-4.4,7-8.6,7l5.2-34l0.5-3.2l0.7-4.6
								l0.2-1.3c0.2-1.1,0.7-2.1,1.5-2.8c0.8-0.7,1.9-1.1,3-1.1c2,0,3.7,1.3,4.3,3v0c0,0.1,0,0.1,0.1,0.2
								C1509.4,455.3,1509.5,456,1509.3,456.9z"/>
						</g>
						<g>
							<path class="st14" d="M1456.8,455.6l3.6,42.8h-9.5l-6.3-41.8c-0.4-2.8,1.7-5.3,4.5-5.3h3.2
								C1454.6,451.4,1456.6,453.2,1456.8,455.6z"/>
							<path class="st15" d="M1466.1,455.8l1.4,42.6h-7.1l-3.6-42.1c-0.2-2.7,1.9-5,4.6-5h0.1C1464,451.4,1466,453.3,1466.1,455.8z"
								/>
							<path class="st15" d="M1444.3,455.3l6.6,43.1c-4.2,0-7.7-2.9-8.6-7l-7-34.5c-0.6-2.8,1.6-5.5,4.5-5.5l0,0
								C1442,451.4,1444,453,1444.3,455.3z"/>
						</g>
					</g>
				</g>
			</g>
		</g>
	</g>
	<g>
		<g>
			<g>
				<path class="st7" d="M1396.8,454.6c0,1.3-0.1,2.5-0.3,3.8l-0.4,2.8h-72.2v0l-0.4-2.8c-0.2-1.3-0.3-2.5-0.3-3.8c0,0,0,0,0,0
					c0-0.7,0-1.5,0.1-2.2c0.2-3.3,1-6.4,2.3-9.2c0.5-1.1,1.2-2.2,1.9-3.2c1.2-1.7,2.7-3.2,4.4-4.3c0.2-0.2,0.5-0.3,0.7-0.5
					c0.3-0.2,0.5-0.3,0.8-0.5c0.2-0.1,0.5-0.3,0.7-0.4c2.2-1.2,4.7-2.1,7.2-2.8c0.1,0,0.1,0,0.2-0.1c1.9-0.5,3.8-0.8,5.8-1
					c0,0,0,0,0.1,0c1-0.1,2.1-0.1,3.2-0.1h8.2c0,0,0,0,0,0h10.8c0.4,0,0.8,0,1.2,0c0.4,0,0.8,0,1.1,0c0.3,0,0.6,0,0.9,0.1
					c0,0,0,0,0.1,0c1.3,0.1,2.6,0.3,3.8,0.5c0.3,0,0.6,0.1,0.8,0.2c0,0,0,0,0,0c3.4,0.7,6.6,1.9,9.4,3.5c0.4,0.2,0.8,0.4,1.1,0.7
					c0.1,0,0.1,0.1,0.2,0.1c0.1,0.1,0.3,0.2,0.4,0.3c0.1,0,0.1,0.1,0.2,0.1c1.9,1.3,3.5,3.1,4.7,5.1c0,0,0,0,0,0
					c0.4,0.7,0.8,1.3,1.1,2c1.3,2.7,2.1,5.9,2.3,9.1v0C1396.8,453.1,1396.8,453.8,1396.8,454.6z"/>
				<g>
					<path class="st8" d="M1331.4,431.4c0,0-6.6,1.8-4.4,7.9c2.2,6.1,14,7.2,16.1,5.7L1331.4,431.4z"/>
					<path class="st9" d="M1338.2,421.8c0,0-10.4,4.6-5.4,14.2c5,9.5,20.5,14.1,27.1,10.8C1359.9,446.7,1338.9,437.3,1338.2,421.8z"
						/>
					<path class="st8" d="M1347.6,408.1c0,0-9.4,3.2-9.4,13.7c0,10.5,11.5,21.4,21.7,25c10.2,3.6,20.4-1.7,20.4-1.7
						s-26.9-7.4-31.2-26.2C1348.1,414.8,1347.6,408.1,1347.6,408.1z"/>
					<path class="st9" d="M1393.3,441.1C1393.3,441.1,1393.3,441.1,1393.3,441.1c-0.3,2.5-2.6,4.8-8.3,4.5c-1.7-0.1-3.4-0.3-5-0.5
						c-8.6-1.3-15.2-4.6-20.2-8.6c-2.3-1.9-4.3-3.9-6-6c-4.7-5.8-6.9-12-7.3-15.6c-0.3-2.7,0.2-4.9,1-6.7c1.6-3.6,4.5-5.3,4.5-5.3
						c0,0.2,0,0.3,0,0.5c0.5,7.7,3.6,13.7,7.8,18.3c0.2,0.2,0.4,0.4,0.6,0.7c0,0,0.1,0.1,0.1,0.1c1.2,1.2,2.4,2.3,3.7,3.4
						c0,0,0,0,0,0c2.4,1.9,4.9,3.5,7.4,4.7c7.7,4,15,5.4,16.5,5.3c0,0,0.1,0,0.1,0c0.2,0,0.4,0,0.6,0
						C1391.8,436.2,1393.6,438.7,1393.3,441.1z"/>
					<path class="st8" d="M1389,435.9c-0.1,0-0.3,0.1-0.4,0.1c-3.6,0.9-9.6,0.1-18-5.5c-2-1.3-4-2.8-6.2-4.7c0,0,0,0,0,0
						c-1.4-1.2-2.6-2.3-3.7-3.4c0,0-0.1-0.1-0.1-0.1c-0.2-0.2-0.4-0.4-0.6-0.6c-7.9-8.2-8.6-14.5-7.8-18.4c0.6-2.9,2.1-4.4,2.1-4.4
						c0,0,0,0,0,0c0.4,2.4,1.2,4.6,2.4,6.5c0.9,1.6,2.1,3,3.3,4.2c6.7,6.7,16.8,8.8,16.8,8.8c0.7,0.1,1.4,0.3,2.1,0.5
						c5.7,2.1,12.5,8.8,13.7,12.3C1393,433,1391.8,435,1389,435.9z"/>
					<path class="st9" d="M1378.8,419.1c-0.8,1.5-3.1,2.2-8.3,0.6c-4.6-1.5-8.1-4.8-10.6-8.3c-1.4-2-2.5-4-3.3-5.8
						c-1.6-3.4-2.3-6.1-2.4-6.5c0,0,0,0,0,0c1.9,2,3.8,3.5,5.7,4.6c6.7,3.8,13.5,3.7,17.3,8.7C1378.1,413.4,1379.9,417,1378.8,419.1
						z"/>
				</g>
				<g>
					<g>
						<g>
							<path class="st10" d="M1387.7,456.6l-0.7,4.6l-0.5,3.2l-5.2,34h-9.5l2.7-31.4l0.5-5.8l0.4-4.9v0l0.1-0.7
								c0.2-2.4,2.2-4.2,4.6-4.2h3.2C1386,451.4,1388.1,453.8,1387.7,456.6z"/>
							<g>
								<path class="st10" d="M1366.1,456.1l-0.2,5.1l-0.2,4.8l-1.1,32.4h-9.5l-1.1-32.5l-0.2-4.7l-0.2-5.1c-0.1-2.6,2-4.7,4.6-4.7
									h3.2C1364.2,451.4,1366.2,453.5,1366.1,456.1z"/>
							</g>
							<path class="st11" d="M1375.4,456.3L1375.4,456.3l-0.4,4.9l-0.5,5.8l-2.7,31.4h-7.1l1.1-32.4l0.2-4.8l0.2-5.1l0-0.3
								c0.1-2.5,2.1-4.4,4.6-4.4h0.1C1373.5,451.4,1375.6,453.7,1375.4,456.3z"/>
							<path class="st11" d="M1396.9,456.9l-0.4,2.1l-0.4,2.2l-1.2,6.2l-4.9,24c-0.8,4.1-4.4,7-8.6,7l5.2-34l0.5-3.2l0.7-4.6
								l0.2-1.3c0.2-1.1,0.7-2.1,1.5-2.8c0.8-0.7,1.9-1.1,3-1.1c2,0,3.7,1.3,4.3,3v0c0,0.1,0,0.1,0.1,0.2
								C1397.1,455.3,1397.1,456.1,1396.9,456.9z"/>
						</g>
						<g>
							<path class="st10" d="M1344.4,455.6l3.6,42.8h-9.5l-6.3-41.8c-0.4-2.8,1.7-5.3,4.5-5.3h3.2
								C1342.2,451.4,1344.2,453.2,1344.4,455.6z"/>
							<path class="st11" d="M1353.8,455.8l1.4,42.6h-7.1l-3.6-42.1c-0.2-2.7,1.9-5,4.6-5h0.1
								C1351.7,451.4,1353.7,453.3,1353.8,455.8z"/>
							<path class="st11" d="M1332,455.3l6.6,43.1c-4.2,0-7.7-2.9-8.6-7l-7-34.5c-0.6-2.8,1.6-5.5,4.5-5.5l0,0
								C1329.7,451.4,1331.6,453,1332,455.3z"/>
						</g>
					</g>
				</g>
			</g>
		</g>
	</g>
	<g>
		<g>
			<g>
				<path class="st7" d="M1617.1,455.1c0,1.3-0.1,2.5-0.3,3.8l-0.4,2.8h-72.2v0l-0.4-2.8c-0.2-1.3-0.3-2.5-0.3-3.8c0,0,0,0,0,0
					c0-0.7,0-1.5,0.1-2.2c0.2-3.3,1-6.4,2.3-9.2c0.5-1.1,1.2-2.2,1.9-3.2c1.2-1.7,2.7-3.2,4.4-4.3c0.2-0.2,0.5-0.3,0.7-0.5
					c0.3-0.2,0.5-0.3,0.8-0.5c0.2-0.1,0.5-0.3,0.7-0.4c2.2-1.2,4.7-2.1,7.2-2.8c0.1,0,0.1,0,0.2-0.1c1.9-0.5,3.8-0.8,5.8-1
					c0,0,0,0,0.1,0c1-0.1,2.1-0.1,3.2-0.1h8.2c0,0,0,0,0,0h10.8c0.4,0,0.8,0,1.2,0c0.4,0,0.8,0,1.1,0c0.3,0,0.6,0,0.9,0.1
					c0,0,0,0,0.1,0c1.3,0.1,2.6,0.3,3.8,0.5c0.3,0,0.6,0.1,0.8,0.2c0,0,0,0,0,0c3.4,0.7,6.6,1.9,9.4,3.5c0.4,0.2,0.8,0.4,1.1,0.7
					c0.1,0,0.1,0.1,0.2,0.1c0.1,0.1,0.3,0.2,0.4,0.3c0.1,0,0.1,0.1,0.2,0.1c1.9,1.3,3.5,3.1,4.7,5.1c0,0,0,0,0,0
					c0.4,0.7,0.8,1.3,1.1,2c1.3,2.7,2.1,5.9,2.3,9.1v0C1617.1,453.6,1617.1,454.3,1617.1,455.1z"/>
				<g>
					<path class="st4" d="M1551.7,431.9c0,0-6.6,1.8-4.4,7.9c2.2,6.1,14,7.2,16.1,5.7L1551.7,431.9z"/>
					<path class="st16" d="M1558.4,422.3c0,0-10.4,4.6-5.4,14.2c5,9.5,20.5,14.1,27.1,10.8C1580.2,447.2,1559.2,437.8,1558.4,422.3z
						"/>
					<path class="st4" d="M1567.8,408.6c0,0-9.4,3.2-9.4,13.7c0,10.5,11.5,21.4,21.7,25c10.2,3.6,20.4-1.7,20.4-1.7
						s-26.9-7.4-31.2-26.2C1568.4,415.3,1567.8,408.6,1567.8,408.6z"/>
					<path class="st16" d="M1613.6,441.6C1613.6,441.6,1613.6,441.6,1613.6,441.6c-0.3,2.5-2.6,4.8-8.3,4.5c-1.7-0.1-3.4-0.3-5-0.5
						c-8.6-1.3-15.2-4.6-20.2-8.6c-2.3-1.9-4.3-3.9-6-6c-4.7-5.8-6.9-12-7.3-15.6c-0.3-2.7,0.2-4.9,1-6.7c1.6-3.6,4.5-5.3,4.5-5.3
						c0,0.2,0,0.3,0,0.5c0.5,7.7,3.6,13.7,7.8,18.3c0.2,0.2,0.4,0.4,0.6,0.7c0,0,0.1,0.1,0.1,0.1c1.2,1.2,2.4,2.3,3.7,3.4
						c0,0,0,0,0,0c2.4,1.9,4.9,3.5,7.4,4.7c7.7,4,15,5.4,16.5,5.3c0,0,0.1,0,0.1,0c0.2,0,0.4,0,0.6,0
						C1612,436.7,1613.8,439.2,1613.6,441.6z"/>
					<path class="st4" d="M1609.3,436.4c-0.1,0-0.3,0.1-0.4,0.1c-3.6,0.9-9.6,0.1-18-5.5c-2-1.3-4-2.8-6.2-4.7c0,0,0,0,0,0
						c-1.4-1.2-2.6-2.3-3.7-3.4c0,0-0.1-0.1-0.1-0.1c-0.2-0.2-0.4-0.4-0.6-0.6c-7.9-8.2-8.6-14.5-7.8-18.4c0.6-2.9,2.1-4.4,2.1-4.4
						c0,0,0,0,0,0c0.4,2.4,1.2,4.6,2.4,6.5c0.9,1.6,2.1,3,3.3,4.2c6.7,6.7,16.8,8.8,16.8,8.8c0.7,0.1,1.4,0.3,2.1,0.5
						c5.7,2.1,12.5,8.8,13.7,12.3C1613.3,433.5,1612.1,435.5,1609.3,436.4z"/>
					<path class="st16" d="M1599.1,419.6c-0.8,1.5-3.1,2.2-8.3,0.6c-4.6-1.5-8.1-4.8-10.6-8.3c-1.4-2-2.5-4-3.3-5.8
						c-1.6-3.4-2.3-6.1-2.4-6.5c0,0,0,0,0,0c1.9,2,3.8,3.5,5.7,4.6c6.7,3.8,13.5,3.7,17.3,8.7
						C1598.4,413.9,1600.1,417.5,1599.1,419.6z"/>
				</g>
				<g>
					<g>
						<g>
							<path class="st17" d="M1608,457.1l-0.7,4.6l-0.5,3.2l-5.2,34h-9.5l2.7-31.4l0.5-5.8l0.4-4.9v0l0.1-0.7
								c0.2-2.4,2.2-4.2,4.6-4.2h3.2C1606.3,451.9,1608.4,454.3,1608,457.1z"/>
							<g>
								<path class="st17" d="M1586.4,456.6l-0.2,5.1l-0.2,4.8l-1.1,32.4h-9.5l-1.1-32.5l-0.2-4.7l-0.2-5.1c-0.1-2.6,2-4.7,4.6-4.7
									h3.2C1584.4,451.9,1586.5,454,1586.4,456.6z"/>
							</g>
							<path class="st18" d="M1595.7,456.8L1595.7,456.8l-0.4,4.9l-0.5,5.8l-2.7,31.4h-7.1l1.1-32.4l0.2-4.8l0.2-5.1l0-0.3
								c0.1-2.5,2.1-4.4,4.6-4.4h0.1C1593.8,451.9,1595.9,454.2,1595.7,456.8z"/>
							<path class="st18" d="M1617.2,457.4l-0.4,2.1l-0.4,2.2l-1.2,6.2l-4.9,24c-0.8,4.1-4.4,7-8.6,7l5.2-34l0.5-3.2l0.7-4.6
								l0.2-1.3c0.2-1.1,0.7-2.1,1.5-2.8c0.8-0.7,1.9-1.1,3-1.1c2,0,3.7,1.3,4.3,3v0c0,0.1,0,0.1,0.1,0.2
								C1617.3,455.8,1617.4,456.6,1617.2,457.4z"/>
						</g>
						<g>
							<path class="st17" d="M1564.7,456.1l3.6,42.8h-9.5l-6.3-41.8c-0.4-2.8,1.7-5.3,4.5-5.3h3.2
								C1562.5,451.9,1564.5,453.7,1564.7,456.1z"/>
							<path class="st18" d="M1574,456.3l1.4,42.6h-7.1l-3.6-42.1c-0.2-2.7,1.9-5,4.6-5h0.1C1571.9,451.9,1574,453.8,1574,456.3z"/>
							<path class="st18" d="M1552.3,455.8l6.6,43.1c-4.2,0-7.7-2.9-8.6-7l-7-34.5c-0.6-2.8,1.6-5.5,4.5-5.5l0,0
								C1550,451.9,1551.9,453.5,1552.3,455.8z"/>
						</g>
					</g>
				</g>
			</g>
		</g>
	</g>
</g>
<rect x="905.6" y="-1.4" class="st6" width="400.3" height="301.2"/>
<g>
	<path class="st7" d="M1285.8,304.5c0,1.3-0.1,2.5-0.3,3.8l-0.4,2.8h-72.2v0l-0.4-2.8c-0.2-1.3-0.3-2.5-0.3-3.8c0,0,0,0,0,0
		c0-0.7,0-1.5,0.1-2.2c0.2-3.3,1-6.4,2.3-9.2c0.5-1.1,1.2-2.2,1.9-3.2c1.2-1.7,2.7-3.2,4.4-4.3c0.2-0.2,0.5-0.3,0.7-0.5
		c0.3-0.2,0.5-0.3,0.8-0.5c0.2-0.1,0.5-0.3,0.7-0.4c2.2-1.2,4.7-2.1,7.2-2.8c0.1,0,0.1,0,0.2-0.1c1.9-0.5,3.8-0.8,5.8-1
		c0,0,0,0,0.1,0c1-0.1,2.1-0.1,3.2-0.1h8.2c0,0,0,0,0,0h10.8c0.4,0,0.8,0,1.2,0c0.4,0,0.8,0,1.1,0c0.3,0,0.6,0,0.9,0.1
		c0,0,0,0,0.1,0c1.3,0.1,2.6,0.3,3.8,0.5c0.3,0,0.6,0.1,0.8,0.2c0,0,0,0,0,0c3.4,0.7,6.6,1.9,9.4,3.5c0.4,0.2,0.8,0.4,1.1,0.7
		c0.1,0,0.1,0.1,0.2,0.1c0.1,0.1,0.3,0.2,0.4,0.3c0.1,0,0.1,0.1,0.2,0.1c1.9,1.3,3.5,3.1,4.7,5.1c0,0,0,0,0,0c0.4,0.7,0.8,1.3,1.1,2
		c1.3,2.7,2.1,5.9,2.3,9.1v0C1285.8,303,1285.9,303.7,1285.8,304.5z"/>
	<path class="st12" d="M1220.5,281.3c0,0-6.6,1.8-4.4,7.9c2.2,6.1,14,7.2,16.1,5.7L1220.5,281.3z"/>
	<path class="st13" d="M1227.2,271.7c0,0-10.4,4.6-5.4,14.2s20.5,14.1,27.1,10.8C1248.9,296.6,1227.9,287.2,1227.2,271.7z"/>
	<path class="st12" d="M1236.6,258c0,0-9.4,3.2-9.4,13.7c0,10.5,11.5,21.4,21.7,25s20.4-1.7,20.4-1.7s-26.9-7.4-31.2-26.2
		C1237.2,264.7,1236.6,258,1236.6,258z"/>
	<path class="st13" d="M1282.3,291C1282.3,291,1282.3,291,1282.3,291c-0.3,2.5-2.6,4.8-8.3,4.5c-1.7-0.1-3.4-0.3-5-0.5
		c-8.6-1.3-15.2-4.6-20.2-8.6c-2.3-1.9-4.3-3.9-6-6c-4.7-5.8-6.9-12-7.3-15.6c-0.3-2.7,0.2-4.9,1-6.7c1.6-3.6,4.5-5.3,4.5-5.3
		c0,0.2,0,0.3,0,0.5c0.5,7.7,3.6,13.7,7.8,18.3c0.2,0.2,0.4,0.4,0.6,0.7c0,0,0.1,0.1,0.1,0.1c1.2,1.2,2.4,2.3,3.7,3.4c0,0,0,0,0,0
		c2.4,1.9,4.9,3.5,7.4,4.7c7.7,4,15,5.4,16.5,5.3c0,0,0.1,0,0.1,0c0.2,0,0.4,0,0.6,0C1280.8,286.1,1282.6,288.6,1282.3,291z"/>
	<path class="st12" d="M1278,285.8c-0.1,0-0.3,0.1-0.4,0.1c-3.6,0.9-9.6,0.1-18-5.5c-2-1.3-4-2.8-6.2-4.7c0,0,0,0,0,0
		c-1.4-1.2-2.6-2.3-3.7-3.4c0,0-0.1-0.1-0.1-0.1c-0.2-0.2-0.4-0.4-0.6-0.6c-7.9-8.2-8.6-14.5-7.8-18.4c0.6-2.9,2.1-4.4,2.1-4.4
		c0,0,0,0,0,0c0.4,2.4,1.2,4.6,2.4,6.5c0.9,1.6,2.1,3,3.3,4.2c6.7,6.7,16.8,8.8,16.8,8.8c0.7,0.1,1.4,0.3,2.1,0.5
		c5.7,2.1,12.5,8.8,13.7,12.3C1282,282.9,1280.9,284.9,1278,285.8z"/>
	<path class="st13" d="M1267.8,269c-0.8,1.5-3.1,2.2-8.3,0.6c-4.6-1.5-8.1-4.8-10.6-8.3c-1.4-2-2.5-4-3.3-5.8
		c-1.6-3.4-2.3-6.1-2.4-6.5c0,0,0,0,0,0c1.9,2,3.8,3.5,5.7,4.6c6.7,3.8,13.5,3.7,17.3,8.7C1267.2,263.3,1268.9,266.9,1267.8,269z"/>
	<path class="st14" d="M1276.8,306.5l-0.7,4.6l-0.5,3.2l-5.2,34h-9.5l2.7-31.4l0.5-5.8l0.4-4.9v0l0.1-0.7c0.2-2.4,2.2-4.2,4.6-4.2
		h3.2C1275,301.3,1277.1,303.7,1276.8,306.5z"/>
	<path class="st14" d="M1255.2,306l-0.2,5.1l-0.2,4.8l-1.1,32.4h-9.5l-1.1-32.5l-0.2-4.7l-0.2-5.1c-0.1-2.6,2-4.7,4.6-4.7h3.2
		C1253.2,301.3,1255.2,303.4,1255.2,306z"/>
	<path class="st15" d="M1264.4,306.2L1264.4,306.2l-0.4,4.9l-0.5,5.8l-2.7,31.4h-7.1l1.1-32.4l0.2-4.8l0.2-5.1l0-0.3
		c0.1-2.5,2.1-4.4,4.6-4.4h0.1C1262.5,301.3,1264.6,303.6,1264.4,306.2z"/>
	<path class="st15" d="M1286,306.8l-0.4,2.1l-0.4,2.2l-1.2,6.2l-4.9,24c-0.8,4.1-4.4,7-8.6,7l5.2-34l0.5-3.2l0.7-4.6l0.2-1.3
		c0.2-1.1,0.7-2.1,1.5-2.8c0.8-0.7,1.9-1.1,3-1.1c2,0,3.7,1.3,4.3,3v0c0,0.1,0,0.1,0.1,0.2C1286.1,305.2,1286.1,306,1286,306.8z"/>
	<path class="st14" d="M1233.5,305.5l3.6,42.8h-9.5l-6.3-41.8c-0.4-2.8,1.7-5.3,4.5-5.3h3.2C1231.3,301.3,1233.3,303.1,1233.5,305.5
		z"/>
	<path class="st15" d="M1242.8,305.7l1.4,42.6h-7.1l-3.6-42.1c-0.2-2.7,1.9-5,4.6-5h0.1C1240.7,301.3,1242.7,303.2,1242.8,305.7z"/>
	<path class="st15" d="M1221,305.2l6.6,43.1c-4.2,0-7.7-2.9-8.6-7l-7-34.5c-0.6-2.8,1.6-5.5,4.5-5.5h0
		C1218.7,301.3,1220.7,302.9,1221,305.2z"/>
	<path class="st7" d="M1176.6,306.6c0,1.3-0.1,2.5-0.3,3.8l-0.4,2.8h-72.2v0l-0.4-2.8c-0.2-1.3-0.3-2.5-0.3-3.8c0,0,0,0,0,0
		c0-0.7,0-1.5,0.1-2.2c0.2-3.3,1-6.4,2.3-9.2c0.5-1.1,1.2-2.2,1.9-3.2c1.2-1.7,2.7-3.2,4.4-4.3c0.2-0.2,0.5-0.3,0.7-0.5
		c0.3-0.2,0.5-0.3,0.8-0.5c0.2-0.1,0.5-0.3,0.7-0.4c2.2-1.2,4.7-2.1,7.2-2.8c0.1,0,0.1,0,0.2-0.1c1.9-0.5,3.8-0.8,5.8-1
		c0,0,0,0,0.1,0c1-0.1,2.1-0.1,3.2-0.1h8.2c0,0,0,0,0,0h10.8c0.4,0,0.8,0,1.2,0c0.4,0,0.8,0,1.1,0c0.3,0,0.6,0,0.9,0.1
		c0,0,0,0,0.1,0c1.3,0.1,2.6,0.3,3.8,0.5c0.3,0,0.6,0.1,0.8,0.2c0,0,0,0,0,0c3.4,0.7,6.6,1.9,9.4,3.5c0.4,0.2,0.8,0.4,1.1,0.7
		c0.1,0,0.1,0.1,0.2,0.1c0.1,0.1,0.3,0.2,0.4,0.3c0.1,0,0.1,0.1,0.2,0.1c1.9,1.3,3.5,3.1,4.7,5.1c0,0,0,0,0,0c0.4,0.7,0.8,1.3,1.1,2
		c1.3,2.7,2.1,5.9,2.3,9.1v0C1176.6,305.1,1176.7,305.8,1176.6,306.6z"/>
	<path class="st8" d="M1111.3,283.4c0,0-6.6,1.8-4.4,7.9c2.2,6.1,14,7.2,16.1,5.7L1111.3,283.4z"/>
	<path class="st9" d="M1118,273.8c0,0-10.4,4.6-5.4,14.2c5,9.5,20.5,14.1,27.1,10.8C1139.7,298.7,1118.7,289.3,1118,273.8z"/>
	<path class="st8" d="M1127.4,260.1c0,0-9.4,3.2-9.4,13.7c0,10.5,11.5,21.4,21.7,25c10.2,3.6,20.4-1.7,20.4-1.7s-26.9-7.4-31.2-26.2
		C1128,266.8,1127.4,260.1,1127.4,260.1z"/>
	<path class="st9" d="M1173.1,293.1C1173.1,293.1,1173.1,293.1,1173.1,293.1c-0.3,2.5-2.6,4.8-8.3,4.5c-1.7-0.1-3.4-0.3-5-0.5
		c-8.6-1.3-15.2-4.6-20.2-8.6c-2.3-1.9-4.3-3.9-6-6c-4.7-5.8-6.9-12-7.3-15.6c-0.3-2.7,0.2-4.9,1-6.7c1.6-3.6,4.5-5.3,4.5-5.3
		c0,0.2,0,0.3,0,0.5c0.5,7.7,3.6,13.7,7.8,18.3c0.2,0.2,0.4,0.4,0.6,0.7c0,0,0.1,0.1,0.1,0.1c1.2,1.2,2.4,2.3,3.7,3.4c0,0,0,0,0,0
		c2.4,1.9,4.9,3.5,7.4,4.7c7.7,4,15,5.4,16.5,5.3c0,0,0.1,0,0.1,0c0.2,0,0.4,0,0.6,0C1171.6,288.2,1173.4,290.7,1173.1,293.1z"/>
	<path class="st8" d="M1168.8,287.9c-0.1,0-0.3,0.1-0.4,0.1c-3.6,0.9-9.6,0.1-18-5.5c-2-1.3-4-2.8-6.2-4.7c0,0,0,0,0,0
		c-1.4-1.2-2.6-2.3-3.7-3.4c0,0-0.1-0.1-0.1-0.1c-0.2-0.2-0.4-0.4-0.6-0.6c-7.9-8.2-8.6-14.5-7.8-18.4c0.6-2.9,2.1-4.4,2.1-4.4
		c0,0,0,0,0,0c0.4,2.4,1.2,4.6,2.4,6.5c0.9,1.6,2.1,3,3.3,4.2c6.7,6.7,16.8,8.8,16.8,8.8c0.7,0.1,1.4,0.3,2.1,0.5
		c5.7,2.1,12.5,8.8,13.7,12.3C1172.8,285,1171.7,287,1168.8,287.9z"/>
	<path class="st9" d="M1158.6,271.1c-0.8,1.5-3.1,2.2-8.3,0.6c-4.6-1.5-8.1-4.8-10.6-8.3c-1.4-2-2.5-4-3.3-5.8
		c-1.6-3.4-2.3-6.1-2.4-6.5c0,0,0,0,0,0c1.9,2,3.8,3.5,5.7,4.6c6.7,3.8,13.5,3.7,17.3,8.7C1158,265.4,1159.7,269,1158.6,271.1z"/>
	<path class="st10" d="M1167.6,308.6l-0.7,4.6l-0.5,3.2l-5.2,34h-9.5l2.7-31.4l0.5-5.8l0.4-4.9v0l0.1-0.7c0.2-2.4,2.2-4.2,4.6-4.2
		h3.2C1165.8,303.4,1167.9,305.9,1167.6,308.6z"/>
	<path class="st10" d="M1146,308.1l-0.2,5.1l-0.2,4.8l-1.1,32.4h-9.5l-1.1-32.5l-0.2-4.7l-0.2-5.1c-0.1-2.6,2-4.7,4.6-4.7h3.2
		C1144,303.4,1146,305.5,1146,308.1z"/>
	<path class="st11" d="M1155.2,308.3L1155.2,308.3l-0.4,4.9l-0.5,5.8l-2.7,31.4h-7.1l1.1-32.4l0.2-4.8l0.2-5.1l0-0.3
		c0.1-2.5,2.1-4.4,4.6-4.4h0.1C1153.3,303.4,1155.4,305.7,1155.2,308.3z"/>
	<path class="st11" d="M1176.8,308.9l-0.4,2.1l-0.4,2.2l-1.2,6.2l-4.9,24c-0.8,4.1-4.4,7-8.6,7l5.2-34l0.5-3.2l0.7-4.6l0.2-1.3
		c0.2-1.1,0.7-2.1,1.5-2.8c0.8-0.7,1.9-1.1,3-1.1c2,0,3.7,1.3,4.3,3v0c0,0.1,0,0.1,0.1,0.2C1176.9,307.3,1176.9,308.1,1176.8,308.9z
		"/>
	<path class="st10" d="M1124.2,307.6l3.6,42.8h-9.5l-6.3-41.8c-0.4-2.8,1.7-5.3,4.5-5.3h3.2C1122.1,303.4,1124,305.2,1124.2,307.6z"
		/>
	<path class="st11" d="M1133.6,307.8l1.4,42.6h-7.1l-3.6-42.1c-0.2-2.7,1.9-5,4.6-5h0.1C1131.5,303.4,1133.5,305.4,1133.6,307.8z"/>
	<path class="st11" d="M1111.8,307.3l6.6,43.1c-4.2,0-7.7-2.9-8.6-7l-7-34.5c-0.6-2.8,1.6-5.5,4.5-5.5l0,0
		C1109.5,303.4,1111.5,305.1,1111.8,307.3z"/>
	<path class="st7" d="M1065.6,306.6c0,1.3-0.1,2.5-0.3,3.8l-0.4,2.8h-72.2v0l-0.4-2.8c-0.2-1.3-0.3-2.5-0.3-3.8c0,0,0,0,0,0
		c0-0.7,0-1.5,0.1-2.2c0.2-3.3,1-6.4,2.3-9.2c0.5-1.1,1.2-2.2,1.9-3.2c1.2-1.7,2.7-3.2,4.4-4.3c0.2-0.2,0.5-0.3,0.7-0.5
		c0.3-0.2,0.5-0.3,0.8-0.5c0.2-0.1,0.5-0.3,0.7-0.4c2.2-1.2,4.7-2.1,7.2-2.8c0.1,0,0.1,0,0.2-0.1c1.9-0.5,3.8-0.8,5.8-1
		c0,0,0,0,0.1,0c1-0.1,2.1-0.1,3.2-0.1h8.2c0,0,0,0,0,0h10.8c0.4,0,0.8,0,1.2,0c0.4,0,0.8,0,1.1,0c0.3,0,0.6,0,0.9,0.1
		c0,0,0,0,0.1,0c1.3,0.1,2.6,0.3,3.8,0.5c0.3,0,0.6,0.1,0.8,0.2c0,0,0,0,0,0c3.4,0.7,6.6,1.9,9.4,3.5c0.4,0.2,0.8,0.4,1.1,0.7
		c0.1,0,0.1,0.1,0.2,0.1c0.1,0.1,0.3,0.2,0.4,0.3c0.1,0,0.1,0.1,0.2,0.1c1.9,1.3,3.5,3.1,4.7,5.1c0,0,0,0,0,0c0.4,0.7,0.8,1.3,1.1,2
		c1.3,2.7,2.1,5.9,2.3,9.1v0C1065.6,305.1,1065.6,305.9,1065.6,306.6z"/>
	<path class="st4" d="M1000.2,283.5c0,0-6.6,1.8-4.4,7.9c2.2,6.1,14,7.2,16.1,5.7L1000.2,283.5z"/>
	<path class="st16" d="M1006.9,273.8c0,0-10.4,4.6-5.4,14.2c5,9.5,20.5,14.1,27.1,10.8C1028.6,298.8,1007.7,289.3,1006.9,273.8z"/>
	<path class="st4" d="M1016.3,260.1c0,0-9.4,3.2-9.4,13.7s11.5,21.4,21.7,25c10.2,3.6,20.4-1.7,20.4-1.7s-26.9-7.4-31.2-26.2
		C1016.9,266.8,1016.3,260.1,1016.3,260.1z"/>
	<path class="st16" d="M1062.1,293.2C1062.1,293.2,1062.1,293.2,1062.1,293.2c-0.3,2.5-2.6,4.8-8.3,4.5c-1.7-0.1-3.4-0.3-5-0.5
		c-8.6-1.3-15.2-4.6-20.2-8.6c-2.3-1.9-4.3-3.9-6-6c-4.7-5.8-6.9-12-7.3-15.6c-0.3-2.7,0.2-4.9,1-6.7c1.6-3.6,4.5-5.3,4.5-5.3
		c0,0.2,0,0.3,0,0.5c0.5,7.7,3.6,13.7,7.8,18.3c0.2,0.2,0.4,0.4,0.6,0.7c0,0,0.1,0.1,0.1,0.1c1.2,1.2,2.4,2.3,3.7,3.4c0,0,0,0,0,0
		c2.4,1.9,4.9,3.5,7.4,4.7c7.7,4,15,5.4,16.5,5.3c0,0,0.1,0,0.1,0c0.2,0,0.4,0,0.6,0C1060.5,288.2,1062.3,290.7,1062.1,293.2z"/>
	<path class="st4" d="M1057.7,287.9c-0.1,0-0.3,0.1-0.4,0.1c-3.6,0.9-9.6,0.1-18-5.5c-2-1.3-4-2.8-6.2-4.7c0,0,0,0,0,0
		c-1.4-1.2-2.6-2.3-3.7-3.4c0,0-0.1-0.1-0.1-0.1c-0.2-0.2-0.4-0.4-0.6-0.6c-7.9-8.2-8.6-14.5-7.8-18.4c0.6-2.9,2.1-4.4,2.1-4.4
		c0,0,0,0,0,0c0.4,2.4,1.2,4.6,2.4,6.5c0.9,1.6,2.1,3,3.3,4.2c6.7,6.7,16.8,8.8,16.8,8.8c0.7,0.1,1.4,0.3,2.1,0.5
		c5.7,2.1,12.5,8.8,13.7,12.3C1061.8,285,1060.6,287.1,1057.7,287.9z"/>
	<path class="st16" d="M1047.5,271.1c-0.8,1.5-3.1,2.2-8.3,0.6c-4.6-1.5-8.1-4.8-10.6-8.3c-1.4-2-2.5-4-3.3-5.8
		c-1.6-3.4-2.3-6.1-2.4-6.5c0,0,0,0,0,0c1.9,2,3.8,3.5,5.7,4.6c6.7,3.8,13.5,3.7,17.3,8.7C1046.9,265.5,1048.6,269.1,1047.5,271.1z"
		/>
	<path class="st17" d="M1056.5,308.6l-0.7,4.6l-0.5,3.2l-5.2,34h-9.5l2.7-31.4l0.5-5.8l0.4-4.9v0l0.1-0.7c0.2-2.4,2.2-4.2,4.6-4.2
		h3.2C1054.7,303.4,1056.9,305.9,1056.5,308.6z"/>
	<path class="st17" d="M1034.9,308.2l-0.2,5.1l-0.2,4.8l-1.1,32.4h-9.5l-1.1-32.5l-0.2-4.7l-0.2-5.1c-0.1-2.6,2-4.7,4.6-4.7h3.2
		C1032.9,303.4,1035,305.6,1034.9,308.2z"/>
	<path class="st18" d="M1044.2,308.4L1044.2,308.4l-0.4,4.9l-0.5,5.8l-2.7,31.4h-7.1l1.1-32.4l0.2-4.8l0.2-5.1l0-0.3
		c0.1-2.5,2.1-4.4,4.6-4.4h0.1C1042.3,303.4,1044.4,305.7,1044.2,308.4z"/>
	<path class="st18" d="M1065.7,308.9l-0.4,2.1l-0.4,2.2l-1.2,6.2l-4.9,24c-0.8,4.1-4.4,7-8.6,7l5.2-34l0.5-3.2l0.7-4.6l0.2-1.3
		c0.2-1.1,0.7-2.1,1.5-2.8c0.8-0.7,1.9-1.1,3-1.1c2,0,3.7,1.3,4.3,3v0c0,0.1,0,0.1,0.1,0.2C1065.8,307.3,1065.9,308.1,1065.7,308.9z
		"/>
	<path class="st17" d="M1013.2,307.6l3.6,42.8h-9.5l-6.3-41.8c-0.4-2.8,1.7-5.3,4.5-5.3h3.2C1011,303.4,1013,305.2,1013.2,307.6z"/>
	<path class="st18" d="M1022.5,307.8l1.4,42.6h-7.1l-3.6-42.1c-0.2-2.7,1.9-5,4.6-5h0.1C1020.4,303.4,1022.4,305.4,1022.5,307.8z"/>
	<path class="st18" d="M1000.7,307.3l6.6,43.1c-4.2,0-7.7-2.9-8.6-7l-7-34.5c-0.6-2.8,1.6-5.5,4.5-5.5l0,0
		C998.5,303.4,1000.4,305.1,1000.7,307.3z"/>
	<path class="st7" d="M1617.3,304.5c0,1.3-0.1,2.5-0.3,3.8l-0.4,2.8h-72.2v0l-0.4-2.8c-0.2-1.3-0.3-2.5-0.3-3.8c0,0,0,0,0,0
		c0-0.7,0-1.5,0.1-2.2c0.2-3.3,1-6.4,2.3-9.2c0.5-1.1,1.2-2.2,1.9-3.2c1.2-1.7,2.7-3.2,4.4-4.3c0.2-0.2,0.5-0.3,0.7-0.5
		c0.3-0.2,0.5-0.3,0.8-0.5c0.2-0.1,0.5-0.3,0.7-0.4c2.2-1.2,4.7-2.1,7.2-2.8c0.1,0,0.1,0,0.2-0.1c1.9-0.5,3.8-0.8,5.8-1
		c0,0,0,0,0.1,0c1-0.1,2.1-0.1,3.2-0.1h8.2c0,0,0,0,0,0h10.8c0.4,0,0.8,0,1.2,0c0.4,0,0.8,0,1.1,0c0.3,0,0.6,0,0.9,0.1
		c0,0,0,0,0.1,0c1.3,0.1,2.6,0.3,3.8,0.5c0.3,0,0.6,0.1,0.8,0.2c0,0,0,0,0,0c3.4,0.7,6.6,1.9,9.4,3.5c0.4,0.2,0.8,0.4,1.1,0.7
		c0.1,0,0.1,0.1,0.2,0.1c0.1,0.1,0.3,0.2,0.4,0.3c0.1,0,0.1,0.1,0.2,0.1c1.9,1.3,3.5,3.1,4.7,5.1c0,0,0,0,0,0c0.4,0.7,0.8,1.3,1.1,2
		c1.3,2.7,2.1,5.9,2.3,9.1v0C1617.3,303,1617.3,303.7,1617.3,304.5z"/>
	<path class="st12" d="M1551.9,281.3c0,0-6.6,1.8-4.4,7.9c2.2,6.1,14,7.2,16.1,5.7L1551.9,281.3z"/>
	<path class="st13" d="M1558.7,271.7c0,0-10.4,4.6-5.4,14.2s20.5,14.1,27.1,10.8C1580.4,296.6,1559.4,287.2,1558.7,271.7z"/>
	<path class="st12" d="M1568.1,258c0,0-9.4,3.2-9.4,13.7c0,10.5,11.5,21.4,21.7,25s20.4-1.7,20.4-1.7s-26.9-7.4-31.2-26.2
		C1568.7,264.7,1568.1,258,1568.1,258z"/>
	<path class="st13" d="M1613.8,291C1613.8,291,1613.8,291,1613.8,291c-0.3,2.5-2.6,4.8-8.3,4.5c-1.7-0.1-3.4-0.3-5-0.5
		c-8.6-1.3-15.2-4.6-20.2-8.6c-2.3-1.9-4.3-3.9-6-6c-4.7-5.8-6.9-12-7.3-15.6c-0.3-2.7,0.2-4.9,1-6.7c1.6-3.6,4.5-5.3,4.5-5.3
		c0,0.2,0,0.3,0,0.5c0.5,7.7,3.6,13.7,7.8,18.3c0.2,0.2,0.4,0.4,0.6,0.7c0,0,0.1,0.1,0.1,0.1c1.2,1.2,2.4,2.3,3.7,3.4c0,0,0,0,0,0
		c2.4,1.9,4.9,3.5,7.4,4.7c7.7,4,15,5.4,16.5,5.3c0,0,0.1,0,0.1,0c0.2,0,0.4,0,0.6,0C1612.3,286.1,1614.1,288.6,1613.8,291z"/>
	<path class="st12" d="M1609.5,285.8c-0.1,0-0.3,0.1-0.4,0.1c-3.6,0.9-9.6,0.1-18-5.5c-2-1.3-4-2.8-6.2-4.7c0,0,0,0,0,0
		c-1.4-1.2-2.6-2.3-3.7-3.4c0,0-0.1-0.1-0.1-0.1c-0.2-0.2-0.4-0.4-0.6-0.6c-7.9-8.2-8.6-14.5-7.8-18.4c0.6-2.9,2.1-4.4,2.1-4.4
		c0,0,0,0,0,0c0.4,2.4,1.2,4.6,2.4,6.5c0.9,1.6,2.1,3,3.3,4.2c6.7,6.7,16.8,8.8,16.8,8.8c0.7,0.1,1.4,0.3,2.1,0.5
		c5.7,2.1,12.5,8.8,13.7,12.3C1613.5,282.9,1612.3,284.9,1609.5,285.8z"/>
	<path class="st13" d="M1599.3,269c-0.8,1.5-3.1,2.2-8.3,0.6c-4.6-1.5-8.1-4.8-10.6-8.3c-1.4-2-2.5-4-3.3-5.8
		c-1.6-3.4-2.3-6.1-2.4-6.5c0,0,0,0,0,0c1.9,2,3.8,3.5,5.7,4.6c6.7,3.8,13.5,3.7,17.3,8.7C1598.6,263.3,1600.4,266.9,1599.3,269z"/>
	<path class="st14" d="M1608.2,306.5l-0.7,4.6l-0.5,3.2l-5.2,34h-9.5l2.7-31.4l0.5-5.8l0.4-4.9v0l0.1-0.7c0.2-2.4,2.2-4.2,4.6-4.2
		h3.2C1606.5,301.3,1608.6,303.7,1608.2,306.5z"/>
	<path class="st14" d="M1586.6,306l-0.2,5.1l-0.2,4.8l-1.1,32.4h-9.5l-1.1-32.5l-0.2-4.7l-0.2-5.1c-0.1-2.6,2-4.7,4.6-4.7h3.2
		C1584.7,301.3,1586.7,303.4,1586.6,306z"/>
	<path class="st15" d="M1595.9,306.2L1595.9,306.2l-0.4,4.9l-0.5,5.8l-2.7,31.4h-7.1l1.1-32.4l0.2-4.8l0.2-5.1l0-0.3
		c0.1-2.5,2.1-4.4,4.6-4.4h0.1C1594,301.3,1596.1,303.6,1595.9,306.2z"/>
	<path class="st15" d="M1617.5,306.8l-0.4,2.1l-0.4,2.2l-1.2,6.2l-4.9,24c-0.8,4.1-4.4,7-8.6,7l5.2-34l0.5-3.2l0.7-4.6l0.2-1.3
		c0.2-1.1,0.7-2.1,1.5-2.8c0.8-0.7,1.9-1.1,3-1.1c2,0,3.7,1.3,4.3,3v0c0,0.1,0,0.1,0.1,0.2C1617.6,305.2,1617.6,306,1617.5,306.8z"
		/>
	<path class="st14" d="M1564.9,305.5l3.6,42.8h-9.5l-6.3-41.8c-0.4-2.8,1.7-5.3,4.5-5.3h3.2C1562.8,301.3,1564.7,303.1,1564.9,305.5
		z"/>
	<path class="st15" d="M1574.3,305.7l1.4,42.6h-7.1l-3.6-42.1c-0.2-2.7,1.9-5,4.6-5h0.1C1572.2,301.3,1574.2,303.2,1574.3,305.7z"/>
	<path class="st15" d="M1552.5,305.2l6.6,43.1c-4.2,0-7.7-2.9-8.6-7l-7-34.5c-0.6-2.8,1.6-5.5,4.5-5.5l0,0
		C1550.2,301.3,1552.1,302.9,1552.5,305.2z"/>
	<path class="st7" d="M1508.1,306.6c0,1.3-0.1,2.5-0.3,3.8l-0.4,2.8h-72.2v0l-0.4-2.8c-0.2-1.3-0.3-2.5-0.3-3.8c0,0,0,0,0,0
		c0-0.7,0-1.5,0.1-2.2c0.2-3.3,1-6.4,2.3-9.2c0.5-1.1,1.2-2.2,1.9-3.2c1.2-1.7,2.7-3.2,4.4-4.3c0.2-0.2,0.5-0.3,0.7-0.5
		c0.3-0.2,0.5-0.3,0.8-0.5c0.2-0.1,0.5-0.3,0.7-0.4c2.2-1.2,4.7-2.1,7.2-2.8c0.1,0,0.1,0,0.2-0.1c1.9-0.5,3.8-0.8,5.8-1
		c0,0,0,0,0.1,0c1-0.1,2.1-0.1,3.2-0.1h8.2c0,0,0,0,0,0h10.8c0.4,0,0.8,0,1.2,0c0.4,0,0.8,0,1.1,0c0.3,0,0.6,0,0.9,0.1
		c0,0,0,0,0.1,0c1.3,0.1,2.6,0.3,3.8,0.5c0.3,0,0.6,0.1,0.8,0.2c0,0,0,0,0,0c3.4,0.7,6.6,1.9,9.4,3.5c0.4,0.2,0.8,0.4,1.1,0.7
		c0.1,0,0.1,0.1,0.2,0.1c0.1,0.1,0.3,0.2,0.4,0.3c0.1,0,0.1,0.1,0.2,0.1c1.9,1.3,3.5,3.1,4.7,5.1c0,0,0,0,0,0c0.4,0.7,0.8,1.3,1.1,2
		c1.3,2.7,2.1,5.9,2.3,9.1v0C1508.1,305.1,1508.1,305.8,1508.1,306.6z"/>
	<path class="st8" d="M1442.7,283.4c0,0-6.6,1.8-4.4,7.9s14,7.2,16.1,5.7L1442.7,283.4z"/>
	<path class="st9" d="M1449.5,273.8c0,0-10.4,4.6-5.4,14.2c5,9.5,20.5,14.1,27.1,10.8C1471.2,298.7,1450.2,289.3,1449.5,273.8z"/>
	<path class="st8" d="M1458.9,260.1c0,0-9.4,3.2-9.4,13.7c0,10.5,11.5,21.4,21.7,25c10.2,3.6,20.4-1.7,20.4-1.7s-26.9-7.4-31.2-26.2
		C1459.4,266.8,1458.9,260.1,1458.9,260.1z"/>
	<path class="st9" d="M1504.6,293.1C1504.6,293.1,1504.6,293.1,1504.6,293.1c-0.3,2.5-2.6,4.8-8.3,4.5c-1.7-0.1-3.4-0.3-5-0.5
		c-8.6-1.3-15.2-4.6-20.2-8.6c-2.3-1.9-4.3-3.9-6-6c-4.7-5.8-6.9-12-7.3-15.6c-0.3-2.7,0.2-4.9,1-6.7c1.6-3.6,4.5-5.3,4.5-5.3
		c0,0.2,0,0.3,0,0.5c0.5,7.7,3.6,13.7,7.8,18.3c0.2,0.2,0.4,0.4,0.6,0.7c0,0,0.1,0.1,0.1,0.1c1.2,1.2,2.4,2.3,3.7,3.4c0,0,0,0,0,0
		c2.4,1.9,4.9,3.5,7.4,4.7c7.7,4,15,5.4,16.5,5.3c0,0,0.1,0,0.1,0c0.2,0,0.4,0,0.6,0C1503.1,288.2,1504.9,290.7,1504.6,293.1z"/>
	<path class="st8" d="M1500.3,287.9c-0.1,0-0.3,0.1-0.4,0.1c-3.6,0.9-9.6,0.1-18-5.5c-2-1.3-4-2.8-6.2-4.7c0,0,0,0,0,0
		c-1.4-1.2-2.6-2.3-3.7-3.4c0,0-0.1-0.1-0.1-0.1c-0.2-0.2-0.4-0.4-0.6-0.6c-7.9-8.2-8.6-14.5-7.8-18.4c0.6-2.9,2.1-4.4,2.1-4.4
		c0,0,0,0,0,0c0.4,2.4,1.2,4.6,2.4,6.5c0.9,1.6,2.1,3,3.3,4.2c6.7,6.7,16.8,8.8,16.8,8.8c0.7,0.1,1.4,0.3,2.1,0.5
		c5.7,2.1,12.5,8.8,13.7,12.3C1504.3,285,1503.1,287,1500.3,287.9z"/>
	<path class="st9" d="M1490.1,271.1c-0.8,1.5-3.1,2.2-8.3,0.6c-4.6-1.5-8.1-4.8-10.6-8.3c-1.4-2-2.5-4-3.3-5.8
		c-1.6-3.4-2.3-6.1-2.4-6.5c0,0,0,0,0,0c1.9,2,3.8,3.5,5.7,4.6c6.7,3.8,13.5,3.7,17.3,8.7C1489.4,265.4,1491.2,269,1490.1,271.1z"/>
	<path class="st10" d="M1499,308.6l-0.7,4.6l-0.5,3.2l-5.2,34h-9.5l2.7-31.4l0.5-5.8l0.4-4.9v0l0.1-0.7c0.2-2.4,2.2-4.2,4.6-4.2h3.2
		C1497.3,303.4,1499.4,305.9,1499,308.6z"/>
	<path class="st10" d="M1477.4,308.1l-0.2,5.1l-0.2,4.8l-1.1,32.4h-9.5l-1.1-32.5l-0.2-4.7l-0.2-5.1c-0.1-2.6,2-4.7,4.6-4.7h3.2
		C1475.5,303.4,1477.5,305.5,1477.4,308.1z"/>
	<path class="st11" d="M1486.7,308.3L1486.7,308.3l-0.4,4.9l-0.5,5.8l-2.7,31.4h-7.1l1.1-32.4l0.2-4.8l0.2-5.1l0-0.3
		c0.1-2.5,2.1-4.4,4.6-4.4h0.1C1484.8,303.4,1486.9,305.7,1486.7,308.3z"/>
	<path class="st11" d="M1508.2,308.9l-0.4,2.1l-0.4,2.2l-1.2,6.2l-4.9,24c-0.8,4.1-4.4,7-8.6,7l5.2-34l0.5-3.2l0.7-4.6l0.2-1.3
		c0.2-1.1,0.7-2.1,1.5-2.8c0.8-0.7,1.9-1.1,3-1.1c2,0,3.7,1.3,4.3,3v0c0,0.1,0,0.1,0.1,0.2C1508.4,307.3,1508.4,308.1,1508.2,308.9z
		"/>
	<path class="st10" d="M1455.7,307.6l3.6,42.8h-9.5l-6.3-41.8c-0.4-2.8,1.7-5.3,4.5-5.3h3.2C1453.5,303.4,1455.5,305.2,1455.7,307.6
		z"/>
	<path class="st11" d="M1465.1,307.8l1.4,42.6h-7.1l-3.6-42.1c-0.2-2.7,1.9-5,4.6-5h0.1C1463,303.4,1465,305.4,1465.1,307.8z"/>
	<path class="st11" d="M1443.3,307.3l6.6,43.1c-4.2,0-7.7-2.9-8.6-7l-7-34.5c-0.6-2.8,1.6-5.5,4.5-5.5l0,0
		C1441,303.4,1442.9,305.1,1443.3,307.3z"/>
	<path class="st7" d="M1397.1,306.6c0,1.3-0.1,2.5-0.3,3.8l-0.4,2.8h-72.2v0l-0.4-2.8c-0.2-1.3-0.3-2.5-0.3-3.8c0,0,0,0,0,0
		c0-0.7,0-1.5,0.1-2.2c0.2-3.3,1-6.4,2.3-9.2c0.5-1.1,1.2-2.2,1.9-3.2c1.2-1.7,2.7-3.2,4.4-4.3c0.2-0.2,0.5-0.3,0.7-0.5
		c0.3-0.2,0.5-0.3,0.8-0.5c0.2-0.1,0.5-0.3,0.7-0.4c2.2-1.2,4.7-2.1,7.2-2.8c0.1,0,0.1,0,0.2-0.1c1.9-0.5,3.8-0.8,5.8-1
		c0,0,0,0,0.1,0c1-0.1,2.1-0.1,3.2-0.1h8.2c0,0,0,0,0,0h10.8c0.4,0,0.8,0,1.2,0c0.4,0,0.8,0,1.1,0c0.3,0,0.6,0,0.9,0.1
		c0,0,0,0,0.1,0c1.3,0.1,2.6,0.3,3.8,0.5c0.3,0,0.6,0.1,0.8,0.2c0,0,0,0,0,0c3.4,0.7,6.6,1.9,9.4,3.5c0.4,0.2,0.8,0.4,1.1,0.7
		c0.1,0,0.1,0.1,0.2,0.1c0.1,0.1,0.3,0.2,0.4,0.3c0.1,0,0.1,0.1,0.2,0.1c1.9,1.3,3.5,3.1,4.7,5.1c0,0,0,0,0,0c0.4,0.7,0.8,1.3,1.1,2
		c1.3,2.7,2.1,5.9,2.3,9.1v0C1397.1,305.1,1397.1,305.9,1397.1,306.6z"/>
	<path class="st4" d="M1331.7,283.5c0,0-6.6,1.8-4.4,7.9c2.2,6.1,14,7.2,16.1,5.7L1331.7,283.5z"/>
	<path class="st16" d="M1338.4,273.8c0,0-10.4,4.6-5.4,14.2c5,9.5,20.5,14.1,27.1,10.8C1360.1,298.8,1339.1,289.3,1338.4,273.8z"/>
	<path class="st4" d="M1347.8,260.1c0,0-9.4,3.2-9.4,13.7c0,10.5,11.5,21.4,21.7,25s20.4-1.7,20.4-1.7s-26.9-7.4-31.2-26.2
		C1348.4,266.8,1347.8,260.1,1347.8,260.1z"/>
	<path class="st16" d="M1393.6,293.2C1393.6,293.2,1393.6,293.2,1393.6,293.2c-0.3,2.5-2.6,4.8-8.3,4.5c-1.7-0.1-3.4-0.3-5-0.5
		c-8.6-1.3-15.2-4.6-20.2-8.6c-2.3-1.9-4.3-3.9-6-6c-4.7-5.8-6.9-12-7.3-15.6c-0.3-2.7,0.2-4.9,1-6.7c1.6-3.6,4.5-5.3,4.5-5.3
		c0,0.2,0,0.3,0,0.5c0.5,7.7,3.6,13.7,7.8,18.3c0.2,0.2,0.4,0.4,0.6,0.7c0,0,0.1,0.1,0.1,0.1c1.2,1.2,2.4,2.3,3.7,3.4c0,0,0,0,0,0
		c2.4,1.9,4.9,3.5,7.4,4.7c7.7,4,15,5.4,16.5,5.3c0,0,0.1,0,0.1,0c0.2,0,0.4,0,0.6,0C1392,288.2,1393.8,290.7,1393.6,293.2z"/>
	<path class="st4" d="M1389.2,287.9c-0.1,0-0.3,0.1-0.4,0.1c-3.6,0.9-9.6,0.1-18-5.5c-2-1.3-4-2.8-6.2-4.7c0,0,0,0,0,0
		c-1.4-1.2-2.6-2.3-3.7-3.4c0,0-0.1-0.1-0.1-0.1c-0.2-0.2-0.4-0.4-0.6-0.6c-7.9-8.2-8.6-14.5-7.8-18.4c0.6-2.9,2.1-4.4,2.1-4.4
		c0,0,0,0,0,0c0.4,2.4,1.2,4.6,2.4,6.5c0.9,1.6,2.1,3,3.3,4.2c6.7,6.7,16.8,8.8,16.8,8.8c0.7,0.1,1.4,0.3,2.1,0.5
		c5.7,2.1,12.5,8.8,13.7,12.3C1393.3,285,1392.1,287.1,1389.2,287.9z"/>
	<path class="st16" d="M1379,271.1c-0.8,1.5-3.1,2.2-8.3,0.6c-4.6-1.5-8.1-4.8-10.6-8.3c-1.4-2-2.5-4-3.3-5.8
		c-1.6-3.4-2.3-6.1-2.4-6.5c0,0,0,0,0,0c1.9,2,3.8,3.5,5.7,4.6c6.7,3.8,13.5,3.7,17.3,8.7C1378.4,265.5,1380.1,269.1,1379,271.1z"/>
	<path class="st17" d="M1388,308.6l-0.7,4.6l-0.5,3.2l-5.2,34h-9.5l2.7-31.4l0.5-5.8l0.4-4.9v0l0.1-0.7c0.2-2.4,2.2-4.2,4.6-4.2h3.2
		C1386.2,303.4,1388.4,305.9,1388,308.6z"/>
	<path class="st17" d="M1366.4,308.2l-0.2,5.1l-0.2,4.8l-1.1,32.4h-9.5l-1.1-32.5l-0.2-4.7l-0.2-5.1c-0.1-2.6,2-4.7,4.6-4.7h3.2
		C1364.4,303.4,1366.5,305.6,1366.4,308.2z"/>
	<path class="st18" d="M1375.7,308.4L1375.7,308.4l-0.4,4.9l-0.5,5.8l-2.7,31.4h-7.1l1.1-32.4l0.2-4.8l0.2-5.1l0-0.3
		c0.1-2.5,2.1-4.4,4.6-4.4h0.1C1373.8,303.4,1375.9,305.7,1375.7,308.4z"/>
	<path class="st18" d="M1397.2,308.9l-0.4,2.1l-0.4,2.2l-1.2,6.2l-4.9,24c-0.8,4.1-4.4,7-8.6,7l5.2-34l0.5-3.2l0.7-4.6l0.2-1.3
		c0.2-1.1,0.7-2.1,1.5-2.8c0.8-0.7,1.9-1.1,3-1.1c2,0,3.7,1.3,4.3,3v0c0,0.1,0,0.1,0.1,0.2C1397.3,307.3,1397.4,308.1,1397.2,308.9z
		"/>
	<path class="st17" d="M1344.7,307.6l3.6,42.8h-9.5l-6.3-41.8c-0.4-2.8,1.7-5.3,4.5-5.3h3.2C1342.5,303.4,1344.5,305.2,1344.7,307.6
		z"/>
	<path class="st18" d="M1354,307.8l1.4,42.6h-7.1l-3.6-42.1c-0.2-2.7,1.9-5,4.6-5h0.1C1351.9,303.4,1353.9,305.4,1354,307.8z"/>
	<path class="st18" d="M1332.2,307.3l6.6,43.1c-4.2,0-7.7-2.9-8.6-7l-7-34.5c-0.6-2.8,1.6-5.5,4.5-5.5l0,0
		C1330,303.4,1331.9,305.1,1332.2,307.3z"/>
</g>
</svg>
