<?xml version="1.0" encoding="utf-8"?>
<!-- Generator: Adobe Illustrator 20.0.0, SVG Export Plug-In . SVG Version: 6.00 Build 0)  -->
<svg version="1.1" id="Capa_1" xmlns="http://www.w3.org/2000/svg" xmlns:xlink="http://www.w3.org/1999/xlink" x="0px" y="0px"
	 viewBox="0 0 800 600" style="enable-background:new 0 0 800 600;" xml:space="preserve">
<style type="text/css">
	.st0{fill:#FFFFFF;}
	.st1{opacity:0.102;enable-background:new    ;}
	.st2{opacity:0.749;enable-background:new    ;}
	.st3{fill:#D70142;}
	.st4{fill:#BAE2F5;}
	.st5{fill:url(#SVGID_1_);}
	.st6{fill:none;}
	.st7{fill:#4D3C24;}
	.st8{fill:#E56156;}
	.st9{fill:#F9BA82;}
	.st10{fill:#D35F9C;}
	.st11{fill:#8C1B68;}
	.st12{fill:#F3A2B9;}
	.st13{fill:#A58ABF;}
	.st14{fill:#A9E3B4;}
	.st15{fill:#74B957;}
	.st16{fill:#6787B2;}
	.st17{fill:#5F73D3;}
	.st18{fill:#8C9FED;}
	.st19{fill:none;stroke:#FFFFFF;stroke-width:0.5;stroke-miterlimit:10;}
	.st20{fill:none;stroke:#FFFFFF;stroke-width:0.25;stroke-miterlimit:10;}
	.st21{fill:url(#SVGID_2_);}
</style>
<path class="st0" d="M-106,321v259c0,11-9,20-20,20h-760c-11,0-20-9-20-20V321H-106z"/>
<path class="st1" d="M-450,430h-52c-1.1,0-2-0.9-2-2v-2c0-1.1,0.9-2,2-2h52c1.1,0,2,0.9,2,2v2C-448,429.1-448.9,430-450,430z
	 M-566,430c-1.1,0-2-0.9-2-2v-2c0-1.1,0.9-2,2-2h40c1.1,0,2,0.9,2,2v2c0,1.1-0.9,2-2,2H-566z M-616,430c-1.1,0-2-0.9-2-2v-2
	c0-1.1,0.9-2,2-2h26c1.1,0,2,0.9,2,2v2c0,1.1-0.9,2-2,2H-616z M-680,430c-1.1,0-2-0.9-2-2v-2c0-1.1,0.9-2,2-2h40c1.1,0,2,0.9,2,2v2
	c0,1.1-0.9,2-2,2H-680z M-744,430c-1.1,0-2-0.9-2-2v-2c0-1.1,0.9-2,2-2h40c1.1,0,2,0.9,2,2v2c0,1.1-0.9,2-2,2H-744z M-786,430
	c-1.1,0-2-0.9-2-2v-2c0-1.1,0.9-2,2-2h18c1.1,0,2,0.9,2,2v2c0,1.1-0.9,2-2,2H-786z M-854,430c-1.1,0-2-0.9-2-2v-2c0-1.1,0.9-2,2-2
	h44c1.1,0,2,0.9,2,2v2c0,1.1-0.9,2-2,2H-854z"/>
<path class="st2" d="M-854,391h234c1.1,0,2,0.9,2,2v2c0,1.1-0.9,2-2,2h-234c-1.1,0-2-0.9-2-2v-2C-856,391.9-855.1,391-854,391z"/>
<path class="st3" d="M-906,20c0-11,9-20,20-20h760c11,0,20,9,20,20v318h-800V20z"/>
<path class="st4" d="M-723,218h-82c-1.1,0-2-0.9-2-2v-2c0-1.1,0.9-2,2-2h82c1.1,0,2,0.9,2,2v2C-721,217.1-721.9,218-723,218z
	 M-805,224h77c1.1,0,2,0.9,2,2v2c0,1.1-0.9,2-2,2h-77c-1.1,0-2-0.9-2-2v-2C-807,224.9-806.1,224-805,224z"/>
<path class="st4" d="M-854,212h25c1.1,0,2,0.9,2,2v14c0,1.1-0.9,2-2,2h-25c-1.1,0-2-0.9-2-2v-14C-856,212.9-855.1,212-854,212z"/>
<path class="st4" d="M-140,60h-77c-1.1,0-2-0.9-2-2v-2c0-1.1,0.9-2,2-2h77c1.1,0,2,0.9,2,2v2C-138,59.1-138.9,60-140,60z M-285,60
	c-1.1,0-2-0.9-2-2v-2c0-1.1,0.9-2,2-2h44c1.1,0,2,0.9,2,2v2c0,1.1-0.9,2-2,2H-285z M-349,60c-1.1,0-2-0.9-2-2v-2c0-1.1,0.9-2,2-2h40
	c1.1,0,2,0.9,2,2v2c0,1.1-0.9,2-2,2H-349z"/>
<linearGradient id="SVGID_1_" gradientUnits="userSpaceOnUse" x1="-905.9475" y1="5.0169" x2="-105.9475" y2="605.0168" gradientTransform="matrix(1 0 0 -1 0 602)">
	<stop  offset="0" style="stop-color:#FFFFFF;stop-opacity:0"/>
	<stop  offset="1" style="stop-color:#FFFFFF;stop-opacity:0.2"/>
</linearGradient>
<path class="st5" d="M-885.9-3h760c11,0,20,9,20,20v560c0,11-9,20-20,20h-760c-11,0-20-9-20-20V17C-905.9,6-896.9-3-885.9-3z"/>
<path class="st6" d="M-778,451.5c0.8,4.9,2.5,9.2,4.8,13C-776.3,457.7-777.8,452.3-778,451.5z"/>
<path class="st6" d="M-516,450.5c0.8,4.9,2.5,9.2,4.8,13C-514.3,456.7-515.8,451.3-516,450.5z"/>
<path class="st6" d="M-757.6,505.1c-2.8-2.3-5.2-4.6-7.5-6.8C-762.7,500.8-760.2,503-757.6,505.1z"/>
<polygon class="st6" points="-778.3,575.9 -778.4,575.9 -777.6,599.9 -777.5,599.9 -778,585.3 "/>
<path class="st6" d="M-495.6,504.1c-2.8-2.3-5.2-4.6-7.5-6.8C-500.7,499.8-498.2,502-495.6,504.1z"/>
<polygon class="st6" points="-516.3,574.9 -516.4,574.9 -515.5,599.9 -515.5,599.9 -516,584.3 "/>
<path class="st7" d="M-831.4,556.2c4.5,0,8.4,3.3,9.1,7.8l0.4,2.7c-0.8-5.5,3.4-10.5,9.1-10.5h6.3c4.8,0,8.7,3.6,9.1,8.4l0.1,1.5
	c-0.5-5.3,3.8-9.9,9.1-9.9h0.3c4.9,0,9,3.9,9.1,8.8l0.4,10.8h0.1l-0.3-10.2c-0.2-5.2,4-9.5,9.1-9.5h6.3c5.2,0,9.3,4.3,9.1,9.5l0-0.6
	c0.2-4.9,4.2-8.8,9.2-8.8h0.3c5.3,0,9.5,4.6,9.1,9.9l0.1-1.5c0.4-4.7,4.4-8.4,9.1-8.4h6.3c5.6,0,9.8,4.9,9.1,10.4l0.4-2.6
	c0.3-2.2,1.5-4.2,3.1-5.6c1.6-1.4,3.7-2.2,6-2.2c4,0,7.3,2.6,8.6,6v0c0,0.1,0.1,0.2,0.1,0.4c0-1.5,0-3-0.1-4.5v0
	c-0.5-6.5-2.1-12.8-4.7-18.3c-0.7-1.4-1.4-2.8-2.2-4.1c-0.5,4.9-5.3,9.5-16.5,8.9c-3.4-0.2-6.7-0.5-9.9-1c0,0,0,0,0,0
	c-2.9,1.4-21.7,9.9-40.4,3.3c-7.7,3.8-21.5,2.3-33.6-3.4l0,0c-4,2.8-25.9,0.8-31.5-10.1c0,0,0,0,0,0c-1.4,2-2.7,4.1-3.8,6.4
	c-2.6,5.5-4.2,11.8-4.6,18.4c-0.1,1.5-0.1,3-0.1,4.5c0,0,0,0,0,0c0,0,0,0,0,0C-838.9,559-835.5,556.2-831.4,556.2z"/>
<path class="st8" d="M-822.7,524.9c0.5-0.3,1-0.6,1.5-0.9c0,0,0,0,0,0c-1.3-2.8-1.9-5.4-2.1-7.7l0,0c0,0-13.2,3.6-8.8,15.7
	c0.2,0.5,0.4,1,0.6,1.4C-829.1,530-826.1,527.1-822.7,524.9z"/>
<path class="st8" d="M-800.1,543.5L-800.1,543.5c-8.6-4.1-16.4-10.3-20.6-18.2c-0.2-0.4-0.4-0.9-0.6-1.3c0,0,0,0,0,0
	c-0.5,0.3-1,0.6-1.5,0.9c-3.4,2.2-6.3,5.1-8.8,8.5C-825.9,544.4-804.1,546.3-800.1,543.5z"/>
<path class="st9" d="M-818.2,522.3c4.4-2.3,9.3-4.2,14.5-5.5c0,0,0,0,0,0c-3.8-6.4-6.2-13.1-6.2-19.8c0,0-14.2,6.3-13.4,19.3
	L-818.2,522.3C-818.2,522.3-818.2,522.3-818.2,522.3z"/>
<path class="st9" d="M-803.7,516.8C-803.7,516.8-803.7,516.8-803.7,516.8c-5.2,1.3-10,3.2-14.5,5.5c0,0,0,0,0,0l18.2,21.2
	c12.1,5.7,25.8,7.2,33.6,3.4C-780.4,542.1-795.5,530.4-803.7,516.8z"/>
<path class="st9" d="M-819.6,523.1c0.5-0.3,0.9-0.5,1.4-0.8l-5.1-6c0.1,2.4,0.8,4.9,2.1,7.7C-820.7,523.7-820.2,523.4-819.6,523.1z"
	/>
<path class="st9" d="M-819.6,523.1c-0.6,0.3-1.1,0.6-1.7,1c0.2,0.4,0.4,0.8,0.6,1.3c4.2,7.9,12,14.1,20.6,18.2l-18.2-21.2
	C-818.7,522.6-819.2,522.8-819.6,523.1z"/>
<path class="st8" d="M-791.7,514.8c0,0,0.1,0,0.1,0c2.1-0.2,4.2-0.3,6.3-0.3h6.7c-9.4-11.7-13.8-23.9-14.5-31.2
	c-0.6-5.4,0.4-9.8,2-13.4c0-0.2,0-0.3,0-0.3S-810,476-809.9,497c0.3,7.3,2.9,13.8,6.6,19.7C-799.6,515.7-795.7,515.1-791.7,514.8z"
	/>
<path class="st8" d="M-778.5,514.5h-6.7c-2.1,0-4.3,0.1-6.3,0.3c0,0-0.1,0-0.1,0c-4,0.3-7.9,1-11.6,1.9
	c12.2,19.2,36.8,30.2,36.8,30.2c18.8,6.6,37.5-1.9,40.4-3.3c-17.1-2.6-30.4-9.1-40.4-17.2C-771.2,522.7-775.2,518.6-778.5,514.5z"/>
<path class="st8" d="M-803.3,516.7C-803.3,516.7-803.3,516.7-803.3,516.7c-3.7-5.8-6.3-12.4-6.6-19.7c0,6.7,2.4,13.4,6.2,19.8
	C-803.6,516.7-803.5,516.7-803.3,516.7z"/>
<path class="st8" d="M-803.3,516.7C-803.3,516.7-803.3,516.7-803.3,516.7c-0.1,0-0.3,0.1-0.4,0.1c8.2,13.6,23.3,25.3,37.2,30.1
	C-766.5,546.9-791.1,535.8-803.3,516.7z"/>
<path class="st9" d="M-775.2,514.5h6.3c0,0,0,0,0,0h21.5c0.8,0,1.6,0,2.3,0c-3.9-2.6-8.1-5.7-12.5-9.4c0,0-0.1-0.1-0.1-0.1
	c-2.6-2.1-5.1-4.3-7.5-6.8c-0.1-0.1-0.1-0.1-0.2-0.2c-0.4-0.4-0.8-0.8-1.2-1.2c-15.9-16.3-17.3-28.9-15.6-36.7c0-0.3,0-0.6-0.1-1
	c0,0-5.7,3.4-8.9,10.7c0,0,0,0,0,0c0.2,2.2,1.3,13.9,3,21.2C-786,500.2-781.2,507.9-775.2,514.5z"/>
<path class="st9" d="M-699.6,535.7c0.5-4.8-3.1-9.9-8.7-10.5c-0.3,0.1-0.5,0.2-0.8,0.2C-705.4,528.1-702.2,531.6-699.6,535.7z"/>
<path class="st9" d="M-709.1,525.5c-7.2,1.9-19.3,0.1-36-11c-0.8,0-1.6,0-2.3,0h-21.5c0,0,0,0,0,0h-6.3
	c18.7,20.4,49.6,28.9,49.6,28.9s-0.1,0.1-0.4,0.2c0,0,0,0,0,0c3.2,0.5,6.5,0.8,9.9,1c11.2,0.6,16-4,16.5-8.9c0,0,0,0,0,0
	C-702.2,531.6-705.4,528.1-709.1,525.5z"/>
<path class="st9" d="M-793.1,483.3c0.7,7.3,5.1,19.6,14.5,31.2h3.3c-6-6.5-10.8-14.3-12.9-23.4c-1.7-7.3-2.8-19-3-21.2
	C-792.7,473.4-793.6,477.9-793.1,483.3z"/>
<path class="st9" d="M-775.2,514.5h-3.3c3.3,4.1,7.3,8.2,12,12c10,8,23.3,14.6,40.4,17.2c0.3-0.1,0.4-0.2,0.4-0.2
	S-756.5,534.9-775.2,514.5z"/>
<path class="st8" d="M-765.3,498.1c0.1,0.1,0.1,0.1,0.2,0.2c2.2,2.2,4.7,4.4,7.5,6.8c0,0,0.1,0,0.1,0.1c4.8,3.8,9.8,6.9,14.8,9.5
	c0.6,0,1.1,0.1,1.7,0.1c0,0,0.1,0,0.1,0c2.6,0.2,5.1,0.6,7.6,1.1c0.6,0.1,1.1,0.2,1.7,0.3c0,0,0,0,0,0c6.8,1.5,13.2,3.9,18.8,7
	c0.8,0.4,1.5,0.9,2.3,1.3c0.1,0.1,0.2,0.1,0.3,0.2c0.3,0.2,0.5,0.3,0.8,0.5c0.4,0,0.8,0,1.2,0c5.7-1.8,8.1-5.9,7-9
	c-2.5-7-16-20.5-27.4-24.6c-1.6,3-6.1,4.5-16.5,1.1c-9.3-3-16.2-9.6-21.3-16.7c-2.8-3.9-5-8-6.7-11.6c-2.3-3.8-4-8.1-4.8-13
	c0,0,0-0.1,0-0.1c0,0-2.9,3.1-4.1,8.8c1,15.4,7.2,27.3,15.6,36.6C-766.1,497.2-765.7,497.7-765.3,498.1z"/>
<path class="st8" d="M-709.7,525.2c0.1,0,0.2,0,0.2,0c-0.3-0.2-0.5-0.4-0.8-0.5c-0.1-0.1-0.2-0.1-0.3-0.2c-0.8-0.5-1.5-0.9-2.3-1.3
	c-5.6-3.2-12-5.6-18.8-7c0,0,0,0,0,0c-0.6-0.1-1.1-0.2-1.7-0.3c-2.5-0.5-5-0.8-7.6-1.1c0,0-0.1,0-0.1,0c-0.6,0-1.1-0.1-1.7-0.1
	C-727.4,522.6-712.8,525.4-709.7,525.2z"/>
<path class="st8" d="M-709.5,525.2c0.1,0.1,0.3,0.2,0.4,0.3c0.3-0.1,0.5-0.1,0.8-0.2C-708.7,525.2-709.1,525.2-709.5,525.2z"/>
<path class="st8" d="M-766.5,496.9c0.4,0.4,0.8,0.8,1.2,1.2C-765.7,497.7-766.1,497.2-766.5,496.9c-8.4-9.4-14.6-21.3-15.6-36.7
	C-783.8,467.9-782.4,480.6-766.5,496.9z"/>
<path class="st8" d="M-757.6,505.1c4.4,3.7,8.6,6.8,12.5,9.4c0.8,0,1.5,0.1,2.3,0.1C-747.7,512-752.8,508.9-757.6,505.1z"/>
<path class="st8" d="M-709.1,525.5c-0.1-0.1-0.3-0.2-0.4-0.3c-0.1,0-0.2,0-0.2,0c-3.1,0.1-17.7-2.6-33.1-10.6
	c-0.8,0-1.5-0.1-2.3-0.1C-728.4,525.6-716.3,527.4-709.1,525.5z"/>
<path class="st9" d="M-766.5,472.9c13.5,13.4,33.6,17.6,33.6,17.6c1.4,0.2,2.8,0.6,4.2,1.1c2.2-4.1-1.3-11.3-3.1-13.7
	c-7.8-10-21.3-9.7-34.7-17.4c-3.9-2.2-7.7-5.1-11.5-9.2c0,0,0,0,0,0.1c0.2,0.8,1.6,6.2,4.8,13C-771.3,467.6-769,470.4-766.5,472.9z"
	/>
<path class="st9" d="M-766.5,472.9c-2.5-2.5-4.8-5.3-6.7-8.5c1.7,3.7,3.9,7.7,6.7,11.6c5,7.1,12,13.7,21.3,16.7
	c10.4,3.3,15,1.9,16.5-1.1c-1.5-0.5-2.9-0.9-4.2-1.1C-732.9,490.6-753,486.3-766.5,472.9z"/>
<polygon class="st10" points="-737.2,587.4 -738.3,599.9 -715.8,599.9 -713.1,582.2 -712.2,575.9 -736.2,575.9 "/>
<path class="st10" d="M-736.2,575.9h24.1l1.4-9.2c0.8-5.5-3.5-10.4-9.1-10.4h-6.3c-4.8,0-8.7,3.6-9.1,8.4l-0.1,1.5v0.1L-736.2,575.9
	z"/>
<polygon class="st10" points="-754.6,585.4 -754.3,575.9 -778.3,575.9 -778,585.3 -777.5,599.9 -755.1,599.9 "/>
<path class="st10" d="M-754,565.7c0.2-5.2-4-9.5-9.1-9.5h-6.3c-5.2,0-9.3,4.3-9.1,9.5l0.3,10.2h24L-754,565.7z"/>
<polygon class="st11" points="-736.2,575.9 -754.3,575.9 -754.6,585.4 -755.1,599.9 -738.3,599.9 -737.2,587.4 "/>
<path class="st11" d="M-736.2,575.9l0.8-9.7v-0.1c0.4-5.3-3.8-9.9-9.1-9.9h-0.3c-4.9,0-9,3.9-9.2,8.8l0,0.6l-0.3,10.2H-736.2z"/>
<path class="st11" d="M-694.1,575.9l0.9-4.4l0.9-4.3c0.3-1.6,0.2-3.2-0.2-4.6c0,2.5-0.2,5-0.6,7.5L-694.1,575.9z"/>
<polygon class="st11" points="-713.1,582.2 -715.8,599.9 -699,599.9 -696.6,588.2 -694.1,575.9 -712.2,575.9 "/>
<path class="st11" d="M-692.7,562.3c-1.3-3.5-4.6-6-8.6-6c-2.3,0-4.4,0.8-6,2.2c-1.6,1.4-2.7,3.3-3.1,5.6l-0.4,2.6l-1.4,9.2h18.1
	l0.9-5.7c0.4-2.5,0.6-5,0.6-7.5C-692.6,562.5-692.7,562.4-692.7,562.3L-692.7,562.3z"/>
<polygon class="st10" points="-820.5,575.9 -816.9,599.9 -794.4,599.9 -796.4,575.9 "/>
<path class="st10" d="M-796.4,575.9l-0.8-9.7c0,0,0,0,0,0l-0.1-1.5c-0.4-4.7-4.4-8.4-9.1-8.4h-6.3c-5.6,0-9.9,5-9.1,10.5l1.4,9.1
	H-796.4z"/>
<polygon class="st11" points="-796.4,575.9 -794.4,599.9 -777.6,599.9 -778.4,575.9 "/>
<path class="st11" d="M-778.4,575.9l-0.4-10.8c-0.2-4.9-4.2-8.8-9.1-8.8h-0.3c-5.4,0-9.6,4.6-9.1,9.9l0.8,9.7H-778.4z"/>
<polygon class="st11" points="-794.4,599.9 -794.4,599.9 -796.4,575.9 -796.4,575.9 "/>
<polygon class="st11" points="-796.4,575.9 -796.4,575.9 -797.3,566.2 -797.3,566.2 "/>
<path class="st11" d="M-820.5,575.9h-18.1v0l-0.9-5.7c-0.4-2.5-0.6-5-0.6-7.5c-0.4,1.4-0.6,3-0.2,4.6l6.6,32.7h16.8L-820.5,575.9z"
	/>
<path class="st11" d="M-838.6,575.8L-838.6,575.8l18.1,0l-1.4-9.1c0,0,0,0,0,0l-0.4-2.7c-0.7-4.5-4.5-7.8-9.1-7.8
	c-4.2,0-7.6,2.8-8.7,6.4c0,2.5,0.2,5,0.6,7.5L-838.6,575.8z"/>
<polygon class="st11" points="-820.5,575.9 -820.5,575.9 -816.9,599.9 -816.9,599.9 "/>
<polygon class="st11" points="-821.9,566.8 -821.9,566.8 -820.5,575.9 -820.5,575.9 "/>
<path class="st7" d="M-569.4,555.2c4.5,0,8.4,3.3,9.1,7.8l0.4,2.7c-0.8-5.5,3.4-10.5,9.1-10.5h6.3c4.8,0,8.7,3.6,9.1,8.4l0.1,1.5
	c-0.5-5.3,3.8-9.9,9.1-9.9h0.3c4.9,0,9,3.9,9.1,8.8l0.4,10.8h0.1l-0.3-10.2c-0.2-5.2,4-9.5,9.1-9.5h6.3c5.2,0,9.3,4.3,9.1,9.5l0-0.6
	c0.2-4.9,4.2-8.8,9.2-8.8h0.3c5.3,0,9.5,4.6,9.1,9.9l0.1-1.5c0.4-4.7,4.4-8.4,9.1-8.4h6.3c5.6,0,9.8,4.9,9.1,10.4l0.4-2.6
	c0.3-2.2,1.5-4.2,3.1-5.6c1.6-1.4,3.7-2.2,6-2.2c4,0,7.3,2.6,8.6,6v0c0,0.1,0.1,0.2,0.1,0.4c0-1.5,0-3-0.1-4.5v0
	c-0.5-6.5-2.1-12.8-4.7-18.3c-0.7-1.4-1.4-2.8-2.2-4.1c-0.5,4.9-5.3,9.5-16.5,8.9c-3.4-0.2-6.7-0.5-9.9-1c0,0,0,0,0,0
	c-2.9,1.4-21.7,9.9-40.4,3.3c-7.7,3.8-21.5,2.3-33.6-3.4l0,0c-4,2.8-25.9,0.8-31.5-10.1c0,0,0,0,0,0c-1.4,2-2.7,4.1-3.8,6.4
	c-2.6,5.5-4.2,11.8-4.6,18.4c-0.1,1.5-0.1,3-0.1,4.5c0,0,0,0,0,0c0,0,0,0,0,0C-576.9,558-573.5,555.2-569.4,555.2z"/>
<path class="st12" d="M-560.7,523.9c0.5-0.3,1-0.6,1.5-0.9c0,0,0,0,0,0c-1.3-2.8-1.9-5.4-2.1-7.7l0,0c0,0-13.2,3.6-8.8,15.7
	c0.2,0.5,0.4,1,0.6,1.4C-567.1,529-564.1,526.1-560.7,523.9z"/>
<path class="st12" d="M-538.1,542.5L-538.1,542.5c-8.6-4.1-16.4-10.3-20.6-18.2c-0.2-0.4-0.4-0.9-0.6-1.3c0,0,0,0,0,0
	c-0.5,0.3-1,0.6-1.5,0.9c-3.4,2.2-6.3,5.1-8.8,8.5C-563.9,543.4-542.1,545.3-538.1,542.5z"/>
<path class="st13" d="M-556.2,521.3c4.4-2.3,9.3-4.2,14.5-5.5c0,0,0,0,0,0c-3.8-6.4-6.2-13.1-6.2-19.8c0,0-14.2,6.3-13.4,19.3
	L-556.2,521.3C-556.2,521.3-556.2,521.3-556.2,521.3z"/>
<path class="st13" d="M-541.7,515.8C-541.7,515.8-541.7,515.8-541.7,515.8c-5.2,1.3-10,3.2-14.5,5.5c0,0,0,0,0,0l18.2,21.2
	c12.1,5.7,25.8,7.2,33.6,3.4C-518.4,541.1-533.5,529.4-541.7,515.8z"/>
<path class="st13" d="M-557.6,522.1c0.5-0.3,0.9-0.5,1.4-0.8l-5.1-6c0.1,2.4,0.8,4.9,2.1,7.7C-558.7,522.7-558.2,522.4-557.6,522.1z
	"/>
<path class="st13" d="M-557.6,522.1c-0.6,0.3-1.1,0.6-1.7,1c0.2,0.4,0.4,0.8,0.6,1.3c4.2,7.9,12,14.1,20.6,18.2l-18.2-21.2
	C-556.7,521.6-557.2,521.8-557.6,522.1z"/>
<path class="st12" d="M-529.7,513.8c0,0,0.1,0,0.1,0c2.1-0.2,4.2-0.3,6.3-0.3h6.7c-9.4-11.7-13.8-23.9-14.5-31.2
	c-0.6-5.4,0.4-9.8,2-13.4c0-0.2,0-0.3,0-0.3S-548,475-547.9,496c0.3,7.3,2.9,13.8,6.6,19.7C-537.6,514.7-533.7,514.1-529.7,513.8z"
	/>
<path class="st12" d="M-516.5,513.5h-6.7c-2.1,0-4.3,0.1-6.3,0.3c0,0-0.1,0-0.1,0c-4,0.3-7.9,1-11.6,1.9
	c12.2,19.2,36.8,30.2,36.8,30.2c18.8,6.6,37.5-1.9,40.4-3.3c-17.1-2.6-30.4-9.1-40.4-17.2C-509.2,521.7-513.2,517.6-516.5,513.5z"/>
<path class="st12" d="M-541.3,515.7C-541.3,515.7-541.3,515.7-541.3,515.7c-3.7-5.8-6.3-12.4-6.6-19.7c0,6.7,2.4,13.4,6.2,19.8
	C-541.6,515.7-541.5,515.7-541.3,515.7z"/>
<path class="st12" d="M-541.3,515.7C-541.3,515.7-541.3,515.7-541.3,515.7c-0.1,0-0.3,0.1-0.4,0.1c8.2,13.6,23.3,25.3,37.2,30.1
	C-504.5,545.9-529.1,534.8-541.3,515.7z"/>
<path class="st13" d="M-437.6,534.7c0.5-4.8-3.1-9.9-8.7-10.5c-0.3,0.1-0.5,0.2-0.8,0.2C-443.4,527.1-440.2,530.6-437.6,534.7z"/>
<path class="st13" d="M-513.2,513.5h6.3c0,0,0,0,0,0h21.5c0.8,0,1.6,0,2.3,0c-3.9-2.6-8.1-5.7-12.5-9.4c0,0-0.1-0.1-0.1-0.1
	c-2.6-2.1-5.1-4.3-7.5-6.8c-0.1-0.1-0.1-0.1-0.2-0.2c-0.4-0.4-0.8-0.8-1.2-1.2c-15.9-16.3-17.3-28.9-15.6-36.7c0-0.3,0-0.6-0.1-1
	c0,0-5.7,3.4-8.9,10.7c0,0,0,0,0,0c0.2,2.2,1.3,13.9,3,21.2C-524,499.2-519.2,506.9-513.2,513.5z"/>
<path class="st13" d="M-447.1,524.5c-7.2,1.9-19.3,0.1-36-11c-0.8,0-1.6,0-2.3,0h-21.5c0,0,0,0,0,0h-6.3
	c18.7,20.4,49.6,28.9,49.6,28.9s-0.1,0.1-0.4,0.2c0,0,0,0,0,0c3.2,0.5,6.5,0.8,9.9,1c11.2,0.6,16-4,16.5-8.9c0,0,0,0,0,0
	C-440.2,530.6-443.4,527.1-447.1,524.5z"/>
<path class="st13" d="M-531.1,482.3c0.7,7.3,5.1,19.6,14.5,31.2h3.3c-6-6.5-10.8-14.3-12.9-23.4c-1.7-7.3-2.8-19-3-21.2
	C-530.7,472.4-531.6,476.9-531.1,482.3z"/>
<path class="st13" d="M-513.2,513.5h-3.3c3.3,4.1,7.3,8.2,12,12c10,8,23.3,14.6,40.4,17.2c0.3-0.1,0.4-0.2,0.4-0.2
	S-494.5,533.9-513.2,513.5z"/>
<path class="st12" d="M-503.3,497.1c0.1,0.1,0.1,0.1,0.2,0.2c2.2,2.2,4.7,4.4,7.5,6.8c0,0,0.1,0,0.1,0.1c4.8,3.8,9.8,6.9,14.8,9.5
	c0.6,0,1.1,0.1,1.7,0.1c0,0,0.1,0,0.1,0c2.6,0.2,5.1,0.6,7.6,1.1c0.6,0.1,1.1,0.2,1.7,0.3c0,0,0,0,0,0c6.8,1.5,13.2,3.9,18.8,7
	c0.8,0.4,1.5,0.9,2.3,1.3c0.1,0.1,0.2,0.1,0.3,0.2c0.3,0.2,0.5,0.3,0.8,0.5c0.4,0,0.8,0,1.2,0c5.7-1.8,8.1-5.9,7-9
	c-2.5-7-16-20.5-27.4-24.6c-1.6,3-6.1,4.5-16.5,1.1c-9.3-3-16.2-9.6-21.3-16.7c-2.8-3.9-5-8-6.7-11.6c-2.3-3.8-4-8.1-4.8-13
	c0,0,0-0.1,0-0.1c0,0-2.9,3.1-4.1,8.8c1,15.4,7.2,27.3,15.6,36.6C-504.1,496.2-503.7,496.7-503.3,497.1z"/>
<path class="st12" d="M-447.7,524.2c0.1,0,0.2,0,0.2,0c-0.3-0.2-0.5-0.4-0.8-0.5c-0.1-0.1-0.2-0.1-0.3-0.2c-0.8-0.5-1.5-0.9-2.3-1.3
	c-5.6-3.2-12-5.6-18.8-7c0,0,0,0,0,0c-0.6-0.1-1.1-0.2-1.7-0.3c-2.5-0.5-5-0.8-7.6-1.1c0,0-0.1,0-0.1,0c-0.6,0-1.1-0.1-1.7-0.1
	C-465.4,521.6-450.8,524.4-447.7,524.2z"/>
<path class="st12" d="M-495.6,504.1c4.4,3.7,8.6,6.8,12.5,9.4c0.8,0,1.5,0.1,2.3,0.1C-485.7,511-490.8,507.9-495.6,504.1z"/>
<path class="st12" d="M-447.5,524.2c0.1,0.1,0.3,0.2,0.4,0.3c0.3-0.1,0.5-0.1,0.8-0.2C-446.7,524.2-447.1,524.2-447.5,524.2z"/>
<path class="st12" d="M-504.5,495.9c0.4,0.4,0.8,0.8,1.2,1.2C-503.7,496.7-504.1,496.2-504.5,495.9c-8.4-9.4-14.6-21.3-15.6-36.7
	C-521.8,466.9-520.4,479.6-504.5,495.9z"/>
<path class="st12" d="M-447.1,524.5c-0.1-0.1-0.3-0.2-0.4-0.3c-0.1,0-0.2,0-0.2,0c-3.1,0.1-17.7-2.6-33.1-10.6
	c-0.8,0-1.5-0.1-2.3-0.1C-466.4,524.6-454.3,526.4-447.1,524.5z"/>
<path class="st13" d="M-504.5,471.9c13.5,13.4,33.6,17.6,33.6,17.6c1.4,0.2,2.8,0.6,4.2,1.1c2.2-4.1-1.3-11.3-3.1-13.7
	c-7.8-10-21.3-9.7-34.7-17.4c-3.9-2.2-7.7-5.1-11.5-9.2c0,0,0,0,0,0.1c0.2,0.8,1.6,6.2,4.8,13C-509.3,466.6-507,469.4-504.5,471.9z"
	/>
<path class="st13" d="M-504.5,471.9c-2.5-2.5-4.8-5.3-6.7-8.5c1.7,3.7,3.9,7.7,6.7,11.6c5,7.1,12,13.7,21.3,16.7
	c10.4,3.3,15,1.9,16.5-1.1c-1.5-0.5-2.9-0.9-4.2-1.1C-470.9,489.6-491,485.3-504.5,471.9z"/>
<polygon class="st14" points="-475.2,586.4 -476.3,599.9 -454,599.9 -451.1,581.2 -450.2,574.9 -474.2,574.9 "/>
<path class="st14" d="M-474.2,574.9h24.1l1.4-9.2c0.8-5.5-3.5-10.4-9.1-10.4h-6.3c-4.8,0-8.7,3.6-9.1,8.4l-0.1,1.5v0.1L-474.2,574.9
	z"/>
<polygon class="st14" points="-492.6,584.4 -492.3,574.9 -516.3,574.9 -516,584.3 -515.5,599.9 -493.1,599.9 "/>
<path class="st14" d="M-492,564.7c0.2-5.2-4-9.5-9.1-9.5h-6.3c-5.2,0-9.3,4.3-9.1,9.5l0.3,10.2h24L-492,564.7z"/>
<polygon class="st15" points="-474.2,574.9 -492.3,574.9 -492.6,584.4 -493.1,599.9 -476.3,599.9 -475.2,586.4 "/>
<path class="st15" d="M-474.2,574.9l0.8-9.7v-0.1c0.4-5.3-3.8-9.9-9.1-9.9h-0.3c-4.9,0-9,3.9-9.2,8.8l0,0.6l-0.3,10.2H-474.2z"/>
<polygon class="st15" points="-451.1,581.2 -454,599.9 -437.2,599.9 -434.6,587.2 -432.1,574.9 -450.2,574.9 "/>
<path class="st15" d="M-432.1,574.9l0.9-4.4l0.9-4.3c0.3-1.6,0.2-3.2-0.2-4.6c0,2.5-0.2,5-0.6,7.5L-432.1,574.9z"/>
<path class="st15" d="M-430.7,561.3c-1.3-3.5-4.6-6-8.6-6c-2.3,0-4.4,0.8-6,2.2c-1.6,1.4-2.7,3.3-3.1,5.6l-0.4,2.6l-1.4,9.2h18.1
	l0.9-5.7c0.4-2.5,0.6-5,0.6-7.5C-430.6,561.5-430.7,561.4-430.7,561.3L-430.7,561.3z"/>
<polygon class="st14" points="-558.5,574.9 -554.7,599.9 -532.3,599.9 -534.4,574.9 "/>
<path class="st14" d="M-534.4,574.9l-0.8-9.7c0,0,0,0,0,0l-0.1-1.5c-0.4-4.7-4.4-8.4-9.1-8.4h-6.3c-5.6,0-9.9,5-9.1,10.5l1.4,9.1
	H-534.4z"/>
<polygon class="st15" points="-534.4,574.9 -532.3,599.9 -515.5,599.9 -516.4,574.9 "/>
<path class="st15" d="M-516.4,574.9l-0.4-10.8c-0.2-4.9-4.2-8.8-9.1-8.8h-0.3c-5.4,0-9.6,4.6-9.1,9.9l0.8,9.7H-516.4z"/>
<polygon class="st15" points="-532.3,599.9 -532.3,599.9 -534.4,574.9 -534.4,574.9 "/>
<polygon class="st15" points="-534.4,574.9 -534.4,574.9 -535.3,565.2 -535.3,565.2 "/>
<path class="st15" d="M-558.5,574.9h-18.1v0l-0.9-5.7c-0.4-2.5-0.6-5-0.6-7.5c-0.4,1.4-0.6,3-0.2,4.6l6.8,33.7h16.8L-558.5,574.9z"
	/>
<path class="st15" d="M-576.6,574.8L-576.6,574.8l18.1,0l-1.4-9.1c0,0,0,0,0,0l-0.4-2.7c-0.7-4.5-4.5-7.8-9.1-7.8
	c-4.2,0-7.6,2.8-8.7,6.4c0,2.5,0.2,5,0.6,7.5L-576.6,574.8z"/>
<polygon class="st15" points="-558.5,574.9 -558.5,574.9 -554.7,599.9 -554.7,599.9 "/>
<polygon class="st15" points="-559.9,565.8 -559.9,565.8 -558.5,574.9 -558.5,574.9 "/>
<path class="st6" d="M-254,450.5c0.8,4.9,2.5,9.2,4.8,13C-252.3,456.7-253.8,451.3-254,450.5z"/>
<path class="st6" d="M-233.6,504.1c-2.8-2.3-5.2-4.6-7.5-6.8C-238.7,499.8-236.2,502-233.6,504.1z"/>
<polygon class="st6" points="-254.3,574.9 -254.4,574.9 -253.5,599.9 -253.5,599.9 -254,584.3 "/>
<path class="st7" d="M-307.4,555.2c4.5,0,8.4,3.3,9.1,7.8l0.4,2.7c-0.8-5.5,3.4-10.5,9.1-10.5h6.3c4.8,0,8.7,3.6,9.1,8.4l0.1,1.5
	c-0.5-5.3,3.8-9.9,9.1-9.9h0.3c4.9,0,9,3.9,9.1,8.8l0.4,10.8h0.1l-0.3-10.2c-0.2-5.2,4-9.5,9.1-9.5h6.3c5.2,0,9.3,4.3,9.1,9.5l0-0.6
	c0.2-4.9,4.2-8.8,9.2-8.8h0.3c5.3,0,9.5,4.6,9.1,9.9l0.1-1.5c0.4-4.7,4.4-8.4,9.1-8.4h6.3c5.6,0,9.8,4.9,9.1,10.4l0.4-2.6
	c0.3-2.2,1.5-4.2,3.1-5.6c1.6-1.4,3.7-2.2,6-2.2c4,0,7.3,2.6,8.6,6v0c0,0.1,0.1,0.2,0.1,0.4c0-1.5,0-3-0.1-4.5v0
	c-0.5-6.5-2.1-12.8-4.7-18.3c-0.7-1.4-1.4-2.8-2.2-4.1c-0.5,4.9-5.3,9.5-16.5,8.9c-3.4-0.2-6.7-0.5-9.9-1c0,0,0,0,0,0
	c-2.9,1.4-21.7,9.9-40.4,3.3c-7.7,3.8-21.5,2.3-33.6-3.4l0,0c-4,2.8-25.9,0.8-31.5-10.1c0,0,0,0,0,0c-1.4,2-2.7,4.1-3.8,6.4
	c-2.6,5.5-4.2,11.8-4.6,18.4c-0.1,1.5-0.1,3-0.1,4.5c0,0,0,0,0,0c0,0,0,0,0,0C-314.9,558-311.5,555.2-307.4,555.2z"/>
<path class="st4" d="M-298.7,523.9c0.5-0.3,1-0.6,1.5-0.9c0,0,0,0,0,0c-1.3-2.8-1.9-5.4-2.1-7.7l0,0c0,0-13.2,3.6-8.8,15.7
	c0.2,0.5,0.4,1,0.6,1.4C-305.1,529-302.1,526.1-298.7,523.9z"/>
<path class="st4" d="M-276.1,542.5L-276.1,542.5c-8.6-4.1-16.4-10.3-20.6-18.2c-0.2-0.4-0.4-0.9-0.6-1.3c0,0,0,0,0,0
	c-0.5,0.3-1,0.6-1.5,0.9c-3.4,2.2-6.3,5.1-8.8,8.5C-301.9,543.4-280.1,545.3-276.1,542.5z"/>
<path class="st16" d="M-294.2,521.3c4.4-2.3,9.3-4.2,14.5-5.5c0,0,0,0,0,0c-3.8-6.4-6.2-13.1-6.2-19.8c0,0-14.2,6.3-13.4,19.3
	L-294.2,521.3C-294.2,521.3-294.2,521.3-294.2,521.3z"/>
<path class="st16" d="M-279.7,515.8C-279.7,515.8-279.7,515.8-279.7,515.8c-5.2,1.3-10,3.2-14.5,5.5c0,0,0,0,0,0l18.2,21.2
	c12.1,5.7,25.8,7.2,33.6,3.4C-256.4,541.1-271.5,529.4-279.7,515.8z"/>
<path class="st16" d="M-295.6,522.1c0.5-0.3,0.9-0.5,1.4-0.8l-5.1-6c0.1,2.4,0.8,4.9,2.1,7.7C-296.7,522.7-296.2,522.4-295.6,522.1z
	"/>
<path class="st16" d="M-295.6,522.1c-0.6,0.3-1.1,0.6-1.7,1c0.2,0.4,0.4,0.8,0.6,1.3c4.2,7.9,12,14.1,20.6,18.2l-18.2-21.2
	C-294.7,521.6-295.2,521.8-295.6,522.1z"/>
<path class="st4" d="M-267.7,513.8c0,0,0.1,0,0.1,0c2.1-0.2,4.2-0.3,6.3-0.3h6.7c-9.4-11.7-13.8-23.9-14.5-31.2
	c-0.6-5.4,0.4-9.8,2-13.4c0-0.2,0-0.3,0-0.3S-286,475-285.9,496c0.3,7.3,2.9,13.8,6.6,19.7C-275.6,514.7-271.7,514.1-267.7,513.8z"
	/>
<path class="st4" d="M-254.5,513.5h-6.7c-2.1,0-4.3,0.1-6.3,0.3c0,0-0.1,0-0.1,0c-4,0.3-7.9,1-11.6,1.9
	c12.2,19.2,36.8,30.2,36.8,30.2c18.8,6.6,37.5-1.9,40.4-3.3c-17.1-2.6-30.4-9.1-40.4-17.2C-247.2,521.7-251.2,517.6-254.5,513.5z"/>
<path class="st4" d="M-279.3,515.7C-279.3,515.7-279.3,515.7-279.3,515.7c-3.7-5.8-6.3-12.4-6.6-19.7c0,6.7,2.4,13.4,6.2,19.8
	C-279.6,515.7-279.5,515.7-279.3,515.7z"/>
<path class="st4" d="M-279.3,515.7C-279.3,515.7-279.3,515.7-279.3,515.7c-0.1,0-0.3,0.1-0.4,0.1c8.2,13.6,23.3,25.3,37.2,30.1
	C-242.5,545.9-267.1,534.8-279.3,515.7z"/>
<path class="st16" d="M-175.6,534.7c0.5-4.8-3.1-9.9-8.7-10.5c-0.3,0.1-0.5,0.2-0.8,0.2C-181.4,527.1-178.2,530.6-175.6,534.7z"/>
<path class="st16" d="M-251.2,513.5h6.3c0,0,0,0,0,0h21.5c0.8,0,1.6,0,2.3,0c-3.9-2.6-8.1-5.7-12.5-9.4c0,0-0.1-0.1-0.1-0.1
	c-2.6-2.1-5.1-4.3-7.5-6.8c-0.1-0.1-0.1-0.1-0.2-0.2c-0.4-0.4-0.8-0.8-1.2-1.2c-15.9-16.3-17.3-28.9-15.6-36.7c0-0.3,0-0.6-0.1-1
	c0,0-5.7,3.4-8.9,10.7c0,0,0,0,0,0c0.2,2.2,1.3,13.9,3,21.2C-262,499.2-257.2,506.9-251.2,513.5z"/>
<path class="st16" d="M-185.1,524.5c-7.2,1.9-19.3,0.1-36-11c-0.8,0-1.6,0-2.3,0h-21.5c0,0,0,0,0,0h-6.3
	c18.7,20.4,49.6,28.9,49.6,28.9s-0.1,0.1-0.4,0.2c0,0,0,0,0,0c3.2,0.5,6.5,0.8,9.9,1c11.2,0.6,16-4,16.5-8.9c0,0,0,0,0,0
	C-178.2,530.6-181.4,527.1-185.1,524.5z"/>
<path class="st16" d="M-269.1,482.3c0.7,7.3,5.1,19.6,14.5,31.2h3.3c-6-6.5-10.8-14.3-12.9-23.4c-1.7-7.3-2.8-19-3-21.2
	C-268.7,472.4-269.6,476.9-269.1,482.3z"/>
<path class="st16" d="M-251.2,513.5h-3.3c3.3,4.1,7.3,8.2,12,12c10,8,23.3,14.6,40.4,17.2c0.3-0.1,0.4-0.2,0.4-0.2
	S-232.5,533.9-251.2,513.5z"/>
<path class="st4" d="M-241.3,497.1c0.1,0.1,0.1,0.1,0.2,0.2c2.2,2.2,4.7,4.4,7.5,6.8c0,0,0.1,0,0.1,0.1c4.8,3.8,9.8,6.9,14.8,9.5
	c0.6,0,1.1,0.1,1.7,0.1c0,0,0.1,0,0.1,0c2.6,0.2,5.1,0.6,7.6,1.1c0.6,0.1,1.1,0.2,1.7,0.3c0,0,0,0,0,0c6.8,1.5,13.2,3.9,18.8,7
	c0.8,0.4,1.5,0.9,2.3,1.3c0.1,0.1,0.2,0.1,0.3,0.2c0.3,0.2,0.5,0.3,0.8,0.5c0.4,0,0.8,0,1.2,0c5.7-1.8,8.1-5.9,7-9
	c-2.5-7-16-20.5-27.4-24.6c-1.6,3-6.1,4.5-16.5,1.1c-9.3-3-16.2-9.6-21.3-16.7c-2.8-3.9-5-8-6.7-11.6c-2.3-3.8-4-8.1-4.8-13
	c0,0,0-0.1,0-0.1c0,0-2.9,3.1-4.1,8.8c1,15.4,7.2,27.3,15.6,36.6C-242.1,496.2-241.7,496.7-241.3,497.1z"/>
<path class="st4" d="M-185.7,524.2c0.1,0,0.2,0,0.2,0c-0.3-0.2-0.5-0.4-0.8-0.5c-0.1-0.1-0.2-0.1-0.3-0.2c-0.8-0.5-1.5-0.9-2.3-1.3
	c-5.6-3.2-12-5.6-18.8-7c0,0,0,0,0,0c-0.6-0.1-1.1-0.2-1.7-0.3c-2.5-0.5-5-0.8-7.6-1.1c0,0-0.1,0-0.1,0c-0.6,0-1.1-0.1-1.7-0.1
	C-203.4,521.6-188.8,524.4-185.7,524.2z"/>
<path class="st4" d="M-233.6,504.1c4.4,3.7,8.6,6.8,12.5,9.4c0.8,0,1.5,0.1,2.3,0.1C-223.7,511-228.8,507.9-233.6,504.1z"/>
<path class="st12" d="M-185.5,524.2c0.1,0.1,0.3,0.2,0.4,0.3c0.3-0.1,0.5-0.1,0.8-0.2C-184.7,524.2-185.1,524.2-185.5,524.2z"/>
<path class="st4" d="M-242.5,495.9c0.4,0.4,0.8,0.8,1.2,1.2C-241.7,496.7-242.1,496.2-242.5,495.9c-8.4-9.4-14.6-21.3-15.6-36.7
	C-259.8,466.9-258.4,479.6-242.5,495.9z"/>
<path class="st4" d="M-185.1,524.5c-0.1-0.1-0.3-0.2-0.4-0.3c-0.1,0-0.2,0-0.2,0c-3.1,0.1-17.7-2.6-33.1-10.6
	c-0.8,0-1.5-0.1-2.3-0.1C-204.4,524.6-192.3,526.4-185.1,524.5z"/>
<path class="st16" d="M-242.5,471.9c13.5,13.4,33.6,17.6,33.6,17.6c1.4,0.2,2.8,0.6,4.2,1.1c2.2-4.1-1.3-11.3-3.1-13.7
	c-7.8-10-21.3-9.7-34.7-17.4c-3.9-2.2-7.7-5.1-11.5-9.2c0,0,0,0,0,0.1c0.2,0.8,1.6,6.2,4.8,13C-247.3,466.6-245,469.4-242.5,471.9z"
	/>
<path class="st16" d="M-242.5,471.9c-2.5-2.5-4.8-5.3-6.7-8.5c1.7,3.7,3.9,7.7,6.7,11.6c5,7.1,12,13.7,21.3,16.7
	c10.4,3.3,15,1.9,16.5-1.1c-1.5-0.5-2.9-0.9-4.2-1.1C-208.9,489.6-229,485.3-242.5,471.9z"/>
<polygon class="st17" points="-213.2,586.4 -214.3,599.9 -192,599.9 -189.1,581.2 -188.2,574.9 -212.2,574.9 "/>
<path class="st17" d="M-212.2,574.9h24.1l1.4-9.2c0.8-5.5-3.5-10.4-9.1-10.4h-6.3c-4.8,0-8.7,3.6-9.1,8.4l-0.1,1.5v0.1L-212.2,574.9
	z"/>
<polygon class="st17" points="-230.6,584.4 -230.3,574.9 -254.3,574.9 -254,584.3 -253.5,599.9 -231.1,599.9 "/>
<path class="st17" d="M-230,564.7c0.2-5.2-4-9.5-9.1-9.5h-6.3c-5.2,0-9.3,4.3-9.1,9.5l0.3,10.2h24L-230,564.7z"/>
<polygon class="st18" points="-212.2,574.9 -230.3,574.9 -230.6,584.4 -231.1,599.9 -214.3,599.9 -213.2,586.4 "/>
<path class="st18" d="M-212.2,574.9l0.8-9.7v-0.1c0.4-5.3-3.8-9.9-9.1-9.9h-0.3c-4.9,0-9,3.9-9.2,8.8l0,0.6l-0.3,10.2H-212.2z"/>
<polygon class="st18" points="-189.1,581.2 -192,599.9 -175.2,599.9 -172.6,587.2 -170.1,574.9 -188.2,574.9 "/>
<path class="st15" d="M-170.1,574.9l0.9-4.4l0.9-4.3c0.3-1.6,0.2-3.2-0.2-4.6c0,2.5-0.2,5-0.6,7.5L-170.1,574.9z"/>
<path class="st18" d="M-168.7,561.3c-1.3-3.5-4.6-6-8.6-6c-2.3,0-4.4,0.8-6,2.2c-1.6,1.4-2.7,3.3-3.1,5.6l-0.4,2.6l-1.4,9.2h18.1
	l0.9-5.7c0.4-2.5,0.6-5,0.6-7.5C-168.6,561.5-168.7,561.4-168.7,561.3L-168.7,561.3z"/>
<polygon class="st17" points="-296.5,574.9 -292.7,599.9 -270.3,599.9 -272.4,574.9 "/>
<path class="st17" d="M-272.4,574.9l-0.8-9.7c0,0,0,0,0,0l-0.1-1.5c-0.4-4.7-4.4-8.4-9.1-8.4h-6.3c-5.6,0-9.9,5-9.1,10.5l1.4,9.1
	H-272.4z"/>
<polygon class="st18" points="-272.4,574.9 -270.3,599.9 -253.5,599.9 -254.4,574.9 "/>
<path class="st18" d="M-254.4,574.9l-0.4-10.8c-0.2-4.9-4.2-8.8-9.1-8.8h-0.3c-5.4,0-9.6,4.6-9.1,9.9l0.8,9.7H-254.4z"/>
<polygon class="st15" points="-270.3,599.9 -270.3,599.9 -272.4,574.9 -272.4,574.9 "/>
<polygon class="st15" points="-272.4,574.9 -272.4,574.9 -273.3,565.2 -273.3,565.2 "/>
<path class="st18" d="M-296.5,574.9h-18.1v0l-0.9-5.7c-0.4-2.5-0.6-5-0.6-7.5c-0.4,1.4-0.6,3-0.2,4.6l6.8,33.7h16.8L-296.5,574.9z"
	/>
<path class="st18" d="M-314.6,574.8L-314.6,574.8l18.1,0l-1.4-9.1c0,0,0,0,0,0l-0.4-2.7c-0.7-4.5-4.5-7.8-9.1-7.8
	c-4.2,0-7.6,2.8-8.7,6.4c0,2.5,0.2,5,0.6,7.5L-314.6,574.8z"/>
<polygon class="st15" points="-296.5,574.9 -296.5,574.9 -292.7,599.9 -292.7,599.9 "/>
<polygon class="st15" points="-297.9,565.8 -297.9,565.8 -296.5,574.9 -296.5,574.9 "/>
<text transform="matrix(1 0 0 1 -859.3609 188.1605)" class="st0" style="font-family:'HelveticaNeue-Medium'; font-size:31.8128px;">VENTA DE CUPCAKES</text>
<text transform="matrix(1 0 0 1 -820.1188 62.2007)" class="st0" style="font-family:'HelveticaNeue-Medium'; font-size:16.5349px;">CUPCAKE GALLERY</text>
<g>
	<g>
		<g>
			<g>
				<path class="st6" d="M-845.7,36.8c0.2,1,0.5,1.8,0.9,2.6C-845.4,38-845.6,37-845.7,36.8z"/>
				<path class="st6" d="M-841.7,47.3c-0.5-0.5-1-0.9-1.5-1.3C-842.7,46.5-842.2,46.9-841.7,47.3z"/>
				<path class="st19" d="M-854.1,51.3c-0.3-0.6-0.5-1.2-0.5-1.8l0,0c0,0-2.6,0.7-1.7,3.1c0.9,2.4,5.5,2.8,6.3,2.3l0,0
					C-851.7,54.1-853.3,52.9-854.1,51.3z"/>
				<path class="st4" d="M-852,45.8c0,0-2.8,1.2-2.6,3.8c0,0.5,0.2,1.1,0.5,1.8c0.8,1.6,2.4,2.8,4.1,3.6c2.4,1.1,5.1,1.4,6.6,0.7
					C-847.4,54.2-852,49.9-852,45.8z"/>
				<path class="st19" d="M-845.8,49.2c-1.9-2.3-2.7-4.7-2.9-6.1c-0.1-1.1,0.1-1.9,0.4-2.6c0,0,0-0.1,0-0.1s-3.7,1.3-3.7,5.4
					c0,4.1,4.5,8.4,8.6,9.8c3.7,1.3,7.4-0.4,8-0.6c-3.4-0.5-6-1.8-8-3.4C-844.4,50.8-845.1,50-845.8,49.2z"/>
				<path class="st4" d="M-832,51.3c-0.1,0-0.1,0-0.2,0c-1.4,0.4-3.8,0-7.1-2.2c-0.8-0.5-1.6-1.1-2.5-1.8c0,0,0,0,0,0
					c-0.5-0.4-1-0.8-1.5-1.3c0,0,0,0,0,0c-0.1-0.1-0.2-0.2-0.2-0.2c-3.1-3.2-3.4-5.7-3.1-7.2c0-0.1,0-0.1,0-0.2c0,0-1.1,0.7-1.8,2.1
					c0,0,0,0,0,0c-0.3,0.7-0.5,1.6-0.4,2.6c0.1,1.4,1,3.9,2.9,6.1c0.7,0.8,1.4,1.6,2.4,2.4c2,1.6,4.6,2.9,8,3.4c0,0,0,0,0,0
					c0.6,0.1,1.3,0.2,2,0.2c2.2,0.1,3.1-0.8,3.2-1.8c0,0,0,0,0,0C-830.2,52.4-830.9,51.4-832,51.3z"/>
				<path class="st19" d="M-843.4,45.7c0.1,0.1,0.2,0.2,0.2,0.2c0,0,0,0,0,0c0.4,0.4,0.9,0.9,1.5,1.3c0,0,0,0,0,0
					c0.9,0.7,1.7,1.3,2.5,1.8c3.3,2.2,5.7,2.5,7.1,2.2c0.1,0,0.1,0,0.2,0c1.1-0.3,1.6-1.2,1.4-1.8c-0.5-1.4-3.1-4-5.4-4.9
					c-0.3,0.6-1.2,0.9-3.3,0.2c-1.8-0.6-3.2-1.9-4.2-3.3c-0.5-0.8-1-1.6-1.3-2.3c-0.4-0.7-0.8-1.6-0.9-2.6c0,0,0,0,0,0
					c0,0-0.6,0.6-0.8,1.7C-846.8,40-846.6,42.5-843.4,45.7z"/>
				<path class="st4" d="M-843.4,41.7c1,1.4,2.4,2.7,4.2,3.3c2,0.7,2.9,0.4,3.3-0.2c0.4-0.8-0.3-2.2-0.6-2.7c-1.5-2-4.2-1.9-6.8-3.4
					c-0.8-0.4-1.5-1-2.3-1.8c0,0,0,0,0,0c0,0.2,0.3,1.2,0.9,2.6C-844.4,40.1-844,40.9-843.4,41.7z"/>
			</g>
			<g>
				<g>
					<g>
						<path class="st4" d="M-832.5,59.5l-0.3,1.8l-0.2,1.2l-2,13.4h-3.7l1-12.4l0.2-2.3l0.2-1.9v0l0-0.3c0.1-0.9,0.9-1.6,1.8-1.6
							h1.2C-833.1,57.4-832.3,58.4-832.5,59.5z"/>
						<g>
							<path class="st4" d="M-841,59.3l-0.1,2l-0.1,1.9l-0.4,12.8h-3.7l-0.4-12.8l-0.1-1.9l-0.1-2c0-1,0.8-1.9,1.8-1.9h1.2
								C-841.7,57.4-840.9,58.3-841,59.3z"/>
						</g>
						<path class="st19" d="M-837.3,59.4L-837.3,59.4l-0.2,1.9l-0.2,2.3l-1,12.4h-2.8l0.4-12.8l0.1-1.9l0.1-2l0-0.1
							c0-1,0.8-1.7,1.8-1.7h0.1C-838.1,57.4-837.2,58.3-837.3,59.4z"/>
						<path class="st19" d="M-828.8,59.6l-0.2,0.8l-0.2,0.9l-0.5,2.4l-1.9,9.5c-0.3,1.6-1.7,2.8-3.4,2.8l2-13.4l0.2-1.2l0.3-1.8
							l0.1-0.5c0.1-0.4,0.3-0.8,0.6-1.1c0.3-0.3,0.7-0.4,1.2-0.4c0.8,0,1.4,0.5,1.7,1.2v0c0,0,0,0,0,0.1
							C-828.8,59-828.8,59.3-828.8,59.6z"/>
					</g>
					<g>
						<path class="st4" d="M-849.5,59.1l1.4,16.9h-3.7l-2.5-16.4c-0.2-1.1,0.7-2.1,1.8-2.1h1.2C-850.4,57.4-849.6,58.1-849.5,59.1z"
							/>
						<path class="st19" d="M-845.8,59.2l0.6,16.8h-2.8l-1.4-16.6c-0.1-1.1,0.7-2,1.8-2h0C-846.7,57.4-845.9,58.2-845.8,59.2z"/>
						<path class="st19" d="M-854.4,59l2.6,17c-1.6,0-3-1.2-3.4-2.8l-2.8-13.6c-0.2-1.1,0.6-2.2,1.8-2.2l0,0
							C-855.3,57.4-854.5,58.1-854.4,59z"/>
					</g>
				</g>
			</g>
		</g>
	</g>
</g>
<path class="st20" d="M-856.6,51.9c0,0-2.2,2.1-1.2,6.4"/>
<path class="st20" d="M-831,51.8c0,0,4.1,1.1,2.2,7.1"/>
<path class="st0" d="M780,0H20C9,0,0,9,0,20v301v17v242c0,11,9,20,20,20h760c11,0,20-9,20-20V338v-17V20C800,9,791,0,780,0z"/>
<linearGradient id="SVGID_2_" gradientUnits="userSpaceOnUse" x1="-14.0071" y1="-642.72" x2="785.9929" y2="-42.7201" gradientTransform="matrix(1 0 0 -1 0 602)">
	<stop  offset="0" style="stop-color:#FFFFFF;stop-opacity:0"/>
	<stop  offset="1" style="stop-color:#FFFFFF;stop-opacity:0.2"/>
</linearGradient>
<path class="st21" d="M6,644.7h760c11,0,20,9,20,20v560c0,11-9,20-20,20H6c-11,0-20-9-20-20v-560C-14,653.7-5,644.7,6,644.7z"/>
<path class="st20" d="M49.4,51.9c0,0-2.2,2.1-1.2,6.4"/>
<g>
	<g>
		<g>
			<g>
				<path class="st7" d="M273.2,155.7c0,1.3-0.1,2.5-0.3,3.8l-0.4,2.8h-72.2v0l-0.4-2.8c-0.2-1.3-0.3-2.5-0.3-3.8c0,0,0,0,0,0
					c0-0.7,0-1.5,0.1-2.2c0.2-3.3,1-6.4,2.3-9.2c0.5-1.1,1.2-2.2,1.9-3.2c1.2-1.7,2.7-3.2,4.4-4.3c0.2-0.2,0.5-0.3,0.7-0.5
					c0.3-0.2,0.5-0.3,0.8-0.5c0.2-0.1,0.5-0.3,0.7-0.4c2.2-1.2,4.7-2.1,7.2-2.8c0.1,0,0.1,0,0.2-0.1c1.9-0.5,3.8-0.8,5.8-1
					c0,0,0,0,0.1,0c1-0.1,2.1-0.1,3.2-0.1h8.2c0,0,0,0,0,0h10.8c0.4,0,0.8,0,1.2,0c0.4,0,0.8,0,1.1,0c0.3,0,0.6,0,0.9,0.1
					c0,0,0,0,0.1,0c1.3,0.1,2.6,0.3,3.8,0.5c0.3,0,0.6,0.1,0.8,0.2c0,0,0,0,0,0c3.4,0.7,6.6,1.9,9.4,3.5c0.4,0.2,0.8,0.4,1.1,0.7
					c0.1,0,0.1,0.1,0.2,0.1c0.1,0.1,0.3,0.2,0.4,0.3c0.1,0,0.1,0.1,0.2,0.1c1.9,1.3,3.5,3.1,4.7,5.1c0,0,0,0,0,0
					c0.4,0.7,0.8,1.3,1.1,2c1.3,2.7,2.1,5.9,2.3,9.1v0C273.2,154.2,273.2,154.9,273.2,155.7z"/>
				<g>
					<path class="st12" d="M207.8,132.5c0,0-6.6,1.8-4.4,7.9c2.2,6.1,14,7.2,16.1,5.7L207.8,132.5z"/>
					<path class="st13" d="M214.5,122.8c0,0-10.4,4.6-5.4,14.2c5,9.5,20.5,14.1,27.1,10.8C236.3,147.8,215.3,138.4,214.5,122.8z"/>
					<path class="st12" d="M223.9,109.1c0,0-9.4,3.2-9.4,13.7s11.5,21.4,21.7,25s20.4-1.7,20.4-1.7s-26.9-7.4-31.2-26.2
						C224.5,115.9,223.9,109.1,223.9,109.1z"/>
					<path class="st13" d="M269.7,142.2C269.7,142.2,269.7,142.2,269.7,142.2c-0.3,2.5-2.6,4.8-8.3,4.5c-1.7-0.1-3.4-0.3-5-0.5
						c-8.6-1.3-15.2-4.6-20.2-8.6c-2.3-1.9-4.3-3.9-6-6c-4.7-5.8-6.9-12-7.3-15.6c-0.3-2.7,0.2-4.9,1-6.7c1.6-3.6,4.5-5.3,4.5-5.3
						c0,0.2,0,0.3,0,0.5c0.5,7.7,3.6,13.7,7.8,18.3c0.2,0.2,0.4,0.4,0.6,0.7c0,0,0.1,0.1,0.1,0.1c1.2,1.2,2.4,2.3,3.7,3.4
						c0,0,0,0,0,0c2.4,1.9,4.9,3.5,7.4,4.7c7.7,4,15,5.4,16.5,5.3c0,0,0.1,0,0.1,0c0.2,0,0.4,0,0.6,0
						C268.1,137.3,269.9,139.8,269.7,142.2z"/>
					<path class="st12" d="M265.4,137c-0.1,0-0.3,0.1-0.4,0.1c-3.6,0.9-9.6,0.1-18-5.5c-2-1.3-4-2.8-6.2-4.7c0,0,0,0,0,0
						c-1.4-1.2-2.6-2.3-3.7-3.4c0,0-0.1-0.1-0.1-0.1c-0.2-0.2-0.4-0.4-0.6-0.6c-7.9-8.2-8.6-14.5-7.8-18.4c0.6-2.9,2.1-4.4,2.1-4.4
						c0,0,0,0,0,0c0.4,2.4,1.2,4.6,2.4,6.5c0.9,1.6,2.1,3,3.3,4.2c6.7,6.7,16.8,8.8,16.8,8.8c0.7,0.1,1.4,0.3,2.1,0.5
						c5.7,2.1,12.5,8.8,13.7,12.3C269.4,134.1,268.2,136.1,265.4,137z"/>
					<path class="st13" d="M255.2,120.2c-0.8,1.5-3.1,2.2-8.3,0.6c-4.6-1.5-8.1-4.8-10.6-8.3c-1.4-2-2.5-4-3.3-5.8
						c-1.6-3.4-2.3-6.1-2.4-6.5c0,0,0,0,0,0c1.9,2,3.8,3.5,5.7,4.6c6.7,3.8,13.5,3.7,17.3,8.7C254.5,114.5,256.2,118.1,255.2,120.2z
						"/>
				</g>
				<g>
					<g>
						<g>
							<path class="st14" d="M264.1,157.7l-0.7,4.6l-0.5,3.2l-5.2,34h-9.5l2.7-31.4l0.5-5.8l0.4-4.9v0l0.1-0.7
								c0.2-2.4,2.2-4.2,4.6-4.2h3.2C262.4,152.5,264.5,154.9,264.1,157.7z"/>
							<g>
								<path class="st14" d="M242.5,157.2l-0.2,5.1l-0.2,4.8l-1.1,32.4h-9.5l-1.1-32.5l-0.2-4.7l-0.2-5.1c-0.1-2.6,2-4.7,4.6-4.7
									h3.2C240.5,152.5,242.6,154.6,242.5,157.2z"/>
							</g>
							<path class="st15" d="M251.8,157.4L251.8,157.4l-0.4,4.9l-0.5,5.8l-2.7,31.4h-7.1l1.1-32.4l0.2-4.8l0.2-5.1l0-0.3
								c0.1-2.5,2.1-4.4,4.6-4.4h0.1C249.9,152.5,252,154.8,251.8,157.4z"/>
							<path class="st15" d="M273.3,158l-0.4,2.1l-0.4,2.2l-1.2,6.2l-4.9,24c-0.8,4.1-4.4,7-8.6,7l5.2-34l0.5-3.2l0.7-4.6l0.2-1.3
								c0.2-1.1,0.7-2.1,1.5-2.8c0.8-0.7,1.9-1.1,3-1.1c2,0,3.7,1.3,4.3,3v0c0,0.1,0,0.1,0.1,0.2C273.4,156.4,273.5,157.2,273.3,158
								z"/>
						</g>
						<g>
							<path class="st14" d="M220.8,156.7l3.6,42.8h-9.5l-6.3-41.8c-0.4-2.8,1.7-5.3,4.5-5.3h3.2
								C218.6,152.5,220.6,154.3,220.8,156.7z"/>
							<path class="st15" d="M230.1,156.9l1.4,42.6h-7.1l-3.6-42.1c-0.2-2.7,1.9-5,4.6-5h0.1C228,152.5,230.1,154.4,230.1,156.9z"/>
							<path class="st15" d="M208.4,156.4l6.6,43.1c-4.2,0-7.7-2.9-8.6-7l-7-34.5c-0.6-2.8,1.6-5.5,4.5-5.5h0
								C206.1,152.5,208,154.1,208.4,156.4z"/>
						</g>
					</g>
				</g>
			</g>
		</g>
	</g>
	<g>
		<g>
			<g>
				<path class="st7" d="M160.9,155.7c0,1.3-0.1,2.5-0.3,3.8l-0.4,2.8H87.9v0l-0.4-2.8c-0.2-1.3-0.3-2.5-0.3-3.8c0,0,0,0,0,0
					c0-0.7,0-1.5,0.1-2.2c0.2-3.3,1-6.4,2.3-9.2c0.5-1.1,1.2-2.2,1.9-3.2c1.2-1.7,2.7-3.2,4.4-4.3c0.2-0.2,0.5-0.3,0.7-0.5
					c0.3-0.2,0.5-0.3,0.8-0.5c0.2-0.1,0.5-0.3,0.7-0.4c2.2-1.2,4.7-2.1,7.2-2.8c0.1,0,0.1,0,0.2-0.1c1.9-0.5,3.8-0.8,5.8-1
					c0,0,0,0,0.1,0c1-0.1,2.1-0.1,3.2-0.1h8.2c0,0,0,0,0,0h10.8c0.4,0,0.8,0,1.2,0c0.4,0,0.8,0,1.1,0c0.3,0,0.6,0,0.9,0.1
					c0,0,0,0,0.1,0c1.3,0.1,2.6,0.3,3.8,0.5c0.3,0,0.6,0.1,0.8,0.2c0,0,0,0,0,0c3.4,0.7,6.6,1.9,9.4,3.5c0.4,0.2,0.8,0.4,1.1,0.7
					c0.1,0,0.1,0.1,0.2,0.1c0.1,0.1,0.3,0.2,0.4,0.3c0.1,0,0.1,0.1,0.2,0.1c1.9,1.3,3.5,3.1,4.7,5.1c0,0,0,0,0,0
					c0.4,0.7,0.8,1.3,1.1,2c1.3,2.7,2.1,5.9,2.3,9.1v0C160.9,154.2,160.9,154.9,160.9,155.7z"/>
				<g>
					<path class="st8" d="M95.5,132.5c0,0-6.6,1.8-4.4,7.9c2.2,6.1,14,7.2,16.1,5.7L95.5,132.5z"/>
					<path class="st9" d="M102.2,122.9c0,0-10.4,4.6-5.4,14.2c5,9.5,20.5,14.1,27.1,10.8C123.9,147.8,102.9,138.4,102.2,122.9z"/>
					<path class="st8" d="M111.6,109.2c0,0-9.4,3.2-9.4,13.7s11.5,21.4,21.7,25c10.2,3.6,20.4-1.7,20.4-1.7s-26.9-7.4-31.2-26.2
						C112.2,115.9,111.6,109.2,111.6,109.2z"/>
					<path class="st9" d="M157.4,142.2C157.4,142.2,157.4,142.2,157.4,142.2c-0.3,2.5-2.6,4.8-8.3,4.5c-1.7-0.1-3.4-0.3-5-0.5
						c-8.6-1.3-15.2-4.6-20.2-8.6c-2.3-1.9-4.3-3.9-6-6c-4.7-5.8-6.9-12-7.3-15.6c-0.3-2.7,0.2-4.9,1-6.7c1.6-3.6,4.5-5.3,4.5-5.3
						c0,0.2,0,0.3,0,0.5c0.5,7.7,3.6,13.7,7.8,18.3c0.2,0.2,0.4,0.4,0.6,0.7c0,0,0.1,0.1,0.1,0.1c1.2,1.2,2.4,2.3,3.7,3.4
						c0,0,0,0,0,0c2.4,1.9,4.9,3.5,7.4,4.7c7.7,4,15,5.4,16.5,5.3c0,0,0.1,0,0.1,0c0.2,0,0.4,0,0.6,0
						C155.8,137.3,157.6,139.8,157.4,142.2z"/>
					<path class="st8" d="M153,137c-0.1,0-0.3,0.1-0.4,0.1c-3.6,0.9-9.6,0.1-18-5.5c-2-1.3-4-2.8-6.2-4.7c0,0,0,0,0,0
						c-1.4-1.2-2.6-2.3-3.7-3.4c0,0-0.1-0.1-0.1-0.1c-0.2-0.2-0.4-0.4-0.6-0.6c-7.9-8.2-8.6-14.5-7.8-18.4c0.6-2.9,2.1-4.4,2.1-4.4
						c0,0,0,0,0,0c0.4,2.4,1.2,4.6,2.4,6.5c0.9,1.6,2.1,3,3.3,4.2c6.7,6.7,16.8,8.8,16.8,8.8c0.7,0.1,1.4,0.3,2.1,0.5
						c5.7,2.1,12.5,8.8,13.7,12.3C157.1,134.1,155.9,136.1,153,137z"/>
					<path class="st9" d="M142.8,120.2c-0.8,1.5-3.1,2.2-8.3,0.6c-4.6-1.5-8.1-4.8-10.6-8.3c-1.4-2-2.5-4-3.3-5.8
						c-1.6-3.4-2.3-6.1-2.4-6.5c0,0,0,0,0,0c1.9,2,3.8,3.5,5.7,4.6c6.7,3.8,13.5,3.7,17.3,8.7C142.2,114.5,143.9,118.1,142.8,120.2z
						"/>
				</g>
				<g>
					<g>
						<g>
							<path class="st10" d="M151.8,157.7l-0.7,4.6l-0.5,3.2l-5.2,34h-9.5l2.7-31.4l0.5-5.8l0.4-4.9v0l0.1-0.7
								c0.2-2.4,2.2-4.2,4.6-4.2h3.2C150,152.5,152.2,155,151.8,157.7z"/>
							<g>
								<path class="st10" d="M130.2,157.2l-0.2,5.1l-0.2,4.8l-1.1,32.4h-9.5l-1.1-32.5l-0.2-4.7l-0.2-5.1c-0.1-2.6,2-4.7,4.6-4.7
									h3.2C128.2,152.5,130.3,154.6,130.2,157.2z"/>
							</g>
							<path class="st11" d="M139.5,157.4L139.5,157.4l-0.4,4.9l-0.5,5.8l-2.7,31.4h-7.1l1.1-32.4l0.2-4.8l0.2-5.1l0-0.3
								c0.1-2.5,2.1-4.4,4.6-4.4h0.1C137.6,152.5,139.7,154.8,139.5,157.4z"/>
							<path class="st11" d="M161,158l-0.4,2.1l-0.4,2.2l-1.2,6.2l-4.9,24c-0.8,4.1-4.4,7-8.6,7l5.2-34l0.5-3.2l0.7-4.6l0.2-1.3
								c0.2-1.1,0.7-2.1,1.5-2.8c0.8-0.7,1.9-1.1,3-1.1c2,0,3.7,1.3,4.3,3v0c0,0.1,0,0.1,0.1,0.2C161.1,156.4,161.2,157.2,161,158z"
								/>
						</g>
						<g>
							<path class="st10" d="M108.5,156.7l3.6,42.8h-9.5l-6.3-41.8c-0.4-2.8,1.7-5.3,4.5-5.3h3.2
								C106.3,152.5,108.3,154.3,108.5,156.7z"/>
							<path class="st11" d="M117.8,156.9l1.4,42.6h-7.1l-3.6-42.1c-0.2-2.7,1.9-5,4.6-5h0.1C115.7,152.5,117.7,154.5,117.8,156.9z"
								/>
							<path class="st11" d="M96,156.4l6.6,43.1c-4.2,0-7.7-2.9-8.6-7L87,158c-0.6-2.8,1.6-5.5,4.5-5.5h0
								C93.8,152.5,95.7,154.1,96,156.4z"/>
						</g>
					</g>
				</g>
			</g>
		</g>
	</g>
	<g>
		<g>
			<g>
				<path class="st7" d="M381.2,156.2c0,1.3-0.1,2.5-0.3,3.8l-0.4,2.8h-72.2v0l-0.4-2.8c-0.2-1.3-0.3-2.5-0.3-3.8c0,0,0,0,0,0
					c0-0.7,0-1.5,0.1-2.2c0.2-3.3,1-6.4,2.3-9.2c0.5-1.1,1.2-2.2,1.9-3.2c1.2-1.7,2.7-3.2,4.4-4.3c0.2-0.2,0.5-0.3,0.7-0.5
					c0.3-0.2,0.5-0.3,0.8-0.5c0.2-0.1,0.5-0.3,0.7-0.4c2.2-1.2,4.7-2.1,7.2-2.8c0.1,0,0.1,0,0.2-0.1c1.9-0.5,3.8-0.8,5.8-1
					c0,0,0,0,0.1,0c1-0.1,2.1-0.1,3.2-0.1h8.2c0,0,0,0,0,0h10.8c0.4,0,0.8,0,1.2,0c0.4,0,0.8,0,1.1,0c0.3,0,0.6,0,0.9,0.1
					c0,0,0,0,0.1,0c1.3,0.1,2.6,0.3,3.8,0.5c0.3,0,0.6,0.1,0.8,0.2c0,0,0,0,0,0c3.4,0.7,6.6,1.9,9.4,3.5c0.4,0.2,0.8,0.4,1.1,0.7
					c0.1,0,0.1,0.1,0.2,0.1c0.1,0.1,0.3,0.2,0.4,0.3c0.1,0,0.1,0.1,0.2,0.1c1.9,1.3,3.5,3.1,4.7,5.1c0,0,0,0,0,0
					c0.4,0.7,0.8,1.3,1.1,2c1.3,2.7,2.1,5.9,2.3,9.1v0C381.2,154.7,381.2,155.4,381.2,156.2z"/>
				<g>
					<path class="st4" d="M315.8,133c0,0-6.6,1.8-4.4,7.9c2.2,6.1,14,7.2,16.1,5.7L315.8,133z"/>
					<path class="st16" d="M322.5,123.4c0,0-10.4,4.6-5.4,14.2c5,9.5,20.5,14.1,27.1,10.8C344.2,148.3,323.2,138.9,322.5,123.4z"/>
					<path class="st4" d="M331.9,109.7c0,0-9.4,3.2-9.4,13.7s11.5,21.4,21.7,25c10.2,3.6,20.4-1.7,20.4-1.7s-26.9-7.4-31.2-26.2
						C332.5,116.4,331.9,109.7,331.9,109.7z"/>
					<path class="st16" d="M377.6,142.7C377.6,142.7,377.6,142.7,377.6,142.7c-0.3,2.5-2.6,4.8-8.3,4.5c-1.7-0.1-3.4-0.3-5-0.5
						c-8.6-1.3-15.2-4.6-20.2-8.6c-2.3-1.9-4.3-3.9-6-6c-4.7-5.8-6.9-12-7.3-15.6c-0.3-2.7,0.2-4.9,1-6.7c1.6-3.6,4.5-5.3,4.5-5.3
						c0,0.2,0,0.3,0,0.5c0.5,7.7,3.6,13.7,7.8,18.3c0.2,0.2,0.4,0.4,0.6,0.7c0,0,0.1,0.1,0.1,0.1c1.2,1.2,2.4,2.3,3.7,3.4
						c0,0,0,0,0,0c2.4,1.9,4.9,3.5,7.4,4.7c7.7,4,15,5.4,16.5,5.3c0,0,0.1,0,0.1,0c0.2,0,0.4,0,0.6,0
						C376.1,137.8,377.9,140.3,377.6,142.7z"/>
					<path class="st4" d="M373.3,137.5c-0.1,0-0.3,0.1-0.4,0.1c-3.6,0.9-9.6,0.1-18-5.5c-2-1.3-4-2.8-6.2-4.7c0,0,0,0,0,0
						c-1.4-1.2-2.6-2.3-3.7-3.4c0,0-0.1-0.1-0.1-0.1c-0.2-0.2-0.4-0.4-0.6-0.6c-7.9-8.2-8.6-14.5-7.8-18.4c0.6-2.9,2.1-4.4,2.1-4.4
						c0,0,0,0,0,0c0.4,2.4,1.2,4.6,2.4,6.5c0.9,1.6,2.1,3,3.3,4.2c6.7,6.7,16.8,8.8,16.8,8.8c0.7,0.1,1.4,0.3,2.1,0.5
						c5.7,2.1,12.5,8.8,13.7,12.3C377.4,134.6,376.2,136.6,373.3,137.5z"/>
					<path class="st16" d="M363.1,120.7c-0.8,1.5-3.1,2.2-8.3,0.6c-4.6-1.5-8.1-4.8-10.6-8.3c-1.4-2-2.5-4-3.3-5.8
						c-1.6-3.4-2.3-6.1-2.4-6.5c0,0,0,0,0,0c1.9,2,3.8,3.5,5.7,4.6c6.7,3.8,13.5,3.7,17.3,8.7C362.5,115,364.2,118.6,363.1,120.7z"
						/>
				</g>
				<g>
					<g>
						<g>
							<path class="st17" d="M372.1,158.2l-0.7,4.6l-0.5,3.2l-5.2,34h-9.5l2.7-31.4l0.5-5.8l0.4-4.9v0l0.1-0.7
								c0.2-2.4,2.2-4.2,4.6-4.2h3.2C370.3,153,372.5,155.5,372.1,158.2z"/>
							<g>
								<path class="st17" d="M350.5,157.7l-0.2,5.1l-0.2,4.8l-1.1,32.4h-9.5l-1.1-32.5l-0.2-4.7l-0.2-5.1c-0.1-2.6,2-4.7,4.6-4.7
									h3.2C348.5,153,350.6,155.1,350.5,157.7z"/>
							</g>
							<path class="st18" d="M359.8,157.9L359.8,157.9l-0.4,4.9l-0.5,5.8l-2.7,31.4h-7.1l1.1-32.4l0.2-4.8l0.2-5.1l0-0.3
								c0.1-2.5,2.1-4.4,4.6-4.4h0.1C357.9,153,360,155.3,359.8,157.9z"/>
							<path class="st18" d="M381.3,158.5l-0.4,2.1l-0.4,2.2l-1.2,6.2l-4.9,24c-0.8,4.1-4.4,7-8.6,7l5.2-34l0.5-3.2l0.7-4.6l0.2-1.3
								c0.2-1.1,0.7-2.1,1.5-2.8c0.8-0.7,1.9-1.1,3-1.1c2,0,3.7,1.3,4.3,3v0c0,0.1,0,0.1,0.1,0.2
								C381.4,156.9,381.4,157.7,381.3,158.5z"/>
						</g>
						<g>
							<path class="st17" d="M328.8,157.2l3.6,42.8h-9.5l-6.3-41.8c-0.4-2.8,1.7-5.3,4.5-5.3h3.2C326.6,153,328.6,154.8,328.8,157.2
								z"/>
							<path class="st18" d="M338.1,157.4l1.4,42.6h-7.1l-3.6-42.1c-0.2-2.7,1.9-5,4.6-5h0.1C336,153,338,155,338.1,157.4z"/>
							<path class="st18" d="M316.3,156.9l6.6,43.1c-4.2,0-7.7-2.9-8.6-7l-7-34.5c-0.6-2.8,1.6-5.5,4.5-5.5l0,0
								C314,153,316,154.6,316.3,156.9z"/>
						</g>
					</g>
				</g>
			</g>
		</g>
	</g>
	<g>
		<g>
			<g>
				<path class="st7" d="M603.2,155.7c0,1.3-0.1,2.5-0.3,3.8l-0.4,2.8h-72.2v0l-0.4-2.8c-0.2-1.3-0.3-2.5-0.3-3.8c0,0,0,0,0,0
					c0-0.7,0-1.5,0.1-2.2c0.2-3.3,1-6.4,2.3-9.2c0.5-1.1,1.2-2.2,1.9-3.2c1.2-1.7,2.7-3.2,4.4-4.3c0.2-0.2,0.5-0.3,0.7-0.5
					c0.3-0.2,0.5-0.3,0.8-0.5c0.2-0.1,0.5-0.3,0.7-0.4c2.2-1.2,4.7-2.1,7.2-2.8c0.1,0,0.1,0,0.2-0.1c1.9-0.5,3.8-0.8,5.8-1
					c0,0,0,0,0.1,0c1-0.1,2.1-0.1,3.2-0.1h8.2c0,0,0,0,0,0h10.8c0.4,0,0.8,0,1.2,0c0.4,0,0.8,0,1.1,0c0.3,0,0.6,0,0.9,0.1
					c0,0,0,0,0.1,0c1.3,0.1,2.6,0.3,3.8,0.5c0.3,0,0.6,0.1,0.8,0.2c0,0,0,0,0,0c3.4,0.7,6.6,1.9,9.4,3.5c0.4,0.2,0.8,0.4,1.1,0.7
					c0.1,0,0.1,0.1,0.2,0.1c0.1,0.1,0.3,0.2,0.4,0.3c0.1,0,0.1,0.1,0.2,0.1c1.9,1.3,3.5,3.1,4.7,5.1c0,0,0,0,0,0
					c0.4,0.7,0.8,1.3,1.1,2c1.3,2.7,2.1,5.9,2.3,9.1v0C603.2,154.2,603.2,154.9,603.2,155.7z"/>
				<g>
					<path class="st12" d="M537.8,132.5c0,0-6.6,1.8-4.4,7.9s14,7.2,16.1,5.7L537.8,132.5z"/>
					<path class="st13" d="M544.5,122.8c0,0-10.4,4.6-5.4,14.2c5,9.5,20.5,14.1,27.1,10.8C566.3,147.8,545.3,138.4,544.5,122.8z"/>
					<path class="st12" d="M553.9,109.1c0,0-9.4,3.2-9.4,13.7s11.5,21.4,21.7,25s20.4-1.7,20.4-1.7s-26.9-7.4-31.2-26.2
						C554.5,115.9,553.9,109.1,553.9,109.1z"/>
					<path class="st13" d="M599.7,142.2C599.7,142.2,599.7,142.2,599.7,142.2c-0.3,2.5-2.6,4.8-8.3,4.5c-1.7-0.1-3.4-0.3-5-0.5
						c-8.6-1.3-15.2-4.6-20.2-8.6c-2.3-1.9-4.3-3.9-6-6c-4.7-5.8-6.9-12-7.3-15.6c-0.3-2.7,0.2-4.9,1-6.7c1.6-3.6,4.5-5.3,4.5-5.3
						c0,0.2,0,0.3,0,0.5c0.5,7.7,3.6,13.7,7.8,18.3c0.2,0.2,0.4,0.4,0.6,0.7c0,0,0.1,0.1,0.1,0.1c1.2,1.2,2.4,2.3,3.7,3.4
						c0,0,0,0,0,0c2.4,1.9,4.9,3.5,7.4,4.7c7.7,4,15,5.4,16.5,5.3c0,0,0.1,0,0.1,0c0.2,0,0.4,0,0.6,0
						C598.1,137.3,599.9,139.8,599.7,142.2z"/>
					<path class="st12" d="M595.4,137c-0.1,0-0.3,0.1-0.4,0.1c-3.6,0.9-9.6,0.1-18-5.5c-2-1.3-4-2.8-6.2-4.7c0,0,0,0,0,0
						c-1.4-1.2-2.6-2.3-3.7-3.4c0,0-0.1-0.1-0.1-0.1c-0.2-0.2-0.4-0.4-0.6-0.6c-7.9-8.2-8.6-14.5-7.8-18.4c0.6-2.9,2.1-4.4,2.1-4.4
						c0,0,0,0,0,0c0.4,2.4,1.2,4.6,2.4,6.5c0.9,1.6,2.1,3,3.3,4.2c6.7,6.7,16.8,8.8,16.8,8.8c0.7,0.1,1.4,0.3,2.1,0.5
						c5.7,2.1,12.5,8.8,13.7,12.3C599.4,134.1,598.2,136.1,595.4,137z"/>
					<path class="st13" d="M585.2,120.2c-0.8,1.5-3.1,2.2-8.3,0.6c-4.6-1.5-8.1-4.8-10.6-8.3c-1.4-2-2.5-4-3.3-5.8
						c-1.6-3.4-2.3-6.1-2.4-6.5c0,0,0,0,0,0c1.9,2,3.8,3.5,5.7,4.6c6.7,3.8,13.5,3.7,17.3,8.7C584.5,114.5,586.2,118.1,585.2,120.2z
						"/>
				</g>
				<g>
					<g>
						<g>
							<path class="st14" d="M594.1,157.7l-0.7,4.6l-0.5,3.2l-5.2,34h-9.5l2.7-31.4l0.5-5.8l0.4-4.9v0l0.1-0.7
								c0.2-2.4,2.2-4.2,4.6-4.2h3.2C592.4,152.5,594.5,154.9,594.1,157.7z"/>
							<g>
								<path class="st14" d="M572.5,157.2l-0.2,5.1l-0.2,4.8l-1.1,32.4h-9.5l-1.1-32.5l-0.2-4.7l-0.2-5.1c-0.1-2.6,2-4.7,4.6-4.7
									h3.2C570.5,152.5,572.6,154.6,572.5,157.2z"/>
							</g>
							<path class="st15" d="M581.8,157.4L581.8,157.4l-0.4,4.9l-0.5,5.8l-2.7,31.4h-7.1l1.1-32.4l0.2-4.8l0.2-5.1l0-0.3
								c0.1-2.5,2.1-4.4,4.6-4.4h0.1C579.9,152.5,582,154.8,581.8,157.4z"/>
							<path class="st15" d="M603.3,158l-0.4,2.1l-0.4,2.2l-1.2,6.2l-4.9,24c-0.8,4.1-4.4,7-8.6,7l5.2-34l0.5-3.2l0.7-4.6l0.2-1.3
								c0.2-1.1,0.7-2.1,1.5-2.8c0.8-0.7,1.9-1.1,3-1.1c2,0,3.7,1.3,4.3,3v0c0,0.1,0,0.1,0.1,0.2C603.4,156.4,603.5,157.2,603.3,158
								z"/>
						</g>
						<g>
							<path class="st14" d="M550.8,156.7l3.6,42.8h-9.5l-6.3-41.8c-0.4-2.8,1.7-5.3,4.5-5.3h3.2
								C548.6,152.5,550.6,154.3,550.8,156.7z"/>
							<path class="st15" d="M560.1,156.9l1.4,42.6h-7.1l-3.6-42.1c-0.2-2.7,1.9-5,4.6-5h0.1C558,152.5,560.1,154.4,560.1,156.9z"/>
							<path class="st15" d="M538.4,156.4l6.6,43.1c-4.2,0-7.7-2.9-8.6-7l-7-34.5c-0.6-2.8,1.6-5.5,4.5-5.5h0
								C536.1,152.5,538,154.1,538.4,156.4z"/>
						</g>
					</g>
				</g>
			</g>
		</g>
	</g>
	<g>
		<g>
			<g>
				<path class="st7" d="M490.9,155.7c0,1.3-0.1,2.5-0.3,3.8l-0.4,2.8h-72.2v0l-0.4-2.8c-0.2-1.3-0.3-2.5-0.3-3.8c0,0,0,0,0,0
					c0-0.7,0-1.5,0.1-2.2c0.2-3.3,1-6.4,2.3-9.2c0.5-1.1,1.2-2.2,1.9-3.2c1.2-1.7,2.7-3.2,4.4-4.3c0.2-0.2,0.5-0.3,0.7-0.5
					c0.3-0.2,0.5-0.3,0.8-0.5c0.2-0.1,0.5-0.3,0.7-0.4c2.2-1.2,4.7-2.1,7.2-2.8c0.1,0,0.1,0,0.2-0.1c1.9-0.5,3.8-0.8,5.8-1
					c0,0,0,0,0.1,0c1-0.1,2.1-0.1,3.2-0.1h8.2c0,0,0,0,0,0h10.8c0.4,0,0.8,0,1.2,0c0.4,0,0.8,0,1.1,0c0.3,0,0.6,0,0.9,0.1
					c0,0,0,0,0.1,0c1.3,0.1,2.6,0.3,3.8,0.5c0.3,0,0.6,0.1,0.8,0.2c0,0,0,0,0,0c3.4,0.7,6.6,1.9,9.4,3.5c0.4,0.2,0.8,0.4,1.1,0.7
					c0.1,0,0.1,0.1,0.2,0.1c0.1,0.1,0.3,0.2,0.4,0.3c0.1,0,0.1,0.1,0.2,0.1c1.9,1.3,3.5,3.1,4.7,5.1c0,0,0,0,0,0
					c0.4,0.7,0.8,1.3,1.1,2c1.3,2.7,2.1,5.9,2.3,9.1v0C490.9,154.2,490.9,154.9,490.9,155.7z"/>
				<g>
					<path class="st8" d="M425.5,132.5c0,0-6.6,1.8-4.4,7.9s14,7.2,16.1,5.7L425.5,132.5z"/>
					<path class="st9" d="M432.2,122.9c0,0-10.4,4.6-5.4,14.2c5,9.5,20.5,14.1,27.1,10.8C453.9,147.8,432.9,138.4,432.2,122.9z"/>
					<path class="st8" d="M441.6,109.2c0,0-9.4,3.2-9.4,13.7s11.5,21.4,21.7,25c10.2,3.6,20.4-1.7,20.4-1.7s-26.9-7.4-31.2-26.2
						C442.2,115.9,441.6,109.2,441.6,109.2z"/>
					<path class="st9" d="M487.4,142.2C487.4,142.2,487.4,142.2,487.4,142.2c-0.3,2.5-2.6,4.8-8.3,4.5c-1.7-0.1-3.4-0.3-5-0.5
						c-8.6-1.3-15.2-4.6-20.2-8.6c-2.3-1.9-4.3-3.9-6-6c-4.7-5.8-6.9-12-7.3-15.6c-0.3-2.7,0.2-4.9,1-6.7c1.6-3.6,4.5-5.3,4.5-5.3
						c0,0.2,0,0.3,0,0.5c0.5,7.7,3.6,13.7,7.8,18.3c0.2,0.2,0.4,0.4,0.6,0.7c0,0,0.1,0.1,0.1,0.1c1.2,1.2,2.4,2.3,3.7,3.4
						c0,0,0,0,0,0c2.4,1.9,4.9,3.5,7.4,4.7c7.7,4,15,5.4,16.5,5.3c0,0,0.1,0,0.1,0c0.2,0,0.4,0,0.6,0
						C485.8,137.3,487.6,139.8,487.4,142.2z"/>
					<path class="st8" d="M483,137c-0.1,0-0.3,0.1-0.4,0.1c-3.6,0.9-9.6,0.1-18-5.5c-2-1.3-4-2.8-6.2-4.7c0,0,0,0,0,0
						c-1.4-1.2-2.6-2.3-3.7-3.4c0,0-0.1-0.1-0.1-0.1c-0.2-0.2-0.4-0.4-0.6-0.6c-7.9-8.2-8.6-14.5-7.8-18.4c0.6-2.9,2.1-4.4,2.1-4.4
						c0,0,0,0,0,0c0.4,2.4,1.2,4.6,2.4,6.5c0.9,1.6,2.1,3,3.3,4.2c6.7,6.7,16.8,8.8,16.8,8.8c0.7,0.1,1.4,0.3,2.1,0.5
						c5.7,2.1,12.5,8.8,13.7,12.3C487.1,134.1,485.9,136.1,483,137z"/>
					<path class="st9" d="M472.8,120.2c-0.8,1.5-3.1,2.2-8.3,0.6c-4.6-1.5-8.1-4.8-10.6-8.3c-1.4-2-2.5-4-3.3-5.8
						c-1.6-3.4-2.3-6.1-2.4-6.5c0,0,0,0,0,0c1.9,2,3.8,3.5,5.7,4.6c6.7,3.8,13.5,3.7,17.3,8.7C472.2,114.5,473.9,118.1,472.8,120.2z
						"/>
				</g>
				<g>
					<g>
						<g>
							<path class="st10" d="M481.8,157.7l-0.7,4.6l-0.5,3.2l-5.2,34h-9.5l2.7-31.4l0.5-5.8l0.4-4.9v0l0.1-0.7
								c0.2-2.4,2.2-4.2,4.6-4.2h3.2C480,152.5,482.2,155,481.8,157.7z"/>
							<g>
								<path class="st10" d="M460.2,157.2l-0.2,5.1l-0.2,4.8l-1.1,32.4h-9.5l-1.1-32.5l-0.2-4.7l-0.2-5.1c-0.1-2.6,2-4.7,4.6-4.7
									h3.2C458.2,152.5,460.3,154.6,460.2,157.2z"/>
							</g>
							<path class="st11" d="M469.5,157.4L469.5,157.4l-0.4,4.9l-0.5,5.8l-2.7,31.4h-7.1l1.1-32.4l0.2-4.8l0.2-5.1l0-0.3
								c0.1-2.5,2.1-4.4,4.6-4.4h0.1C467.6,152.5,469.7,154.8,469.5,157.4z"/>
							<path class="st11" d="M491,158l-0.4,2.1l-0.4,2.2l-1.2,6.2l-4.9,24c-0.8,4.1-4.4,7-8.6,7l5.2-34l0.5-3.2l0.7-4.6l0.2-1.3
								c0.2-1.1,0.7-2.1,1.5-2.8c0.8-0.7,1.9-1.1,3-1.1c2,0,3.7,1.3,4.3,3v0c0,0.1,0,0.1,0.1,0.2C491.1,156.4,491.2,157.2,491,158z"
								/>
						</g>
						<g>
							<path class="st10" d="M438.5,156.7l3.6,42.8h-9.5l-6.3-41.8c-0.4-2.8,1.7-5.3,4.5-5.3h3.2
								C436.3,152.5,438.3,154.3,438.5,156.7z"/>
							<path class="st11" d="M447.8,156.9l1.4,42.6h-7.1l-3.6-42.1c-0.2-2.7,1.9-5,4.6-5h0.1C445.7,152.5,447.7,154.5,447.8,156.9z"
								/>
							<path class="st11" d="M426,156.4l6.6,43.1c-4.2,0-7.7-2.9-8.6-7l-7-34.5c-0.6-2.8,1.6-5.5,4.5-5.5h0
								C423.8,152.5,425.7,154.1,426,156.4z"/>
						</g>
					</g>
				</g>
			</g>
		</g>
	</g>
	<g>
		<g>
			<g>
				<path class="st7" d="M711.2,156.2c0,1.3-0.1,2.5-0.3,3.8l-0.4,2.8h-72.2v0l-0.4-2.8c-0.2-1.3-0.3-2.5-0.3-3.8c0,0,0,0,0,0
					c0-0.7,0-1.5,0.1-2.2c0.2-3.3,1-6.4,2.3-9.2c0.5-1.1,1.2-2.2,1.9-3.2c1.2-1.7,2.7-3.2,4.4-4.3c0.2-0.2,0.5-0.3,0.7-0.5
					c0.3-0.2,0.5-0.3,0.8-0.5c0.2-0.1,0.5-0.3,0.7-0.4c2.2-1.2,4.7-2.1,7.2-2.8c0.1,0,0.1,0,0.2-0.1c1.9-0.5,3.8-0.8,5.8-1
					c0,0,0,0,0.1,0c1-0.1,2.1-0.1,3.2-0.1h8.2c0,0,0,0,0,0h10.8c0.4,0,0.8,0,1.2,0c0.4,0,0.8,0,1.1,0c0.3,0,0.6,0,0.9,0.1
					c0,0,0,0,0.1,0c1.3,0.1,2.6,0.3,3.8,0.5c0.3,0,0.6,0.1,0.8,0.2c0,0,0,0,0,0c3.4,0.7,6.6,1.9,9.4,3.5c0.4,0.2,0.8,0.4,1.1,0.7
					c0.1,0,0.1,0.1,0.2,0.1c0.1,0.1,0.3,0.2,0.4,0.3c0.1,0,0.1,0.1,0.2,0.1c1.9,1.3,3.5,3.1,4.7,5.1c0,0,0,0,0,0
					c0.4,0.7,0.8,1.3,1.1,2c1.3,2.7,2.1,5.9,2.3,9.1v0C711.2,154.7,711.2,155.4,711.2,156.2z"/>
				<g>
					<path class="st4" d="M645.8,133c0,0-6.6,1.8-4.4,7.9s14,7.2,16.1,5.7L645.8,133z"/>
					<path class="st16" d="M652.5,123.4c0,0-10.4,4.6-5.4,14.2c5,9.5,20.5,14.1,27.1,10.8C674.2,148.3,653.2,138.9,652.5,123.4z"/>
					<path class="st4" d="M661.9,109.7c0,0-9.4,3.2-9.4,13.7s11.5,21.4,21.7,25c10.2,3.6,20.4-1.7,20.4-1.7s-26.9-7.4-31.2-26.2
						C662.5,116.4,661.9,109.7,661.9,109.7z"/>
					<path class="st16" d="M707.6,142.7C707.6,142.7,707.6,142.7,707.6,142.7c-0.3,2.5-2.6,4.8-8.3,4.5c-1.7-0.1-3.4-0.3-5-0.5
						c-8.6-1.3-15.2-4.6-20.2-8.6c-2.3-1.9-4.3-3.9-6-6c-4.7-5.8-6.9-12-7.3-15.6c-0.3-2.7,0.2-4.9,1-6.7c1.6-3.6,4.5-5.3,4.5-5.3
						c0,0.2,0,0.3,0,0.5c0.5,7.7,3.6,13.7,7.8,18.3c0.2,0.2,0.4,0.4,0.6,0.7c0,0,0.1,0.1,0.1,0.1c1.2,1.2,2.4,2.3,3.7,3.4
						c0,0,0,0,0,0c2.4,1.9,4.9,3.5,7.4,4.7c7.7,4,15,5.4,16.5,5.3c0,0,0.1,0,0.1,0c0.2,0,0.4,0,0.6,0
						C706.1,137.8,707.9,140.3,707.6,142.7z"/>
					<path class="st4" d="M703.3,137.5c-0.1,0-0.3,0.1-0.4,0.1c-3.6,0.9-9.6,0.1-18-5.5c-2-1.3-4-2.8-6.2-4.7c0,0,0,0,0,0
						c-1.4-1.2-2.6-2.3-3.7-3.4c0,0-0.1-0.1-0.1-0.1c-0.2-0.2-0.4-0.4-0.6-0.6c-7.9-8.2-8.6-14.5-7.8-18.4c0.6-2.9,2.1-4.4,2.1-4.4
						c0,0,0,0,0,0c0.4,2.4,1.2,4.6,2.4,6.5c0.9,1.6,2.1,3,3.3,4.2c6.7,6.7,16.8,8.8,16.8,8.8c0.7,0.1,1.4,0.3,2.1,0.5
						c5.7,2.1,12.5,8.8,13.7,12.3C707.4,134.6,706.2,136.6,703.3,137.5z"/>
					<path class="st16" d="M693.1,120.7c-0.8,1.5-3.1,2.2-8.3,0.6c-4.6-1.5-8.1-4.8-10.6-8.3c-1.4-2-2.5-4-3.3-5.8
						c-1.6-3.4-2.3-6.1-2.4-6.5c0,0,0,0,0,0c1.9,2,3.8,3.5,5.7,4.6c6.7,3.8,13.5,3.7,17.3,8.7C692.5,115,694.2,118.6,693.1,120.7z"
						/>
				</g>
				<g>
					<g>
						<g>
							<path class="st17" d="M702.1,158.2l-0.7,4.6l-0.5,3.2l-5.2,34h-9.5l2.7-31.4l0.5-5.8l0.4-4.9v0l0.1-0.7
								c0.2-2.4,2.2-4.2,4.6-4.2h3.2C700.3,153,702.5,155.5,702.1,158.2z"/>
							<g>
								<path class="st17" d="M680.5,157.7l-0.2,5.1l-0.2,4.8l-1.1,32.4h-9.5l-1.1-32.5l-0.2-4.7l-0.2-5.1c-0.1-2.6,2-4.7,4.6-4.7
									h3.2C678.5,153,680.6,155.1,680.5,157.7z"/>
							</g>
							<path class="st18" d="M689.8,157.9L689.8,157.9l-0.4,4.9l-0.5,5.8l-2.7,31.4h-7.1l1.1-32.4l0.2-4.8l0.2-5.1l0-0.3
								c0.1-2.5,2.1-4.4,4.6-4.4h0.1C687.9,153,690,155.3,689.8,157.9z"/>
							<path class="st18" d="M711.3,158.5l-0.4,2.1l-0.4,2.2l-1.2,6.2l-4.9,24c-0.8,4.1-4.4,7-8.6,7l5.2-34l0.5-3.2l0.7-4.6l0.2-1.3
								c0.2-1.1,0.7-2.1,1.5-2.8c0.8-0.7,1.9-1.1,3-1.1c2,0,3.7,1.3,4.3,3v0c0,0.1,0,0.1,0.1,0.2
								C711.4,156.9,711.4,157.7,711.3,158.5z"/>
						</g>
						<g>
							<path class="st17" d="M658.8,157.2l3.6,42.8h-9.5l-6.3-41.8c-0.4-2.8,1.7-5.3,4.5-5.3h3.2C656.6,153,658.6,154.8,658.8,157.2
								z"/>
							<path class="st18" d="M668.1,157.4l1.4,42.6h-7.1l-3.6-42.1c-0.2-2.7,1.9-5,4.6-5h0.1C666,153,668,155,668.1,157.4z"/>
							<path class="st18" d="M646.3,156.9l6.6,43.1c-4.2,0-7.7-2.9-8.6-7l-7-34.5c-0.6-2.8,1.6-5.5,4.5-5.5h0
								C644,153,646,154.6,646.3,156.9z"/>
						</g>
					</g>
				</g>
			</g>
		</g>
	</g>
</g>
<g>
	<g>
		<g>
			<g>
				<path class="st7" d="M273.2,454.6c0,1.3-0.1,2.5-0.3,3.8l-0.4,2.8h-72.2v0l-0.4-2.8c-0.2-1.3-0.3-2.5-0.3-3.8c0,0,0,0,0,0
					c0-0.7,0-1.5,0.1-2.2c0.2-3.3,1-6.4,2.3-9.2c0.5-1.1,1.2-2.2,1.9-3.2c1.2-1.7,2.7-3.2,4.4-4.3c0.2-0.2,0.5-0.3,0.7-0.5
					c0.3-0.2,0.5-0.3,0.8-0.5c0.2-0.1,0.5-0.3,0.7-0.4c2.2-1.2,4.7-2.1,7.2-2.8c0.1,0,0.1,0,0.2-0.1c1.9-0.5,3.8-0.8,5.8-1
					c0,0,0,0,0.1,0c1-0.1,2.1-0.1,3.2-0.1h8.2c0,0,0,0,0,0h10.8c0.4,0,0.8,0,1.2,0c0.4,0,0.8,0,1.1,0c0.3,0,0.6,0,0.9,0.1
					c0,0,0,0,0.1,0c1.3,0.1,2.6,0.3,3.8,0.5c0.3,0,0.6,0.1,0.8,0.2c0,0,0,0,0,0c3.4,0.7,6.6,1.9,9.4,3.5c0.4,0.2,0.8,0.4,1.1,0.7
					c0.1,0,0.1,0.1,0.2,0.1c0.1,0.1,0.3,0.2,0.4,0.3c0.1,0,0.1,0.1,0.2,0.1c1.9,1.3,3.5,3.1,4.7,5.1c0,0,0,0,0,0
					c0.4,0.7,0.8,1.3,1.1,2c1.3,2.7,2.1,5.9,2.3,9.1v0C273.2,453,273.2,453.8,273.2,454.6z"/>
				<g>
					<path class="st12" d="M207.8,431.4c0,0-6.6,1.8-4.4,7.9c2.2,6.1,14,7.2,16.1,5.7L207.8,431.4z"/>
					<path class="st13" d="M214.5,421.7c0,0-10.4,4.6-5.4,14.2c5,9.5,20.5,14.1,27.1,10.8C236.3,446.7,215.3,437.3,214.5,421.7z"/>
					<path class="st12" d="M223.9,408c0,0-9.4,3.2-9.4,13.7c0,10.5,11.5,21.4,21.7,25c10.2,3.6,20.4-1.7,20.4-1.7
						s-26.9-7.4-31.2-26.2C224.5,414.8,223.9,408,223.9,408z"/>
					<path class="st13" d="M269.7,441.1C269.7,441.1,269.7,441.1,269.7,441.1c-0.3,2.5-2.6,4.8-8.3,4.5c-1.7-0.1-3.4-0.3-5-0.5
						c-8.6-1.3-15.2-4.6-20.2-8.6c-2.3-1.9-4.3-3.9-6-6c-4.7-5.8-6.9-12-7.3-15.6c-0.3-2.7,0.2-4.9,1-6.7c1.6-3.6,4.5-5.3,4.5-5.3
						c0,0.2,0,0.3,0,0.5c0.5,7.7,3.6,13.7,7.8,18.3c0.2,0.2,0.4,0.4,0.6,0.7c0,0,0.1,0.1,0.1,0.1c1.2,1.2,2.4,2.3,3.7,3.4
						c0,0,0,0,0,0c2.4,1.9,4.9,3.5,7.4,4.7c7.7,4,15,5.4,16.5,5.3c0,0,0.1,0,0.1,0c0.2,0,0.4,0,0.6,0
						C268.1,436.1,269.9,438.7,269.7,441.1z"/>
					<path class="st12" d="M265.4,435.9c-0.1,0-0.3,0.1-0.4,0.1c-3.6,0.9-9.6,0.1-18-5.5c-2-1.3-4-2.8-6.2-4.7c0,0,0,0,0,0
						c-1.4-1.2-2.6-2.3-3.7-3.4c0,0-0.1-0.1-0.1-0.1c-0.2-0.2-0.4-0.4-0.6-0.6c-7.9-8.2-8.6-14.5-7.8-18.4c0.6-2.9,2.1-4.4,2.1-4.4
						c0,0,0,0,0,0c0.4,2.4,1.2,4.6,2.4,6.5c0.9,1.6,2.1,3,3.3,4.2c6.7,6.7,16.8,8.8,16.8,8.8c0.7,0.1,1.4,0.3,2.1,0.5
						c5.7,2.1,12.5,8.8,13.7,12.3C269.4,432.9,268.2,435,265.4,435.9z"/>
					<path class="st13" d="M255.2,419.1c-0.8,1.5-3.1,2.2-8.3,0.6c-4.6-1.5-8.1-4.8-10.6-8.3c-1.4-2-2.5-4-3.3-5.8
						c-1.6-3.4-2.3-6.1-2.4-6.5c0,0,0,0,0,0c1.9,2,3.8,3.5,5.7,4.6c6.7,3.8,13.5,3.7,17.3,8.7C254.5,413.4,256.2,417,255.2,419.1z"
						/>
				</g>
				<g>
					<g>
						<g>
							<path class="st14" d="M264.1,456.6l-0.7,4.6l-0.5,3.2l-5.2,34h-9.5l2.7-31.4l0.5-5.8l0.4-4.9v0l0.1-0.7
								c0.2-2.4,2.2-4.2,4.6-4.2h3.2C262.4,451.4,264.5,453.8,264.1,456.6z"/>
							<g>
								<path class="st14" d="M242.5,456.1l-0.2,5.1l-0.2,4.8l-1.1,32.4h-9.5l-1.1-32.5l-0.2-4.7l-0.2-5.1c-0.1-2.6,2-4.7,4.6-4.7
									h3.2C240.5,451.4,242.6,453.5,242.5,456.1z"/>
							</g>
							<path class="st15" d="M251.8,456.3L251.8,456.3l-0.4,4.9l-0.5,5.8l-2.7,31.4h-7.1l1.1-32.4l0.2-4.8l0.2-5.1l0-0.3
								c0.1-2.5,2.1-4.4,4.6-4.4h0.1C249.9,451.4,252,453.6,251.8,456.3z"/>
							<path class="st15" d="M273.3,456.9l-0.4,2.1l-0.4,2.2l-1.2,6.2l-4.9,24c-0.8,4.1-4.4,7-8.6,7l5.2-34l0.5-3.2l0.7-4.6l0.2-1.3
								c0.2-1.1,0.7-2.1,1.5-2.8c0.8-0.7,1.9-1.1,3-1.1c2,0,3.7,1.3,4.3,3v0c0,0.1,0,0.1,0.1,0.2C273.4,455.3,273.5,456,273.3,456.9
								z"/>
						</g>
						<g>
							<path class="st14" d="M220.8,455.6l3.6,42.8h-9.5l-6.3-41.8c-0.4-2.8,1.7-5.3,4.5-5.3h3.2
								C218.6,451.4,220.6,453.2,220.8,455.6z"/>
							<path class="st15" d="M230.1,455.8l1.4,42.6h-7.1l-3.6-42.1c-0.2-2.7,1.9-5,4.6-5h0.1C228,451.4,230.1,453.3,230.1,455.8z"/>
							<path class="st15" d="M208.4,455.3l6.6,43.1c-4.2,0-7.7-2.9-8.6-7l-7-34.5c-0.6-2.8,1.6-5.5,4.5-5.5h0
								C206.1,451.4,208,453,208.4,455.3z"/>
						</g>
					</g>
				</g>
			</g>
		</g>
	</g>
	<g>
		<g>
			<g>
				<path class="st7" d="M160.9,454.6c0,1.3-0.1,2.5-0.3,3.8l-0.4,2.8H87.9v0l-0.4-2.8c-0.2-1.3-0.3-2.5-0.3-3.8c0,0,0,0,0,0
					c0-0.7,0-1.5,0.1-2.2c0.2-3.3,1-6.4,2.3-9.2c0.5-1.1,1.2-2.2,1.9-3.2c1.2-1.7,2.7-3.2,4.4-4.3c0.2-0.2,0.5-0.3,0.7-0.5
					c0.3-0.2,0.5-0.3,0.8-0.5c0.2-0.1,0.5-0.3,0.7-0.4c2.2-1.2,4.7-2.1,7.2-2.8c0.1,0,0.1,0,0.2-0.1c1.9-0.5,3.8-0.8,5.8-1
					c0,0,0,0,0.1,0c1-0.1,2.1-0.1,3.2-0.1h8.2c0,0,0,0,0,0h10.8c0.4,0,0.8,0,1.2,0c0.4,0,0.8,0,1.1,0c0.3,0,0.6,0,0.9,0.1
					c0,0,0,0,0.1,0c1.3,0.1,2.6,0.3,3.8,0.5c0.3,0,0.6,0.1,0.8,0.2c0,0,0,0,0,0c3.4,0.7,6.6,1.9,9.4,3.5c0.4,0.2,0.8,0.4,1.1,0.7
					c0.1,0,0.1,0.1,0.2,0.1c0.1,0.1,0.3,0.2,0.4,0.3c0.1,0,0.1,0.1,0.2,0.1c1.9,1.3,3.5,3.1,4.7,5.1c0,0,0,0,0,0
					c0.4,0.7,0.8,1.3,1.1,2c1.3,2.7,2.1,5.9,2.3,9.1v0C160.9,453.1,160.9,453.8,160.9,454.6z"/>
				<g>
					<path class="st8" d="M95.5,431.4c0,0-6.6,1.8-4.4,7.9c2.2,6.1,14,7.2,16.1,5.7L95.5,431.4z"/>
					<path class="st9" d="M102.2,421.8c0,0-10.4,4.6-5.4,14.2c5,9.5,20.5,14.1,27.1,10.8C123.9,446.7,102.9,437.3,102.2,421.8z"/>
					<path class="st8" d="M111.6,408.1c0,0-9.4,3.2-9.4,13.7c0,10.5,11.5,21.4,21.7,25c10.2,3.6,20.4-1.7,20.4-1.7
						s-26.9-7.4-31.2-26.2C112.2,414.8,111.6,408.1,111.6,408.1z"/>
					<path class="st9" d="M157.4,441.1C157.4,441.1,157.4,441.1,157.4,441.1c-0.3,2.5-2.6,4.8-8.3,4.5c-1.7-0.1-3.4-0.3-5-0.5
						c-8.6-1.3-15.2-4.6-20.2-8.6c-2.3-1.9-4.3-3.9-6-6c-4.7-5.8-6.9-12-7.3-15.6c-0.3-2.7,0.2-4.9,1-6.7c1.6-3.6,4.5-5.3,4.5-5.3
						c0,0.2,0,0.3,0,0.5c0.5,7.7,3.6,13.7,7.8,18.3c0.2,0.2,0.4,0.4,0.6,0.7c0,0,0.1,0.1,0.1,0.1c1.2,1.2,2.4,2.3,3.7,3.4
						c0,0,0,0,0,0c2.4,1.9,4.9,3.5,7.4,4.7c7.7,4,15,5.4,16.5,5.3c0,0,0.1,0,0.1,0c0.2,0,0.4,0,0.6,0
						C155.8,436.2,157.6,438.7,157.4,441.1z"/>
					<path class="st8" d="M153,435.9c-0.1,0-0.3,0.1-0.4,0.1c-3.6,0.9-9.6,0.1-18-5.5c-2-1.3-4-2.8-6.2-4.7c0,0,0,0,0,0
						c-1.4-1.2-2.6-2.3-3.7-3.4c0,0-0.1-0.1-0.1-0.1c-0.2-0.2-0.4-0.4-0.6-0.6c-7.9-8.2-8.6-14.5-7.8-18.4c0.6-2.9,2.1-4.4,2.1-4.4
						c0,0,0,0,0,0c0.4,2.4,1.2,4.6,2.4,6.5c0.9,1.6,2.1,3,3.3,4.2c6.7,6.7,16.8,8.8,16.8,8.8c0.7,0.1,1.4,0.3,2.1,0.5
						c5.7,2.1,12.5,8.8,13.7,12.3C157.1,433,155.9,435,153,435.9z"/>
					<path class="st9" d="M142.8,419.1c-0.8,1.5-3.1,2.2-8.3,0.6c-4.6-1.5-8.1-4.8-10.6-8.3c-1.4-2-2.5-4-3.3-5.8
						c-1.6-3.4-2.3-6.1-2.4-6.5c0,0,0,0,0,0c1.9,2,3.8,3.5,5.7,4.6c6.7,3.8,13.5,3.7,17.3,8.7C142.2,413.4,143.9,417,142.8,419.1z"
						/>
				</g>
				<g>
					<g>
						<g>
							<path class="st10" d="M151.8,456.6l-0.7,4.6l-0.5,3.2l-5.2,34h-9.5l2.7-31.4l0.5-5.8l0.4-4.9v0l0.1-0.7
								c0.2-2.4,2.2-4.2,4.6-4.2h3.2C150,451.4,152.2,453.8,151.8,456.6z"/>
							<g>
								<path class="st10" d="M130.2,456.1l-0.2,5.1l-0.2,4.8l-1.1,32.4h-9.5l-1.1-32.5l-0.2-4.7l-0.2-5.1c-0.1-2.6,2-4.7,4.6-4.7
									h3.2C128.2,451.4,130.3,453.5,130.2,456.1z"/>
							</g>
							<path class="st11" d="M139.5,456.3L139.5,456.3l-0.4,4.9l-0.5,5.8l-2.7,31.4h-7.1l1.1-32.4l0.2-4.8l0.2-5.1l0-0.3
								c0.1-2.5,2.1-4.4,4.6-4.4h0.1C137.6,451.4,139.7,453.7,139.5,456.3z"/>
							<path class="st11" d="M161,456.9l-0.4,2.1l-0.4,2.2l-1.2,6.2l-4.9,24c-0.8,4.1-4.4,7-8.6,7l5.2-34l0.5-3.2l0.7-4.6l0.2-1.3
								c0.2-1.1,0.7-2.1,1.5-2.8c0.8-0.7,1.9-1.1,3-1.1c2,0,3.7,1.3,4.3,3v0c0,0.1,0,0.1,0.1,0.2C161.1,455.3,161.2,456.1,161,456.9
								z"/>
						</g>
						<g>
							<path class="st10" d="M108.5,455.6l3.6,42.8h-9.5l-6.3-41.8c-0.4-2.8,1.7-5.3,4.5-5.3h3.2
								C106.3,451.4,108.3,453.2,108.5,455.6z"/>
							<path class="st11" d="M117.8,455.8l1.4,42.6h-7.1l-3.6-42.1c-0.2-2.7,1.9-5,4.6-5h0.1C115.7,451.4,117.7,453.3,117.8,455.8z"
								/>
							<path class="st11" d="M96,455.3l6.6,43.1c-4.2,0-7.7-2.9-8.6-7l-7-34.5c-0.6-2.8,1.6-5.5,4.5-5.5h0
								C93.8,451.4,95.7,453,96,455.3z"/>
						</g>
					</g>
				</g>
			</g>
		</g>
	</g>
	<g>
		<g>
			<g>
				<path class="st7" d="M381.2,455.1c0,1.3-0.1,2.5-0.3,3.8l-0.4,2.8h-72.2v0l-0.4-2.8c-0.2-1.3-0.3-2.5-0.3-3.8c0,0,0,0,0,0
					c0-0.7,0-1.5,0.1-2.2c0.2-3.3,1-6.4,2.3-9.2c0.5-1.1,1.2-2.2,1.9-3.2c1.2-1.7,2.7-3.2,4.4-4.3c0.2-0.2,0.5-0.3,0.7-0.5
					c0.3-0.2,0.5-0.3,0.8-0.5c0.2-0.1,0.5-0.3,0.7-0.4c2.2-1.2,4.7-2.1,7.2-2.8c0.1,0,0.1,0,0.2-0.1c1.9-0.5,3.8-0.8,5.8-1
					c0,0,0,0,0.1,0c1-0.1,2.1-0.1,3.2-0.1h8.2c0,0,0,0,0,0h10.8c0.4,0,0.8,0,1.2,0c0.4,0,0.8,0,1.1,0c0.3,0,0.6,0,0.9,0.1
					c0,0,0,0,0.1,0c1.3,0.1,2.6,0.3,3.8,0.5c0.3,0,0.6,0.1,0.8,0.2c0,0,0,0,0,0c3.4,0.7,6.6,1.9,9.4,3.5c0.4,0.2,0.8,0.4,1.1,0.7
					c0.1,0,0.1,0.1,0.2,0.1c0.1,0.1,0.3,0.2,0.4,0.3c0.1,0,0.1,0.1,0.2,0.1c1.9,1.3,3.5,3.1,4.7,5.1c0,0,0,0,0,0
					c0.4,0.7,0.8,1.3,1.1,2c1.3,2.7,2.1,5.9,2.3,9.1v0C381.2,453.6,381.2,454.3,381.2,455.1z"/>
				<g>
					<path class="st4" d="M315.8,431.9c0,0-6.6,1.8-4.4,7.9c2.2,6.1,14,7.2,16.1,5.7L315.8,431.9z"/>
					<path class="st16" d="M322.5,422.3c0,0-10.4,4.6-5.4,14.2c5,9.5,20.5,14.1,27.1,10.8C344.2,447.2,323.2,437.8,322.5,422.3z"/>
					<path class="st4" d="M331.9,408.6c0,0-9.4,3.2-9.4,13.7c0,10.5,11.5,21.4,21.7,25c10.2,3.6,20.4-1.7,20.4-1.7
						s-26.9-7.4-31.2-26.2C332.5,415.3,331.9,408.6,331.9,408.6z"/>
					<path class="st16" d="M377.6,441.6C377.6,441.6,377.6,441.6,377.6,441.6c-0.3,2.5-2.6,4.8-8.3,4.5c-1.7-0.1-3.4-0.3-5-0.5
						c-8.6-1.3-15.2-4.6-20.2-8.6c-2.3-1.9-4.3-3.9-6-6c-4.7-5.8-6.9-12-7.3-15.6c-0.3-2.7,0.2-4.9,1-6.7c1.6-3.6,4.5-5.3,4.5-5.3
						c0,0.2,0,0.3,0,0.5c0.5,7.7,3.6,13.7,7.8,18.3c0.2,0.2,0.4,0.4,0.6,0.7c0,0,0.1,0.1,0.1,0.1c1.2,1.2,2.4,2.3,3.7,3.4
						c0,0,0,0,0,0c2.4,1.9,4.9,3.5,7.4,4.7c7.7,4,15,5.4,16.5,5.3c0,0,0.1,0,0.1,0c0.2,0,0.4,0,0.6,0
						C376.1,436.7,377.9,439.2,377.6,441.6z"/>
					<path class="st4" d="M373.3,436.4c-0.1,0-0.3,0.1-0.4,0.1c-3.6,0.9-9.6,0.1-18-5.5c-2-1.3-4-2.8-6.2-4.7c0,0,0,0,0,0
						c-1.4-1.2-2.6-2.3-3.7-3.4c0,0-0.1-0.1-0.1-0.1c-0.2-0.2-0.4-0.4-0.6-0.6c-7.9-8.2-8.6-14.5-7.8-18.4c0.6-2.9,2.1-4.4,2.1-4.4
						c0,0,0,0,0,0c0.4,2.4,1.2,4.6,2.4,6.5c0.9,1.6,2.1,3,3.3,4.2c6.7,6.7,16.8,8.8,16.8,8.8c0.7,0.1,1.4,0.3,2.1,0.5
						c5.7,2.1,12.5,8.8,13.7,12.3C377.4,433.5,376.2,435.5,373.3,436.4z"/>
					<path class="st16" d="M363.1,419.6c-0.8,1.5-3.1,2.2-8.3,0.6c-4.6-1.5-8.1-4.8-10.6-8.3c-1.4-2-2.5-4-3.3-5.8
						c-1.6-3.4-2.3-6.1-2.4-6.5c0,0,0,0,0,0c1.9,2,3.8,3.5,5.7,4.6c6.7,3.8,13.5,3.7,17.3,8.7C362.5,413.9,364.2,417.5,363.1,419.6z
						"/>
				</g>
				<g>
					<g>
						<g>
							<path class="st17" d="M372.1,457.1l-0.7,4.6l-0.5,3.2l-5.2,34h-9.5l2.7-31.4l0.5-5.8l0.4-4.9v0l0.1-0.7
								c0.2-2.4,2.2-4.2,4.6-4.2h3.2C370.3,451.9,372.5,454.3,372.1,457.1z"/>
							<g>
								<path class="st17" d="M350.5,456.6l-0.2,5.1l-0.2,4.8l-1.1,32.4h-9.5l-1.1-32.5l-0.2-4.7l-0.2-5.1c-0.1-2.6,2-4.7,4.6-4.7
									h3.2C348.5,451.9,350.6,454,350.5,456.6z"/>
							</g>
							<path class="st18" d="M359.8,456.8L359.8,456.8l-0.4,4.9l-0.5,5.8l-2.7,31.4h-7.1l1.1-32.4l0.2-4.8l0.2-5.1l0-0.3
								c0.1-2.5,2.1-4.4,4.6-4.4h0.1C357.9,451.9,360,454.2,359.8,456.8z"/>
							<path class="st18" d="M381.3,457.4l-0.4,2.1l-0.4,2.2l-1.2,6.2l-4.9,24c-0.8,4.1-4.4,7-8.6,7l5.2-34l0.5-3.2l0.7-4.6l0.2-1.3
								c0.2-1.1,0.7-2.1,1.5-2.8c0.8-0.7,1.9-1.1,3-1.1c2,0,3.7,1.3,4.3,3v0c0,0.1,0,0.1,0.1,0.2
								C381.4,455.8,381.4,456.6,381.3,457.4z"/>
						</g>
						<g>
							<path class="st17" d="M328.8,456.1l3.6,42.8h-9.5l-6.3-41.8c-0.4-2.8,1.7-5.3,4.5-5.3h3.2
								C326.6,451.9,328.6,453.7,328.8,456.1z"/>
							<path class="st18" d="M338.1,456.3l1.4,42.6h-7.1l-3.6-42.1c-0.2-2.7,1.9-5,4.6-5h0.1C336,451.9,338,453.8,338.1,456.3z"/>
							<path class="st18" d="M316.3,455.8l6.6,43.1c-4.2,0-7.7-2.9-8.6-7l-7-34.5c-0.6-2.8,1.6-5.5,4.5-5.5l0,0
								C314,451.9,316,453.5,316.3,455.8z"/>
						</g>
					</g>
				</g>
			</g>
		</g>
	</g>
	<g>
		<g>
			<g>
				<path class="st7" d="M603.2,454.6c0,1.3-0.1,2.5-0.3,3.8l-0.4,2.8h-72.2v0l-0.4-2.8c-0.2-1.3-0.3-2.5-0.3-3.8c0,0,0,0,0,0
					c0-0.7,0-1.5,0.1-2.2c0.2-3.3,1-6.4,2.3-9.2c0.5-1.1,1.2-2.2,1.9-3.2c1.2-1.7,2.7-3.2,4.4-4.3c0.2-0.2,0.5-0.3,0.7-0.5
					c0.3-0.2,0.5-0.3,0.8-0.5c0.2-0.1,0.5-0.3,0.7-0.4c2.2-1.2,4.7-2.1,7.2-2.8c0.1,0,0.1,0,0.2-0.1c1.9-0.5,3.8-0.8,5.8-1
					c0,0,0,0,0.1,0c1-0.1,2.1-0.1,3.2-0.1h8.2c0,0,0,0,0,0h10.8c0.4,0,0.8,0,1.2,0c0.4,0,0.8,0,1.1,0c0.3,0,0.6,0,0.9,0.1
					c0,0,0,0,0.1,0c1.3,0.1,2.6,0.3,3.8,0.5c0.3,0,0.6,0.1,0.8,0.2c0,0,0,0,0,0c3.4,0.7,6.6,1.9,9.4,3.5c0.4,0.2,0.8,0.4,1.1,0.7
					c0.1,0,0.1,0.1,0.2,0.1c0.1,0.1,0.3,0.2,0.4,0.3c0.1,0,0.1,0.1,0.2,0.1c1.9,1.3,3.5,3.1,4.7,5.1c0,0,0,0,0,0
					c0.4,0.7,0.8,1.3,1.1,2c1.3,2.7,2.1,5.9,2.3,9.1v0C603.2,453,603.2,453.8,603.2,454.6z"/>
				<g>
					<path class="st12" d="M537.8,431.4c0,0-6.6,1.8-4.4,7.9c2.2,6.1,14,7.2,16.1,5.7L537.8,431.4z"/>
					<path class="st13" d="M544.5,421.7c0,0-10.4,4.6-5.4,14.2c5,9.5,20.5,14.1,27.1,10.8C566.3,446.7,545.3,437.3,544.5,421.7z"/>
					<path class="st12" d="M553.9,408c0,0-9.4,3.2-9.4,13.7c0,10.5,11.5,21.4,21.7,25c10.2,3.6,20.4-1.7,20.4-1.7
						s-26.9-7.4-31.2-26.2C554.5,414.8,553.9,408,553.9,408z"/>
					<path class="st13" d="M599.7,441.1C599.7,441.1,599.7,441.1,599.7,441.1c-0.3,2.5-2.6,4.8-8.3,4.5c-1.7-0.1-3.4-0.3-5-0.5
						c-8.6-1.3-15.2-4.6-20.2-8.6c-2.3-1.9-4.3-3.9-6-6c-4.7-5.8-6.9-12-7.3-15.6c-0.3-2.7,0.2-4.9,1-6.7c1.6-3.6,4.5-5.3,4.5-5.3
						c0,0.2,0,0.3,0,0.5c0.5,7.7,3.6,13.7,7.8,18.3c0.2,0.2,0.4,0.4,0.6,0.7c0,0,0.1,0.1,0.1,0.1c1.2,1.2,2.4,2.3,3.7,3.4
						c0,0,0,0,0,0c2.4,1.9,4.9,3.5,7.4,4.7c7.7,4,15,5.4,16.5,5.3c0,0,0.1,0,0.1,0c0.2,0,0.4,0,0.6,0
						C598.1,436.1,599.9,438.7,599.7,441.1z"/>
					<path class="st12" d="M595.4,435.9c-0.1,0-0.3,0.1-0.4,0.1c-3.6,0.9-9.6,0.1-18-5.5c-2-1.3-4-2.8-6.2-4.7c0,0,0,0,0,0
						c-1.4-1.2-2.6-2.3-3.7-3.4c0,0-0.1-0.1-0.1-0.1c-0.2-0.2-0.4-0.4-0.6-0.6c-7.9-8.2-8.6-14.5-7.8-18.4c0.6-2.9,2.1-4.4,2.1-4.4
						c0,0,0,0,0,0c0.4,2.4,1.2,4.6,2.4,6.5c0.9,1.6,2.1,3,3.3,4.2c6.7,6.7,16.8,8.8,16.8,8.8c0.7,0.1,1.4,0.3,2.1,0.5
						c5.7,2.1,12.5,8.8,13.7,12.3C599.4,432.9,598.2,435,595.4,435.9z"/>
					<path class="st13" d="M585.2,419.1c-0.8,1.5-3.1,2.2-8.3,0.6c-4.6-1.5-8.1-4.8-10.6-8.3c-1.4-2-2.5-4-3.3-5.8
						c-1.6-3.4-2.3-6.1-2.4-6.5c0,0,0,0,0,0c1.9,2,3.8,3.5,5.7,4.6c6.7,3.8,13.5,3.7,17.3,8.7C584.5,413.4,586.2,417,585.2,419.1z"
						/>
				</g>
				<g>
					<g>
						<g>
							<path class="st14" d="M594.1,456.6l-0.7,4.6l-0.5,3.2l-5.2,34h-9.5l2.7-31.4l0.5-5.8l0.4-4.9v0l0.1-0.7
								c0.2-2.4,2.2-4.2,4.6-4.2h3.2C592.4,451.4,594.5,453.8,594.1,456.6z"/>
							<g>
								<path class="st14" d="M572.5,456.1l-0.2,5.1l-0.2,4.8l-1.1,32.4h-9.5l-1.1-32.5l-0.2-4.7l-0.2-5.1c-0.1-2.6,2-4.7,4.6-4.7
									h3.2C570.5,451.4,572.6,453.5,572.5,456.1z"/>
							</g>
							<path class="st15" d="M581.8,456.3L581.8,456.3l-0.4,4.9l-0.5,5.8l-2.7,31.4h-7.1l1.1-32.4l0.2-4.8l0.2-5.1l0-0.3
								c0.1-2.5,2.1-4.4,4.6-4.4h0.1C579.9,451.4,582,453.6,581.8,456.3z"/>
							<path class="st15" d="M603.3,456.9l-0.4,2.1l-0.4,2.2l-1.2,6.2l-4.9,24c-0.8,4.1-4.4,7-8.6,7l5.2-34l0.5-3.2l0.7-4.6l0.2-1.3
								c0.2-1.1,0.7-2.1,1.5-2.8c0.8-0.7,1.9-1.1,3-1.1c2,0,3.7,1.3,4.3,3v0c0,0.1,0,0.1,0.1,0.2C603.4,455.3,603.5,456,603.3,456.9
								z"/>
						</g>
						<g>
							<path class="st14" d="M550.8,455.6l3.6,42.8h-9.5l-6.3-41.8c-0.4-2.8,1.7-5.3,4.5-5.3h3.2
								C548.6,451.4,550.6,453.2,550.8,455.6z"/>
							<path class="st15" d="M560.1,455.8l1.4,42.6h-7.1l-3.6-42.1c-0.2-2.7,1.9-5,4.6-5h0.1C558,451.4,560.1,453.3,560.1,455.8z"/>
							<path class="st15" d="M538.4,455.3l6.6,43.1c-4.2,0-7.7-2.9-8.6-7l-7-34.5c-0.6-2.8,1.6-5.5,4.5-5.5h0
								C536.1,451.4,538,453,538.4,455.3z"/>
						</g>
					</g>
				</g>
			</g>
		</g>
	</g>
	<g>
		<g>
			<g>
				<path class="st7" d="M490.9,454.6c0,1.3-0.1,2.5-0.3,3.8l-0.4,2.8h-72.2v0l-0.4-2.8c-0.2-1.3-0.3-2.5-0.3-3.8c0,0,0,0,0,0
					c0-0.7,0-1.5,0.1-2.2c0.2-3.3,1-6.4,2.3-9.2c0.5-1.1,1.2-2.2,1.9-3.2c1.2-1.7,2.7-3.2,4.4-4.3c0.2-0.2,0.5-0.3,0.7-0.5
					c0.3-0.2,0.5-0.3,0.8-0.5c0.2-0.1,0.5-0.3,0.7-0.4c2.2-1.2,4.7-2.1,7.2-2.8c0.1,0,0.1,0,0.2-0.1c1.9-0.5,3.8-0.8,5.8-1
					c0,0,0,0,0.1,0c1-0.1,2.1-0.1,3.2-0.1h8.2c0,0,0,0,0,0h10.8c0.4,0,0.8,0,1.2,0c0.4,0,0.8,0,1.1,0c0.3,0,0.6,0,0.9,0.1
					c0,0,0,0,0.1,0c1.3,0.1,2.6,0.3,3.8,0.5c0.3,0,0.6,0.1,0.8,0.2c0,0,0,0,0,0c3.4,0.7,6.6,1.9,9.4,3.5c0.4,0.2,0.8,0.4,1.1,0.7
					c0.1,0,0.1,0.1,0.2,0.1c0.1,0.1,0.3,0.2,0.4,0.3c0.1,0,0.1,0.1,0.2,0.1c1.9,1.3,3.5,3.1,4.7,5.1c0,0,0,0,0,0
					c0.4,0.7,0.8,1.3,1.1,2c1.3,2.7,2.1,5.9,2.3,9.1v0C490.9,453.1,490.9,453.8,490.9,454.6z"/>
				<g>
					<path class="st8" d="M425.5,431.4c0,0-6.6,1.8-4.4,7.9c2.2,6.1,14,7.2,16.1,5.7L425.5,431.4z"/>
					<path class="st9" d="M432.2,421.8c0,0-10.4,4.6-5.4,14.2c5,9.5,20.5,14.1,27.1,10.8C453.9,446.7,432.9,437.3,432.2,421.8z"/>
					<path class="st8" d="M441.6,408.1c0,0-9.4,3.2-9.4,13.7c0,10.5,11.5,21.4,21.7,25c10.2,3.6,20.4-1.7,20.4-1.7
						s-26.9-7.4-31.2-26.2C442.2,414.8,441.6,408.1,441.6,408.1z"/>
					<path class="st9" d="M487.4,441.1C487.4,441.1,487.4,441.1,487.4,441.1c-0.3,2.5-2.6,4.8-8.3,4.5c-1.7-0.1-3.4-0.3-5-0.5
						c-8.6-1.3-15.2-4.6-20.2-8.6c-2.3-1.9-4.3-3.9-6-6c-4.7-5.8-6.9-12-7.3-15.6c-0.3-2.7,0.2-4.9,1-6.7c1.6-3.6,4.5-5.3,4.5-5.3
						c0,0.2,0,0.3,0,0.5c0.5,7.7,3.6,13.7,7.8,18.3c0.2,0.2,0.4,0.4,0.6,0.7c0,0,0.1,0.1,0.1,0.1c1.2,1.2,2.4,2.3,3.7,3.4
						c0,0,0,0,0,0c2.4,1.9,4.9,3.5,7.4,4.7c7.7,4,15,5.4,16.5,5.3c0,0,0.1,0,0.1,0c0.2,0,0.4,0,0.6,0
						C485.8,436.2,487.6,438.7,487.4,441.1z"/>
					<path class="st8" d="M483,435.9c-0.1,0-0.3,0.1-0.4,0.1c-3.6,0.9-9.6,0.1-18-5.5c-2-1.3-4-2.8-6.2-4.7c0,0,0,0,0,0
						c-1.4-1.2-2.6-2.3-3.7-3.4c0,0-0.1-0.1-0.1-0.1c-0.2-0.2-0.4-0.4-0.6-0.6c-7.9-8.2-8.6-14.5-7.8-18.4c0.6-2.9,2.1-4.4,2.1-4.4
						c0,0,0,0,0,0c0.4,2.4,1.2,4.6,2.4,6.5c0.9,1.6,2.1,3,3.3,4.2c6.7,6.7,16.8,8.8,16.8,8.8c0.7,0.1,1.4,0.3,2.1,0.5
						c5.7,2.1,12.5,8.8,13.7,12.3C487.1,433,485.9,435,483,435.9z"/>
					<path class="st9" d="M472.8,419.1c-0.8,1.5-3.1,2.2-8.3,0.6c-4.6-1.5-8.1-4.8-10.6-8.3c-1.4-2-2.5-4-3.3-5.8
						c-1.6-3.4-2.3-6.1-2.4-6.5c0,0,0,0,0,0c1.9,2,3.8,3.5,5.7,4.6c6.7,3.8,13.5,3.7,17.3,8.7C472.2,413.4,473.9,417,472.8,419.1z"
						/>
				</g>
				<g>
					<g>
						<g>
							<path class="st10" d="M481.8,456.6l-0.7,4.6l-0.5,3.2l-5.2,34h-9.5l2.7-31.4l0.5-5.8l0.4-4.9v0l0.1-0.7
								c0.2-2.4,2.2-4.2,4.6-4.2h3.2C480,451.4,482.2,453.8,481.8,456.6z"/>
							<g>
								<path class="st10" d="M460.2,456.1l-0.2,5.1l-0.2,4.8l-1.1,32.4h-9.5l-1.1-32.5l-0.2-4.7l-0.2-5.1c-0.1-2.6,2-4.7,4.6-4.7
									h3.2C458.2,451.4,460.3,453.5,460.2,456.1z"/>
							</g>
							<path class="st11" d="M469.5,456.3L469.5,456.3l-0.4,4.9l-0.5,5.8l-2.7,31.4h-7.1l1.1-32.4l0.2-4.8l0.2-5.1l0-0.3
								c0.1-2.5,2.1-4.4,4.6-4.4h0.1C467.6,451.4,469.7,453.7,469.5,456.3z"/>
							<path class="st11" d="M491,456.9l-0.4,2.1l-0.4,2.2l-1.2,6.2l-4.9,24c-0.8,4.1-4.4,7-8.6,7l5.2-34l0.5-3.2l0.7-4.6l0.2-1.3
								c0.2-1.1,0.7-2.1,1.5-2.8c0.8-0.7,1.9-1.1,3-1.1c2,0,3.7,1.3,4.3,3v0c0,0.1,0,0.1,0.1,0.2C491.1,455.3,491.2,456.1,491,456.9
								z"/>
						</g>
						<g>
							<path class="st10" d="M438.5,455.6l3.6,42.8h-9.5l-6.3-41.8c-0.4-2.8,1.7-5.3,4.5-5.3h3.2
								C436.3,451.4,438.3,453.2,438.5,455.6z"/>
							<path class="st11" d="M447.8,455.8l1.4,42.6h-7.1l-3.6-42.1c-0.2-2.7,1.9-5,4.6-5h0.1C445.7,451.4,447.7,453.3,447.8,455.8z"
								/>
							<path class="st11" d="M426,455.3l6.6,43.1c-4.2,0-7.7-2.9-8.6-7l-7-34.5c-0.6-2.8,1.6-5.5,4.5-5.5h0
								C423.8,451.4,425.7,453,426,455.3z"/>
						</g>
					</g>
				</g>
			</g>
		</g>
	</g>
	<g>
		<g>
			<g>
				<path class="st7" d="M711.2,455.1c0,1.3-0.1,2.5-0.3,3.8l-0.4,2.8h-72.2v0l-0.4-2.8c-0.2-1.3-0.3-2.5-0.3-3.8c0,0,0,0,0,0
					c0-0.7,0-1.5,0.1-2.2c0.2-3.3,1-6.4,2.3-9.2c0.5-1.1,1.2-2.2,1.9-3.2c1.2-1.7,2.7-3.2,4.4-4.3c0.2-0.2,0.5-0.3,0.7-0.5
					c0.3-0.2,0.5-0.3,0.8-0.5c0.2-0.1,0.5-0.3,0.7-0.4c2.2-1.2,4.7-2.1,7.2-2.8c0.1,0,0.1,0,0.2-0.1c1.9-0.5,3.8-0.8,5.8-1
					c0,0,0,0,0.1,0c1-0.1,2.1-0.1,3.2-0.1h8.2c0,0,0,0,0,0h10.8c0.4,0,0.8,0,1.2,0c0.4,0,0.8,0,1.1,0c0.3,0,0.6,0,0.9,0.1
					c0,0,0,0,0.1,0c1.3,0.1,2.6,0.3,3.8,0.5c0.3,0,0.6,0.1,0.8,0.2c0,0,0,0,0,0c3.4,0.7,6.6,1.9,9.4,3.5c0.4,0.2,0.8,0.4,1.1,0.7
					c0.1,0,0.1,0.1,0.2,0.1c0.1,0.1,0.3,0.2,0.4,0.3c0.1,0,0.1,0.1,0.2,0.1c1.9,1.3,3.5,3.1,4.7,5.1c0,0,0,0,0,0
					c0.4,0.7,0.8,1.3,1.1,2c1.3,2.7,2.1,5.9,2.3,9.1v0C711.2,453.6,711.2,454.3,711.2,455.1z"/>
				<g>
					<path class="st4" d="M645.8,431.9c0,0-6.6,1.8-4.4,7.9c2.2,6.1,14,7.2,16.1,5.7L645.8,431.9z"/>
					<path class="st16" d="M652.5,422.3c0,0-10.4,4.6-5.4,14.2c5,9.5,20.5,14.1,27.1,10.8C674.2,447.2,653.2,437.8,652.5,422.3z"/>
					<path class="st4" d="M661.9,408.6c0,0-9.4,3.2-9.4,13.7c0,10.5,11.5,21.4,21.7,25c10.2,3.6,20.4-1.7,20.4-1.7
						s-26.9-7.4-31.2-26.2C662.5,415.3,661.9,408.6,661.9,408.6z"/>
					<path class="st16" d="M707.6,441.6C707.6,441.6,707.6,441.6,707.6,441.6c-0.3,2.5-2.6,4.8-8.3,4.5c-1.7-0.1-3.4-0.3-5-0.5
						c-8.6-1.3-15.2-4.6-20.2-8.6c-2.3-1.9-4.3-3.9-6-6c-4.7-5.8-6.9-12-7.3-15.6c-0.3-2.7,0.2-4.9,1-6.7c1.6-3.6,4.5-5.3,4.5-5.3
						c0,0.2,0,0.3,0,0.5c0.5,7.7,3.6,13.7,7.8,18.3c0.2,0.2,0.4,0.4,0.6,0.7c0,0,0.1,0.1,0.1,0.1c1.2,1.2,2.4,2.3,3.7,3.4
						c0,0,0,0,0,0c2.4,1.9,4.9,3.5,7.4,4.7c7.7,4,15,5.4,16.5,5.3c0,0,0.1,0,0.1,0c0.2,0,0.4,0,0.6,0
						C706.1,436.7,707.9,439.2,707.6,441.6z"/>
					<path class="st4" d="M703.3,436.4c-0.1,0-0.3,0.1-0.4,0.1c-3.6,0.9-9.6,0.1-18-5.5c-2-1.3-4-2.8-6.2-4.7c0,0,0,0,0,0
						c-1.4-1.2-2.6-2.3-3.7-3.4c0,0-0.1-0.1-0.1-0.1c-0.2-0.2-0.4-0.4-0.6-0.6c-7.9-8.2-8.6-14.5-7.8-18.4c0.6-2.9,2.1-4.4,2.1-4.4
						c0,0,0,0,0,0c0.4,2.4,1.2,4.6,2.4,6.5c0.9,1.6,2.1,3,3.3,4.2c6.7,6.7,16.8,8.8,16.8,8.8c0.7,0.1,1.4,0.3,2.1,0.5
						c5.7,2.1,12.5,8.8,13.7,12.3C707.4,433.5,706.2,435.5,703.3,436.4z"/>
					<path class="st16" d="M693.1,419.6c-0.8,1.5-3.1,2.2-8.3,0.6c-4.6-1.5-8.1-4.8-10.6-8.3c-1.4-2-2.5-4-3.3-5.8
						c-1.6-3.4-2.3-6.1-2.4-6.5c0,0,0,0,0,0c1.9,2,3.8,3.5,5.7,4.6c6.7,3.8,13.5,3.7,17.3,8.7C692.5,413.9,694.2,417.5,693.1,419.6z
						"/>
				</g>
				<g>
					<g>
						<g>
							<path class="st17" d="M702.1,457.1l-0.7,4.6l-0.5,3.2l-5.2,34h-9.5l2.7-31.4l0.5-5.8l0.4-4.9v0l0.1-0.7
								c0.2-2.4,2.2-4.2,4.6-4.2h3.2C700.3,451.9,702.5,454.3,702.1,457.1z"/>
							<g>
								<path class="st17" d="M680.5,456.6l-0.2,5.1l-0.2,4.8l-1.1,32.4h-9.5l-1.1-32.5l-0.2-4.7l-0.2-5.1c-0.1-2.6,2-4.7,4.6-4.7
									h3.2C678.5,451.9,680.6,454,680.5,456.6z"/>
							</g>
							<path class="st18" d="M689.8,456.8L689.8,456.8l-0.4,4.9l-0.5,5.8l-2.7,31.4h-7.1l1.1-32.4l0.2-4.8l0.2-5.1l0-0.3
								c0.1-2.5,2.1-4.4,4.6-4.4h0.1C687.9,451.9,690,454.2,689.8,456.8z"/>
							<path class="st18" d="M711.3,457.4l-0.4,2.1l-0.4,2.2l-1.2,6.2l-4.9,24c-0.8,4.1-4.4,7-8.6,7l5.2-34l0.5-3.2l0.7-4.6l0.2-1.3
								c0.2-1.1,0.7-2.1,1.5-2.8c0.8-0.7,1.9-1.1,3-1.1c2,0,3.7,1.3,4.3,3v0c0,0.1,0,0.1,0.1,0.2
								C711.4,455.8,711.4,456.6,711.3,457.4z"/>
						</g>
						<g>
							<path class="st17" d="M658.8,456.1l3.6,42.8h-9.5l-6.3-41.8c-0.4-2.8,1.7-5.3,4.5-5.3h3.2
								C656.6,451.9,658.6,453.7,658.8,456.1z"/>
							<path class="st18" d="M668.1,456.3l1.4,42.6h-7.1l-3.6-42.1c-0.2-2.7,1.9-5,4.6-5h0.1C666,451.9,668,453.8,668.1,456.3z"/>
							<path class="st18" d="M646.3,455.8l6.6,43.1c-4.2,0-7.7-2.9-8.6-7l-7-34.5c-0.6-2.8,1.6-5.5,4.5-5.5h0
								C644,451.9,646,453.5,646.3,455.8z"/>
						</g>
					</g>
				</g>
			</g>
		</g>
	</g>
</g>
<rect x="-0.4" y="-1.4" class="st6" width="400.3" height="301.2"/>
<g>
	<path class="st7" d="M379.9,304.5c0,1.3-0.1,2.5-0.3,3.8l-0.4,2.8h-72.2v0l-0.4-2.8c-0.2-1.3-0.3-2.5-0.3-3.8c0,0,0,0,0,0
		c0-0.7,0-1.5,0.1-2.2c0.2-3.3,1-6.4,2.3-9.2c0.5-1.1,1.2-2.2,1.9-3.2c1.2-1.7,2.7-3.2,4.4-4.3c0.2-0.2,0.5-0.3,0.7-0.5
		c0.3-0.2,0.5-0.3,0.8-0.5c0.2-0.1,0.5-0.3,0.7-0.4c2.2-1.2,4.7-2.1,7.2-2.8c0.1,0,0.1,0,0.2-0.1c1.9-0.5,3.8-0.8,5.8-1
		c0,0,0,0,0.1,0c1-0.1,2.1-0.1,3.2-0.1h8.2c0,0,0,0,0,0h10.8c0.4,0,0.8,0,1.2,0c0.4,0,0.8,0,1.1,0c0.3,0,0.6,0,0.9,0.1
		c0,0,0,0,0.1,0c1.3,0.1,2.6,0.3,3.8,0.5c0.3,0,0.6,0.1,0.8,0.2c0,0,0,0,0,0c3.4,0.7,6.6,1.9,9.4,3.5c0.4,0.2,0.8,0.4,1.1,0.7
		c0.1,0,0.1,0.1,0.2,0.1c0.1,0.1,0.3,0.2,0.4,0.3c0.1,0,0.1,0.1,0.2,0.1c1.9,1.3,3.5,3.1,4.7,5.1c0,0,0,0,0,0c0.4,0.7,0.8,1.3,1.1,2
		c1.3,2.7,2.1,5.9,2.3,9.1v0C379.9,303,379.9,303.7,379.9,304.5z"/>
	<path class="st12" d="M314.5,281.3c0,0-6.6,1.8-4.4,7.9c2.2,6.1,14,7.2,16.1,5.7L314.5,281.3z"/>
	<path class="st13" d="M321.2,271.7c0,0-10.4,4.6-5.4,14.2c5,9.5,20.5,14.1,27.1,10.8C342.9,296.6,322,287.2,321.2,271.7z"/>
	<path class="st12" d="M330.6,258c0,0-9.4,3.2-9.4,13.7s11.5,21.4,21.7,25s20.4-1.7,20.4-1.7s-26.9-7.4-31.2-26.2
		C331.2,264.7,330.6,258,330.6,258z"/>
	<path class="st13" d="M376.4,291C376.4,291,376.4,291,376.4,291c-0.3,2.5-2.6,4.8-8.3,4.5c-1.7-0.1-3.4-0.3-5-0.5
		c-8.6-1.3-15.2-4.6-20.2-8.6c-2.3-1.9-4.3-3.9-6-6c-4.7-5.8-6.9-12-7.3-15.6c-0.3-2.7,0.2-4.9,1-6.7c1.6-3.6,4.5-5.3,4.5-5.3
		c0,0.2,0,0.3,0,0.5c0.5,7.7,3.6,13.7,7.8,18.3c0.2,0.2,0.4,0.4,0.6,0.7c0,0,0.1,0.1,0.1,0.1c1.2,1.2,2.4,2.3,3.7,3.4c0,0,0,0,0,0
		c2.4,1.9,4.9,3.5,7.4,4.7c7.7,4,15,5.4,16.5,5.3c0,0,0.1,0,0.1,0c0.2,0,0.4,0,0.6,0C374.8,286.1,376.6,288.6,376.4,291z"/>
	<path class="st12" d="M372,285.8c-0.1,0-0.3,0.1-0.4,0.1c-3.6,0.9-9.6,0.1-18-5.5c-2-1.3-4-2.8-6.2-4.7c0,0,0,0,0,0
		c-1.4-1.2-2.6-2.3-3.7-3.4c0,0-0.1-0.1-0.1-0.1c-0.2-0.2-0.4-0.4-0.6-0.6c-7.9-8.2-8.6-14.5-7.8-18.4c0.6-2.9,2.1-4.4,2.1-4.4
		c0,0,0,0,0,0c0.4,2.4,1.2,4.6,2.4,6.5c0.9,1.6,2.1,3,3.3,4.2c6.7,6.7,16.8,8.8,16.8,8.8c0.7,0.1,1.4,0.3,2.1,0.5
		c5.7,2.1,12.5,8.8,13.7,12.3C376.1,282.9,374.9,284.9,372,285.8z"/>
	<path class="st13" d="M361.8,269c-0.8,1.5-3.1,2.2-8.3,0.6c-4.6-1.5-8.1-4.8-10.6-8.3c-1.4-2-2.5-4-3.3-5.8
		c-1.6-3.4-2.3-6.1-2.4-6.5c0,0,0,0,0,0c1.9,2,3.8,3.5,5.7,4.6c6.7,3.8,13.5,3.7,17.3,8.7C361.2,263.3,362.9,266.9,361.8,269z"/>
	<path class="st14" d="M370.8,306.5l-0.7,4.6l-0.5,3.2l-5.2,34h-9.5l2.7-31.4l0.5-5.8l0.4-4.9v0l0.1-0.7c0.2-2.4,2.2-4.2,4.6-4.2
		h3.2C369.1,301.3,371.2,303.7,370.8,306.5z"/>
	<path class="st14" d="M349.2,306l-0.2,5.1l-0.2,4.8l-1.1,32.4h-9.5l-1.1-32.5l-0.2-4.7l-0.2-5.1c-0.1-2.6,2-4.7,4.6-4.7h3.2
		C347.2,301.3,349.3,303.4,349.2,306z"/>
	<path class="st15" d="M358.5,306.2L358.5,306.2l-0.4,4.9l-0.5,5.8l-2.7,31.4h-7.1l1.1-32.4l0.2-4.8l0.2-5.1l0-0.3
		c0.1-2.5,2.1-4.4,4.6-4.4h0.1C356.6,301.3,358.7,303.6,358.5,306.2z"/>
	<path class="st15" d="M380,306.8l-0.4,2.1l-0.4,2.2l-1.2,6.2l-4.9,24c-0.8,4.1-4.4,7-8.6,7l5.2-34l0.5-3.2l0.7-4.6l0.2-1.3
		c0.2-1.1,0.7-2.1,1.5-2.8c0.8-0.7,1.9-1.1,3-1.1c2,0,3.7,1.3,4.3,3v0c0,0.1,0,0.1,0.1,0.2C380.1,305.2,380.2,306,380,306.8z"/>
	<path class="st14" d="M327.5,305.5l3.6,42.8h-9.5l-6.3-41.8c-0.4-2.8,1.7-5.3,4.5-5.3h3.2C325.3,301.3,327.3,303.1,327.5,305.5z"/>
	<path class="st15" d="M336.8,305.7l1.4,42.6h-7.1l-3.6-42.1c-0.2-2.7,1.9-5,4.6-5h0.1C334.7,301.3,336.7,303.2,336.8,305.7z"/>
	<path class="st15" d="M315,305.2l6.6,43.1c-4.2,0-7.7-2.9-8.6-7l-7-34.5c-0.6-2.8,1.6-5.5,4.5-5.5l0,0
		C312.8,301.3,314.7,302.9,315,305.2z"/>
	<path class="st7" d="M270.7,306.6c0,1.3-0.1,2.5-0.3,3.8l-0.4,2.8h-72.2v0l-0.4-2.8c-0.2-1.3-0.3-2.5-0.3-3.8c0,0,0,0,0,0
		c0-0.7,0-1.5,0.1-2.2c0.2-3.3,1-6.4,2.3-9.2c0.5-1.1,1.2-2.2,1.9-3.2c1.2-1.7,2.7-3.2,4.4-4.3c0.2-0.2,0.5-0.3,0.7-0.5
		c0.3-0.2,0.5-0.3,0.8-0.5c0.2-0.1,0.5-0.3,0.7-0.4c2.2-1.2,4.7-2.1,7.2-2.8c0.1,0,0.1,0,0.2-0.1c1.9-0.5,3.8-0.8,5.8-1
		c0,0,0,0,0.1,0c1-0.1,2.1-0.1,3.2-0.1h8.2c0,0,0,0,0,0h10.8c0.4,0,0.8,0,1.2,0c0.4,0,0.8,0,1.1,0c0.3,0,0.6,0,0.9,0.1
		c0,0,0,0,0.1,0c1.3,0.1,2.6,0.3,3.8,0.5c0.3,0,0.6,0.1,0.8,0.2c0,0,0,0,0,0c3.4,0.7,6.6,1.9,9.4,3.5c0.4,0.2,0.8,0.4,1.1,0.7
		c0.1,0,0.1,0.1,0.2,0.1c0.1,0.1,0.3,0.2,0.4,0.3c0.1,0,0.1,0.1,0.2,0.1c1.9,1.3,3.5,3.1,4.7,5.1c0,0,0,0,0,0c0.4,0.7,0.8,1.3,1.1,2
		c1.3,2.7,2.1,5.9,2.3,9.1v0C270.7,305.1,270.7,305.8,270.7,306.6z"/>
	<path class="st8" d="M205.3,283.4c0,0-6.6,1.8-4.4,7.9c2.2,6.1,14,7.2,16.1,5.7L205.3,283.4z"/>
	<path class="st9" d="M212,273.8c0,0-10.4,4.6-5.4,14.2c5,9.5,20.5,14.1,27.1,10.8C233.7,298.7,212.8,289.3,212,273.8z"/>
	<path class="st8" d="M221.4,260.1c0,0-9.4,3.2-9.4,13.7c0,10.5,11.5,21.4,21.7,25c10.2,3.6,20.4-1.7,20.4-1.7s-26.9-7.4-31.2-26.2
		C222,266.8,221.4,260.1,221.4,260.1z"/>
	<path class="st9" d="M267.2,293.1C267.2,293.1,267.2,293.1,267.2,293.1c-0.3,2.5-2.6,4.8-8.3,4.5c-1.7-0.1-3.4-0.3-5-0.5
		c-8.6-1.3-15.2-4.6-20.2-8.6c-2.3-1.9-4.3-3.9-6-6c-4.7-5.8-6.9-12-7.3-15.6c-0.3-2.7,0.2-4.9,1-6.7c1.6-3.6,4.5-5.3,4.5-5.3
		c0,0.2,0,0.3,0,0.5c0.5,7.7,3.6,13.7,7.8,18.3c0.2,0.2,0.4,0.4,0.6,0.7c0,0,0.1,0.1,0.1,0.1c1.2,1.2,2.4,2.3,3.7,3.4c0,0,0,0,0,0
		c2.4,1.9,4.9,3.5,7.4,4.7c7.7,4,15,5.4,16.5,5.3c0,0,0.1,0,0.1,0c0.2,0,0.4,0,0.6,0C265.6,288.2,267.4,290.7,267.2,293.1z"/>
	<path class="st8" d="M262.8,287.9c-0.1,0-0.3,0.1-0.4,0.1c-3.6,0.9-9.6,0.1-18-5.5c-2-1.3-4-2.8-6.2-4.7c0,0,0,0,0,0
		c-1.4-1.2-2.6-2.3-3.7-3.4c0,0-0.1-0.1-0.1-0.1c-0.2-0.2-0.4-0.4-0.6-0.6c-7.9-8.2-8.6-14.5-7.8-18.4c0.6-2.9,2.1-4.4,2.1-4.4
		c0,0,0,0,0,0c0.4,2.4,1.2,4.6,2.4,6.5c0.9,1.6,2.1,3,3.3,4.2c6.7,6.7,16.8,8.8,16.8,8.8c0.7,0.1,1.4,0.3,2.1,0.5
		c5.7,2.1,12.5,8.8,13.7,12.3C266.9,285,265.7,287,262.8,287.9z"/>
	<path class="st9" d="M252.6,271.1c-0.8,1.5-3.1,2.2-8.3,0.6c-4.6-1.5-8.1-4.8-10.6-8.3c-1.4-2-2.5-4-3.3-5.8
		c-1.6-3.4-2.3-6.1-2.4-6.5c0,0,0,0,0,0c1.9,2,3.8,3.5,5.7,4.6c6.7,3.8,13.5,3.7,17.3,8.7C252,265.4,253.7,269,252.6,271.1z"/>
	<path class="st10" d="M261.6,308.6l-0.7,4.6l-0.5,3.2l-5.2,34h-9.5l2.7-31.4l0.5-5.8l0.4-4.9v0l0.1-0.7c0.2-2.4,2.2-4.2,4.6-4.2
		h3.2C259.8,303.4,262,305.9,261.6,308.6z"/>
	<path class="st10" d="M240,308.1l-0.2,5.1l-0.2,4.8l-1.1,32.4h-9.5l-1.1-32.5l-0.2-4.7l-0.2-5.1c-0.1-2.6,2-4.7,4.6-4.7h3.2
		C238,303.4,240.1,305.5,240,308.1z"/>
	<path class="st11" d="M249.3,308.3L249.3,308.3l-0.4,4.9l-0.5,5.8l-2.7,31.4h-7.1l1.1-32.4l0.2-4.8l0.2-5.1l0-0.3
		c0.1-2.5,2.1-4.4,4.6-4.4h0.1C247.4,303.4,249.5,305.7,249.3,308.3z"/>
	<path class="st11" d="M270.8,308.9l-0.4,2.1l-0.4,2.2l-1.2,6.2l-4.9,24c-0.8,4.1-4.4,7-8.6,7l5.2-34l0.5-3.2l0.7-4.6l0.2-1.3
		c0.2-1.1,0.7-2.1,1.5-2.8c0.8-0.7,1.9-1.1,3-1.1c2,0,3.7,1.3,4.3,3v0c0,0.1,0,0.1,0.1,0.2C270.9,307.3,271,308.1,270.8,308.9z"/>
	<path class="st10" d="M218.3,307.6l3.6,42.8h-9.5l-6.3-41.8c-0.4-2.8,1.7-5.3,4.5-5.3h3.2C216.1,303.4,218.1,305.2,218.3,307.6z"/>
	<path class="st11" d="M227.6,307.8l1.4,42.6h-7.1l-3.6-42.1c-0.2-2.7,1.9-5,4.6-5h0.1C225.5,303.4,227.5,305.4,227.6,307.8z"/>
	<path class="st11" d="M205.8,307.3l6.6,43.1c-4.2,0-7.7-2.9-8.6-7l-7-34.5c-0.6-2.8,1.6-5.5,4.5-5.5h0
		C203.6,303.4,205.5,305.1,205.8,307.3z"/>
	<path class="st7" d="M159.6,306.6c0,1.3-0.1,2.5-0.3,3.8l-0.4,2.8H86.6v0l-0.4-2.8c-0.2-1.3-0.3-2.5-0.3-3.8c0,0,0,0,0,0
		c0-0.7,0-1.5,0.1-2.2c0.2-3.3,1-6.4,2.3-9.2c0.5-1.1,1.2-2.2,1.9-3.2c1.2-1.7,2.7-3.2,4.4-4.3c0.2-0.2,0.5-0.3,0.7-0.5
		c0.3-0.2,0.5-0.3,0.8-0.5c0.2-0.1,0.5-0.3,0.7-0.4c2.2-1.2,4.7-2.1,7.2-2.8c0.1,0,0.1,0,0.2-0.1c1.9-0.5,3.8-0.8,5.8-1
		c0,0,0,0,0.1,0c1-0.1,2.1-0.1,3.2-0.1h8.2c0,0,0,0,0,0h10.8c0.4,0,0.8,0,1.2,0c0.4,0,0.8,0,1.1,0c0.3,0,0.6,0,0.9,0.1
		c0,0,0,0,0.1,0c1.3,0.1,2.6,0.3,3.8,0.5c0.3,0,0.6,0.1,0.8,0.2c0,0,0,0,0,0c3.4,0.7,6.6,1.9,9.4,3.5c0.4,0.2,0.8,0.4,1.1,0.7
		c0.1,0,0.1,0.1,0.2,0.1c0.1,0.1,0.3,0.2,0.4,0.3c0.1,0,0.1,0.1,0.2,0.1c1.9,1.3,3.5,3.1,4.7,5.1c0,0,0,0,0,0c0.4,0.7,0.8,1.3,1.1,2
		c1.3,2.7,2.1,5.9,2.3,9.1v0C159.6,305.1,159.6,305.9,159.6,306.6z"/>
	<path class="st4" d="M94.2,283.5c0,0-6.6,1.8-4.4,7.9c2.2,6.1,14,7.2,16.1,5.7L94.2,283.5z"/>
	<path class="st16" d="M101,273.8c0,0-10.4,4.6-5.4,14.2c5,9.5,20.5,14.1,27.1,10.8C122.7,298.8,101.7,289.3,101,273.8z"/>
	<path class="st4" d="M110.4,260.1c0,0-9.4,3.2-9.4,13.7s11.5,21.4,21.7,25s20.4-1.7,20.4-1.7s-26.9-7.4-31.2-26.2
		C111,266.8,110.4,260.1,110.4,260.1z"/>
	<path class="st16" d="M156.1,293.2C156.1,293.2,156.1,293.2,156.1,293.2c-0.3,2.5-2.6,4.8-8.3,4.5c-1.7-0.1-3.4-0.3-5-0.5
		c-8.6-1.3-15.2-4.6-20.2-8.6c-2.3-1.9-4.3-3.9-6-6c-4.7-5.8-6.9-12-7.3-15.6c-0.3-2.7,0.2-4.9,1-6.7c1.6-3.6,4.5-5.3,4.5-5.3
		c0,0.2,0,0.3,0,0.5c0.5,7.7,3.6,13.7,7.8,18.3c0.2,0.2,0.4,0.4,0.6,0.7c0,0,0.1,0.1,0.1,0.1c1.2,1.2,2.4,2.3,3.7,3.4c0,0,0,0,0,0
		c2.4,1.9,4.9,3.5,7.4,4.7c7.7,4,15,5.4,16.5,5.3c0,0,0.1,0,0.1,0c0.2,0,0.4,0,0.6,0C154.6,288.2,156.4,290.7,156.1,293.2z"/>
	<path class="st4" d="M151.8,287.9c-0.1,0-0.3,0.1-0.4,0.1c-3.6,0.9-9.6,0.1-18-5.5c-2-1.3-4-2.8-6.2-4.7c0,0,0,0,0,0
		c-1.4-1.2-2.6-2.3-3.7-3.4c0,0-0.1-0.1-0.1-0.1c-0.2-0.2-0.4-0.4-0.6-0.6c-7.9-8.2-8.6-14.5-7.8-18.4c0.6-2.9,2.1-4.4,2.1-4.4
		c0,0,0,0,0,0c0.4,2.4,1.2,4.6,2.4,6.5c0.9,1.6,2.1,3,3.3,4.2c6.7,6.7,16.8,8.8,16.8,8.8c0.7,0.1,1.4,0.3,2.1,0.5
		c5.7,2.1,12.5,8.8,13.7,12.3C155.8,285,154.6,287.1,151.8,287.9z"/>
	<path class="st16" d="M141.6,271.1c-0.8,1.5-3.1,2.2-8.3,0.6c-4.6-1.5-8.1-4.8-10.6-8.3c-1.4-2-2.5-4-3.3-5.8
		c-1.6-3.4-2.3-6.1-2.4-6.5c0,0,0,0,0,0c1.9,2,3.8,3.5,5.7,4.6c6.7,3.8,13.5,3.7,17.3,8.7C140.9,265.5,142.7,269.1,141.6,271.1z"/>
	<path class="st17" d="M150.5,308.6l-0.7,4.6l-0.5,3.2l-5.2,34h-9.5l2.7-31.4l0.5-5.8l0.4-4.9v0l0.1-0.7c0.2-2.4,2.2-4.2,4.6-4.2
		h3.2C148.8,303.4,150.9,305.9,150.5,308.6z"/>
	<path class="st17" d="M128.9,308.2l-0.2,5.1l-0.2,4.8l-1.1,32.4H118L117,318l-0.2-4.7l-0.2-5.1c-0.1-2.6,2-4.7,4.6-4.7h3.2
		C127,303.4,129,305.6,128.9,308.2z"/>
	<path class="st18" d="M138.2,308.4L138.2,308.4l-0.4,4.9l-0.5,5.8l-2.7,31.4h-7.1l1.1-32.4l0.2-4.8l0.2-5.1l0-0.3
		c0.1-2.5,2.1-4.4,4.6-4.4h0.1C136.3,303.4,138.4,305.7,138.2,308.4z"/>
	<path class="st18" d="M159.8,308.9l-0.4,2.1l-0.4,2.2l-1.2,6.2l-4.9,24c-0.8,4.1-4.4,7-8.6,7l5.2-34l0.5-3.2l0.7-4.6l0.2-1.3
		c0.2-1.1,0.7-2.1,1.5-2.8c0.8-0.7,1.9-1.1,3-1.1c2,0,3.7,1.3,4.3,3v0c0,0.1,0,0.1,0.1,0.2C159.9,307.3,159.9,308.1,159.8,308.9z"/>
	<path class="st17" d="M107.2,307.6l3.6,42.8h-9.5L95,308.7c-0.4-2.8,1.7-5.3,4.5-5.3h3.2C105.1,303.4,107,305.2,107.2,307.6z"/>
	<path class="st18" d="M116.6,307.8l1.4,42.6h-7.1l-3.6-42.1c-0.2-2.7,1.9-5,4.6-5h0.1C114.5,303.4,116.5,305.4,116.6,307.8z"/>
	<path class="st18" d="M94.8,307.3l6.6,43.1c-4.2,0-7.7-2.9-8.6-7l-7-34.5c-0.6-2.8,1.6-5.5,4.5-5.5h0
		C92.5,303.4,94.4,305.1,94.8,307.3z"/>
	<path class="st7" d="M711.4,304.5c0,1.3-0.1,2.5-0.3,3.8l-0.4,2.8h-72.2v0l-0.4-2.8c-0.2-1.3-0.3-2.5-0.3-3.8c0,0,0,0,0,0
		c0-0.7,0-1.5,0.1-2.2c0.2-3.3,1-6.4,2.3-9.2c0.5-1.1,1.2-2.2,1.9-3.2c1.2-1.7,2.7-3.2,4.4-4.3c0.2-0.2,0.5-0.3,0.7-0.5
		c0.3-0.2,0.5-0.3,0.8-0.5c0.2-0.1,0.5-0.3,0.7-0.4c2.2-1.2,4.7-2.1,7.2-2.8c0.1,0,0.1,0,0.2-0.1c1.9-0.5,3.8-0.8,5.8-1
		c0,0,0,0,0.1,0c1-0.1,2.1-0.1,3.2-0.1h8.2c0,0,0,0,0,0H684c0.4,0,0.8,0,1.2,0c0.4,0,0.8,0,1.1,0c0.3,0,0.6,0,0.9,0.1c0,0,0,0,0.1,0
		c1.3,0.1,2.6,0.3,3.8,0.5c0.3,0,0.6,0.1,0.8,0.2c0,0,0,0,0,0c3.4,0.7,6.6,1.9,9.4,3.5c0.4,0.2,0.8,0.4,1.1,0.7
		c0.1,0,0.1,0.1,0.2,0.1c0.1,0.1,0.3,0.2,0.4,0.3c0.1,0,0.1,0.1,0.2,0.1c1.9,1.3,3.5,3.1,4.7,5.1c0,0,0,0,0,0c0.4,0.7,0.8,1.3,1.1,2
		c1.3,2.7,2.1,5.9,2.3,9.1v0C711.4,303,711.4,303.7,711.4,304.5z"/>
	<path class="st12" d="M646,281.3c0,0-6.6,1.8-4.4,7.9c2.2,6.1,14,7.2,16.1,5.7L646,281.3z"/>
	<path class="st13" d="M652.7,271.7c0,0-10.4,4.6-5.4,14.2s20.5,14.1,27.1,10.8C674.4,296.6,653.4,287.2,652.7,271.7z"/>
	<path class="st12" d="M662.1,258c0,0-9.4,3.2-9.4,13.7s11.5,21.4,21.7,25s20.4-1.7,20.4-1.7s-26.9-7.4-31.2-26.2
		C662.7,264.7,662.1,258,662.1,258z"/>
	<path class="st13" d="M707.9,291C707.9,291,707.9,291,707.9,291c-0.3,2.5-2.6,4.8-8.3,4.5c-1.7-0.1-3.4-0.3-5-0.5
		c-8.6-1.3-15.2-4.6-20.2-8.6c-2.3-1.9-4.3-3.9-6-6c-4.7-5.8-6.9-12-7.3-15.6c-0.3-2.7,0.2-4.9,1-6.7c1.6-3.6,4.5-5.3,4.5-5.3
		c0,0.2,0,0.3,0,0.5c0.5,7.7,3.6,13.7,7.8,18.3c0.2,0.2,0.4,0.4,0.6,0.7c0,0,0.1,0.1,0.1,0.1c1.2,1.2,2.4,2.3,3.7,3.4c0,0,0,0,0,0
		c2.4,1.9,4.9,3.5,7.4,4.7c7.7,4,15,5.4,16.5,5.3c0,0,0.1,0,0.1,0c0.2,0,0.4,0,0.6,0C706.3,286.1,708.1,288.6,707.9,291z"/>
	<path class="st12" d="M703.5,285.8c-0.1,0-0.3,0.1-0.4,0.1c-3.6,0.9-9.6,0.1-18-5.5c-2-1.3-4-2.8-6.2-4.7c0,0,0,0,0,0
		c-1.4-1.2-2.6-2.3-3.7-3.4c0,0-0.1-0.1-0.1-0.1c-0.2-0.2-0.4-0.4-0.6-0.6c-7.9-8.2-8.6-14.5-7.8-18.4c0.6-2.9,2.1-4.4,2.1-4.4
		c0,0,0,0,0,0c0.4,2.4,1.2,4.6,2.4,6.5c0.9,1.6,2.1,3,3.3,4.2c6.7,6.7,16.8,8.8,16.8,8.8c0.7,0.1,1.4,0.3,2.1,0.5
		c5.7,2.1,12.5,8.8,13.7,12.3C707.6,282.9,706.4,284.9,703.5,285.8z"/>
	<path class="st13" d="M693.3,269c-0.8,1.5-3.1,2.2-8.3,0.6c-4.6-1.5-8.1-4.8-10.6-8.3c-1.4-2-2.5-4-3.3-5.8
		c-1.6-3.4-2.3-6.1-2.4-6.5c0,0,0,0,0,0c1.9,2,3.8,3.5,5.7,4.6c6.7,3.8,13.5,3.7,17.3,8.7C692.7,263.3,694.4,266.9,693.3,269z"/>
	<path class="st14" d="M702.3,306.5l-0.7,4.6l-0.5,3.2l-5.2,34h-9.5l2.7-31.4l0.5-5.8l0.4-4.9v0l0.1-0.7c0.2-2.4,2.2-4.2,4.6-4.2
		h3.2C700.5,301.3,702.7,303.7,702.3,306.5z"/>
	<path class="st14" d="M680.7,306l-0.2,5.1l-0.2,4.8l-1.1,32.4h-9.5l-1.1-32.5l-0.2-4.7l-0.2-5.1c-0.1-2.6,2-4.7,4.6-4.7h3.2
		C678.7,301.3,680.8,303.4,680.7,306z"/>
	<path class="st15" d="M690,306.2L690,306.2l-0.4,4.9l-0.5,5.8l-2.7,31.4h-7.1l1.1-32.4l0.2-4.8l0.2-5.1l0-0.3
		c0.1-2.5,2.1-4.4,4.6-4.4h0.1C688.1,301.3,690.2,303.6,690,306.2z"/>
	<path class="st15" d="M711.5,306.8l-0.4,2.1l-0.4,2.2l-1.2,6.2l-4.9,24c-0.8,4.1-4.4,7-8.6,7l5.2-34l0.5-3.2l0.7-4.6l0.2-1.3
		c0.2-1.1,0.7-2.1,1.5-2.8s1.9-1.1,3-1.1c2,0,3.7,1.3,4.3,3v0c0,0.1,0,0.1,0.1,0.2C711.6,305.2,711.7,306,711.5,306.8z"/>
	<path class="st14" d="M659,305.5l3.6,42.8h-9.5l-6.3-41.8c-0.4-2.8,1.7-5.3,4.5-5.3h3.2C656.8,301.3,658.8,303.1,659,305.5z"/>
	<path class="st15" d="M668.3,305.7l1.4,42.6h-7.1l-3.6-42.1c-0.2-2.7,1.9-5,4.6-5h0.1C666.2,301.3,668.2,303.2,668.3,305.7z"/>
	<path class="st15" d="M646.5,305.2l6.6,43.1c-4.2,0-7.7-2.9-8.6-7l-7-34.5c-0.6-2.8,1.6-5.5,4.5-5.5l0,0
		C644.3,301.3,646.2,302.9,646.5,305.2z"/>
	<path class="st7" d="M602.2,306.6c0,1.3-0.1,2.5-0.3,3.8l-0.4,2.8h-72.2v0l-0.4-2.8c-0.2-1.3-0.3-2.5-0.3-3.8c0,0,0,0,0,0
		c0-0.7,0-1.5,0.1-2.2c0.2-3.3,1-6.4,2.3-9.2c0.5-1.1,1.2-2.2,1.9-3.2c1.2-1.7,2.7-3.2,4.4-4.3c0.2-0.2,0.5-0.3,0.7-0.5
		c0.3-0.2,0.5-0.3,0.8-0.5c0.2-0.1,0.5-0.3,0.7-0.4c2.2-1.2,4.7-2.1,7.2-2.8c0.1,0,0.1,0,0.2-0.1c1.9-0.5,3.8-0.8,5.8-1
		c0,0,0,0,0.1,0c1-0.1,2.1-0.1,3.2-0.1h8.2c0,0,0,0,0,0h10.8c0.4,0,0.8,0,1.2,0c0.4,0,0.8,0,1.1,0c0.3,0,0.6,0,0.9,0.1
		c0,0,0,0,0.1,0c1.3,0.1,2.6,0.3,3.8,0.5c0.3,0,0.6,0.1,0.8,0.2c0,0,0,0,0,0c3.4,0.7,6.6,1.9,9.4,3.5c0.4,0.2,0.8,0.4,1.1,0.7
		c0.1,0,0.1,0.1,0.2,0.1c0.1,0.1,0.3,0.2,0.4,0.3c0.1,0,0.1,0.1,0.2,0.1c1.9,1.3,3.5,3.1,4.7,5.1c0,0,0,0,0,0c0.4,0.7,0.8,1.3,1.1,2
		c1.3,2.7,2.1,5.9,2.3,9.1v0C602.2,305.1,602.2,305.8,602.2,306.6z"/>
	<path class="st8" d="M536.8,283.4c0,0-6.6,1.8-4.4,7.9s14,7.2,16.1,5.7L536.8,283.4z"/>
	<path class="st9" d="M543.5,273.8c0,0-10.4,4.6-5.4,14.2c5,9.5,20.5,14.1,27.1,10.8C565.2,298.7,544.2,289.3,543.5,273.8z"/>
	<path class="st8" d="M552.9,260.1c0,0-9.4,3.2-9.4,13.7c0,10.5,11.5,21.4,21.7,25c10.2,3.6,20.4-1.7,20.4-1.7s-26.9-7.4-31.2-26.2
		C553.5,266.8,552.9,260.1,552.9,260.1z"/>
	<path class="st9" d="M598.7,293.1C598.7,293.1,598.7,293.1,598.7,293.1c-0.3,2.5-2.6,4.8-8.3,4.5c-1.7-0.1-3.4-0.3-5-0.5
		c-8.6-1.3-15.2-4.6-20.2-8.6c-2.3-1.9-4.3-3.9-6-6c-4.7-5.8-6.9-12-7.3-15.6c-0.3-2.7,0.2-4.9,1-6.7c1.6-3.6,4.5-5.3,4.5-5.3
		c0,0.2,0,0.3,0,0.5c0.5,7.7,3.6,13.7,7.8,18.3c0.2,0.2,0.4,0.4,0.6,0.7c0,0,0.1,0.1,0.1,0.1c1.2,1.2,2.4,2.3,3.7,3.4c0,0,0,0,0,0
		c2.4,1.9,4.9,3.5,7.4,4.7c7.7,4,15,5.4,16.5,5.3c0,0,0.1,0,0.1,0c0.2,0,0.4,0,0.6,0C597.1,288.2,598.9,290.7,598.7,293.1z"/>
	<path class="st8" d="M594.3,287.9c-0.1,0-0.3,0.1-0.4,0.1c-3.6,0.9-9.6,0.1-18-5.5c-2-1.3-4-2.8-6.2-4.7c0,0,0,0,0,0
		c-1.4-1.2-2.6-2.3-3.7-3.4c0,0-0.1-0.1-0.1-0.1c-0.2-0.2-0.4-0.4-0.6-0.6c-7.9-8.2-8.6-14.5-7.8-18.4c0.6-2.9,2.1-4.4,2.1-4.4
		c0,0,0,0,0,0c0.4,2.4,1.2,4.6,2.4,6.5c0.9,1.6,2.1,3,3.3,4.2c6.7,6.7,16.8,8.8,16.8,8.8c0.7,0.1,1.4,0.3,2.1,0.5
		c5.7,2.1,12.5,8.8,13.7,12.3C598.4,285,597.2,287,594.3,287.9z"/>
	<path class="st9" d="M584.1,271.1c-0.8,1.5-3.1,2.2-8.3,0.6c-4.6-1.5-8.1-4.8-10.6-8.3c-1.4-2-2.5-4-3.3-5.8
		c-1.6-3.4-2.3-6.1-2.4-6.5c0,0,0,0,0,0c1.9,2,3.8,3.5,5.7,4.6c6.7,3.8,13.5,3.7,17.3,8.7C583.5,265.4,585.2,269,584.1,271.1z"/>
	<path class="st10" d="M593.1,308.6l-0.7,4.6l-0.5,3.2l-5.2,34h-9.5l2.7-31.4l0.5-5.8l0.4-4.9v0l0.1-0.7c0.2-2.4,2.2-4.2,4.6-4.2
		h3.2C591.3,303.4,593.5,305.9,593.1,308.6z"/>
	<path class="st10" d="M571.5,308.1l-0.2,5.1l-0.2,4.8l-1.1,32.4h-9.5l-1.1-32.5l-0.2-4.7l-0.2-5.1c-0.1-2.6,2-4.7,4.6-4.7h3.2
		C569.5,303.4,571.6,305.5,571.5,308.1z"/>
	<path class="st11" d="M580.8,308.3L580.8,308.3l-0.4,4.9l-0.5,5.8l-2.7,31.4h-7.1l1.1-32.4l0.2-4.8l0.2-5.1l0-0.3
		c0.1-2.5,2.1-4.4,4.6-4.4h0.1C578.9,303.4,581,305.7,580.8,308.3z"/>
	<path class="st11" d="M602.3,308.9l-0.4,2.1l-0.4,2.2l-1.2,6.2l-4.9,24c-0.8,4.1-4.4,7-8.6,7l5.2-34l0.5-3.2l0.7-4.6l0.2-1.3
		c0.2-1.1,0.7-2.1,1.5-2.8c0.8-0.7,1.9-1.1,3-1.1c2,0,3.7,1.3,4.3,3v0c0,0.1,0,0.1,0.1,0.2C602.4,307.3,602.5,308.1,602.3,308.9z"/>
	<path class="st10" d="M549.8,307.6l3.6,42.8h-9.5l-6.3-41.8c-0.4-2.8,1.7-5.3,4.5-5.3h3.2C547.6,303.4,549.6,305.2,549.8,307.6z"/>
	<path class="st11" d="M559.1,307.8l1.4,42.6h-7.1l-3.6-42.1c-0.2-2.7,1.9-5,4.6-5h0.1C557,303.4,559,305.4,559.1,307.8z"/>
	<path class="st11" d="M537.3,307.3l6.6,43.1c-4.2,0-7.7-2.9-8.6-7l-7-34.5c-0.6-2.8,1.6-5.5,4.5-5.5l0,0
		C535.1,303.4,537,305.1,537.3,307.3z"/>
	<path class="st7" d="M491.1,306.6c0,1.3-0.1,2.5-0.3,3.8l-0.4,2.8h-72.2v0l-0.4-2.8c-0.2-1.3-0.3-2.5-0.3-3.8c0,0,0,0,0,0
		c0-0.7,0-1.5,0.1-2.2c0.2-3.3,1-6.4,2.3-9.2c0.5-1.1,1.2-2.2,1.9-3.2c1.2-1.7,2.7-3.2,4.4-4.3c0.2-0.2,0.5-0.3,0.7-0.5
		c0.3-0.2,0.5-0.3,0.8-0.5c0.2-0.1,0.5-0.3,0.7-0.4c2.2-1.2,4.7-2.1,7.2-2.8c0.1,0,0.1,0,0.2-0.1c1.9-0.5,3.8-0.8,5.8-1
		c0,0,0,0,0.1,0c1-0.1,2.1-0.1,3.2-0.1h8.2c0,0,0,0,0,0h10.8c0.4,0,0.8,0,1.2,0c0.4,0,0.8,0,1.1,0c0.3,0,0.6,0,0.9,0.1
		c0,0,0,0,0.1,0c1.3,0.1,2.6,0.3,3.8,0.5c0.3,0,0.6,0.1,0.8,0.2c0,0,0,0,0,0c3.4,0.7,6.6,1.9,9.4,3.5c0.4,0.2,0.8,0.4,1.1,0.7
		c0.1,0,0.1,0.1,0.2,0.1c0.1,0.1,0.3,0.2,0.4,0.3c0.1,0,0.1,0.1,0.2,0.1c1.9,1.3,3.5,3.1,4.7,5.1c0,0,0,0,0,0c0.4,0.7,0.8,1.3,1.1,2
		c1.3,2.7,2.1,5.9,2.3,9.1v0C491.1,305.1,491.1,305.9,491.1,306.6z"/>
	<path class="st4" d="M425.7,283.5c0,0-6.6,1.8-4.4,7.9c2.2,6.1,14,7.2,16.1,5.7L425.7,283.5z"/>
	<path class="st16" d="M432.4,273.8c0,0-10.4,4.6-5.4,14.2c5,9.5,20.5,14.1,27.1,10.8C454.2,298.8,433.2,289.3,432.4,273.8z"/>
	<path class="st4" d="M441.9,260.1c0,0-9.4,3.2-9.4,13.7s11.5,21.4,21.7,25c10.2,3.6,20.4-1.7,20.4-1.7s-26.9-7.4-31.2-26.2
		C442.4,266.8,441.9,260.1,441.9,260.1z"/>
	<path class="st16" d="M487.6,293.2C487.6,293.2,487.6,293.2,487.6,293.2c-0.3,2.5-2.6,4.8-8.3,4.5c-1.7-0.1-3.4-0.3-5-0.5
		c-8.6-1.3-15.2-4.6-20.2-8.6c-2.3-1.9-4.3-3.9-6-6c-4.7-5.8-6.9-12-7.3-15.6c-0.3-2.7,0.2-4.9,1-6.7c1.6-3.6,4.5-5.3,4.5-5.3
		c0,0.2,0,0.3,0,0.5c0.5,7.7,3.6,13.7,7.8,18.3c0.2,0.2,0.4,0.4,0.6,0.7c0,0,0.1,0.1,0.1,0.1c1.2,1.2,2.4,2.3,3.7,3.4c0,0,0,0,0,0
		c2.4,1.9,4.9,3.5,7.4,4.7c7.7,4,15,5.4,16.5,5.3c0,0,0.1,0,0.1,0c0.2,0,0.4,0,0.6,0C486.1,288.2,487.9,290.7,487.6,293.2z"/>
	<path class="st4" d="M483.3,287.9c-0.1,0-0.3,0.1-0.4,0.1c-3.6,0.9-9.6,0.1-18-5.5c-2-1.3-4-2.8-6.2-4.7c0,0,0,0,0,0
		c-1.4-1.2-2.6-2.3-3.7-3.4c0,0-0.1-0.1-0.1-0.1c-0.2-0.2-0.4-0.4-0.6-0.6c-7.9-8.2-8.6-14.5-7.8-18.4c0.6-2.9,2.1-4.4,2.1-4.4
		c0,0,0,0,0,0c0.4,2.4,1.2,4.6,2.4,6.5c0.9,1.6,2.1,3,3.3,4.2c6.7,6.7,16.8,8.8,16.8,8.8c0.7,0.1,1.4,0.3,2.1,0.5
		c5.7,2.1,12.5,8.8,13.7,12.3C487.3,285,486.1,287.1,483.3,287.9z"/>
	<path class="st16" d="M473.1,271.1c-0.8,1.5-3.1,2.2-8.3,0.6c-4.6-1.5-8.1-4.8-10.6-8.3c-1.4-2-2.5-4-3.3-5.8
		c-1.6-3.4-2.3-6.1-2.4-6.5c0,0,0,0,0,0c1.9,2,3.8,3.5,5.7,4.6c6.7,3.8,13.5,3.7,17.3,8.7C472.4,265.5,474.1,269.1,473.1,271.1z"/>
	<path class="st17" d="M482,308.6l-0.7,4.6l-0.5,3.2l-5.2,34h-9.5l2.7-31.4l0.5-5.8l0.4-4.9v0l0.1-0.7c0.2-2.4,2.2-4.2,4.6-4.2h3.2
		C480.3,303.4,482.4,305.9,482,308.6z"/>
	<path class="st17" d="M460.4,308.2l-0.2,5.1l-0.2,4.8l-1.1,32.4h-9.5l-1.1-32.5l-0.2-4.7l-0.2-5.1c-0.1-2.6,2-4.7,4.6-4.7h3.2
		C458.4,303.4,460.5,305.6,460.4,308.2z"/>
	<path class="st18" d="M469.7,308.4L469.7,308.4l-0.4,4.9l-0.5,5.8l-2.7,31.4H459l1.1-32.4l0.2-4.8l0.2-5.1l0-0.3
		c0.1-2.5,2.1-4.4,4.6-4.4h0.1C467.8,303.4,469.9,305.7,469.7,308.4z"/>
	<path class="st18" d="M491.2,308.9l-0.4,2.1l-0.4,2.2l-1.2,6.2l-4.9,24c-0.8,4.1-4.4,7-8.6,7l5.2-34l0.5-3.2l0.7-4.6l0.2-1.3
		c0.2-1.1,0.7-2.1,1.5-2.8c0.8-0.7,1.9-1.1,3-1.1c2,0,3.7,1.3,4.3,3v0c0,0.1,0,0.1,0.1,0.2C491.3,307.3,491.4,308.1,491.2,308.9z"/>
	<path class="st17" d="M438.7,307.6l3.6,42.8h-9.5l-6.3-41.8c-0.4-2.8,1.7-5.3,4.5-5.3h3.2C436.5,303.4,438.5,305.2,438.7,307.6z"/>
	<path class="st18" d="M448,307.8l1.4,42.6h-7.1l-3.6-42.1c-0.2-2.7,1.9-5,4.6-5h0.1C445.9,303.4,448,305.4,448,307.8z"/>
	<path class="st18" d="M426.3,307.3l6.6,43.1c-4.2,0-7.7-2.9-8.6-7l-7-34.5c-0.6-2.8,1.6-5.5,4.5-5.5l0,0
		C424,303.4,425.9,305.1,426.3,307.3z"/>
</g>
</svg>
